<svg width="176" height="176" viewBox="0 0 176 176" fill="none" xmlns="http://www.w3.org/2000/svg">
<path d="M47.9812 44.4822C44.7828 44.4822 41.7154 43.2117 39.4538 40.9501C37.1922 38.6885 35.9216 35.6211 35.9216 32.4227C35.9216 29.2243 37.1922 26.1569 39.4538 23.8953C41.7154 21.6337 44.7828 20.3632 47.9812 20.3632C51.1795 20.3632 54.2469 21.6337 56.5085 23.8953C58.7701 26.1569 60.0407 29.2243 60.0407 32.4227C60.0407 35.6211 58.7701 38.6885 56.5085 40.9501C54.2469 43.2117 51.1795 44.4822 47.9812 44.4822Z" fill="#EBEBEB"/>
<path d="M45.0067 29.7369H42.511V37.8013H45.0067V29.7369Z" fill="white"/>
<path d="M43.7466 28.6809C44.0417 28.6837 44.3309 28.5988 44.5776 28.4369C44.8243 28.2749 45.0174 28.0434 45.1322 27.7716C45.2471 27.4998 45.2786 27.2 45.2227 26.9102C45.1669 26.6205 45.0262 26.3538 44.8185 26.1442C44.6109 25.9345 44.3456 25.7913 44.0564 25.7327C43.7672 25.6741 43.4671 25.7028 43.1942 25.815C42.9213 25.9273 42.6879 26.1181 42.5237 26.3633C42.3594 26.6084 42.2717 26.8969 42.2717 27.192C42.2708 27.5847 42.4254 27.9618 42.7018 28.2409C42.9782 28.5199 43.3539 28.6781 43.7466 28.6809Z" fill="white"/>
<path d="M48.9984 33.5667C48.9984 32.4333 49.5194 31.7574 50.5191 31.7574C51.4343 31.7574 51.8778 32.4051 51.8778 33.5667V37.7907H54.3594V32.6937C54.3594 30.5325 53.138 29.4905 51.4272 29.4905C50.9421 29.4843 50.4635 29.6035 50.038 29.8366C49.6124 30.0697 49.2543 30.4089 48.9984 30.8211V29.7369H46.6013V37.7977H48.9984V33.5667Z" fill="white"/>
<path d="M64.1415 8.40924L65.7924 11.4259L68.8126 13.0803L65.7924 14.7312L64.1415 17.7478L62.4906 14.7312L59.4705 13.0803L62.4906 11.4259L64.1415 8.40924Z" fill="#F5F5F5"/>
<path d="M133.01 90.207L134.249 92.4739L136.513 93.7094L134.249 94.9485L133.01 97.2153L131.771 94.9485L129.508 93.7094L131.771 92.4739L133.01 90.207Z" fill="#EBEBEB"/>
<path d="M136.513 79.0275L137.072 80.0483L138.093 80.608L137.072 81.1676L136.513 82.1884L135.956 81.1676L134.932 80.608L135.956 80.0483L136.513 79.0275Z" fill="#E0E0E0"/>
<path d="M52.3459 9.54266L52.9055 10.567L53.9263 11.1231L52.9055 11.6828L52.3459 12.7036L51.7897 11.6828L50.7654 11.1231L51.7897 10.567L52.3459 9.54266Z" fill="#E0E0E0"/>
<path d="M24.3338 104.459C24.9833 104.162 25.5314 103.681 25.9105 103.075C26.2896 102.47 26.483 101.766 26.4669 101.052C26.4669 99.0351 24.9005 97.4159 23.0103 97.43C21.12 97.4441 19.6029 99.095 19.6205 101.112C19.6154 101.832 19.824 102.538 20.22 103.139C20.6161 103.741 21.1816 104.211 21.8451 104.491C16.5863 105.354 16.896 111.077 16.896 111.077L29.3533 110.971C29.3533 110.971 29.568 105.181 24.3338 104.459Z" fill="#E0E0E0"/>
<path d="M143.841 142.187C143.754 141.735 143.508 141.33 143.149 141.042C142.79 140.755 142.34 140.605 141.88 140.618C141.421 140.632 140.981 140.808 140.639 141.116C140.297 141.424 140.076 141.844 140.015 142.3C139.951 141.844 139.728 141.427 139.384 141.121C139.041 140.815 138.6 140.641 138.141 140.63C137.681 140.619 137.233 140.772 136.875 141.061C136.518 141.35 136.274 141.756 136.189 142.208C136.097 142.875 136.266 143.552 136.661 144.098C137.051 144.636 137.511 145.121 138.026 145.541C138.73 146.164 139.367 146.745 140.064 147.365C140.768 146.738 141.342 146.15 142.032 145.524C142.546 145.1 143.001 144.61 143.387 144.067C143.773 143.521 143.935 142.848 143.841 142.187Z" fill="#EBEBEB"/>
<path d="M151.955 67.9888L153.289 67.7248L155.401 63.0854L154.873 60.4208C154.873 60.4208 156.911 59.8857 157.362 63.4233C157.812 66.9609 157.897 66.0211 157.897 66.0211C157.897 66.0211 162.279 65.1692 162.719 65.4755C163.039 65.7008 164.021 70.0304 164.535 72.3817C164.678 72.9453 164.627 73.5403 164.391 74.0718C164.156 74.6032 163.749 75.0405 163.236 75.3139C163.09 75.3858 162.935 75.4379 162.775 75.4688C161.684 75.687 155.925 75.9053 155.925 75.9053L153.62 76.3629L151.955 67.9888Z" fill="#E0E0E0"/>
<path d="M147.988 68.0134L150.617 76.9824L152.905 76.5283L151.131 67.584L147.988 68.0134Z" fill="#E0E0E0"/>
<path d="M165.605 165.201C165.605 165.253 130.698 165.292 87.6479 165.292C44.5983 165.292 9.67993 165.253 9.67993 165.201C9.67993 165.148 44.5807 165.109 87.6479 165.109C130.715 165.109 165.605 165.151 165.605 165.201Z" fill="#263238"/>
<path d="M138.487 64.4688C135.076 66.1269 131.146 66.3624 127.561 65.1234C123.976 63.8844 121.03 61.2724 119.37 57.8617C117.712 54.4504 117.477 50.5201 118.716 46.9352C119.955 43.3503 122.567 40.4041 125.977 38.7446C127.666 37.9231 129.501 37.4423 131.376 37.3298C133.25 37.2172 135.129 37.4751 136.904 38.0886C138.68 38.7021 140.317 39.6593 141.722 40.9055C143.127 42.1517 144.273 43.6625 145.094 45.3516C145.916 47.0407 146.397 48.875 146.509 50.7499C146.622 52.6248 146.364 54.5034 145.75 56.2787C145.137 58.0539 144.18 59.6908 142.934 61.0961C141.687 62.5014 140.177 63.6474 138.487 64.4688Z" fill="#0075FF"/>
<path d="M128.698 54.8029C128.751 54.8017 128.802 54.7887 128.849 54.7651C128.896 54.7414 128.937 54.7076 128.969 54.6661C129.001 54.6246 129.023 54.5765 129.034 54.5252C129.045 54.474 129.045 54.4209 129.033 54.3699C128.998 54.1974 128.903 53.7609 128.867 53.5814C128.818 53.3315 128.758 53.2646 128.515 53.152C127.885 52.862 127.383 52.3493 127.107 51.7123C126.03 49.4947 126.724 46.7034 129.385 45.4115C131.74 44.264 133.735 45.0595 134.665 46.9955C135.893 49.5264 135.812 52.2051 134.151 53.0147C133.944 53.1287 133.713 53.1925 133.476 53.2009C133.24 53.2094 133.005 53.1622 132.79 53.0632C132.576 52.9643 132.387 52.8163 132.24 52.6311C132.093 52.446 131.992 52.229 131.944 51.9974C131.669 50.7584 131.592 49.3117 131.205 48.5091C130.853 47.8051 130.177 47.3792 129.381 47.7664C128.441 48.224 128.16 49.5616 128.793 50.8605C129.019 51.3408 129.344 51.7679 129.747 52.1136C129.747 52.1136 130.768 56.6473 130.944 57.4429C131.296 59.0233 132.43 60.6109 132.539 60.7904C132.554 60.8103 132.575 60.8254 132.599 60.834C132.623 60.8425 132.649 60.8441 132.673 60.8385C132.698 60.833 132.721 60.8206 132.739 60.8027C132.756 60.7848 132.769 60.7623 132.775 60.7376C132.806 60.5827 133.253 58.6608 132.961 57.0979C132.88 56.6544 132.405 54.384 132.405 54.384C132.993 54.8169 134.133 54.8979 135.08 54.4368C137.896 53.064 138.565 49.5616 136.889 46.119C135.626 43.5178 132.239 42.1661 128.892 43.7958C124.721 45.8234 124.073 49.8326 125.284 52.3248C126.016 53.8349 127.231 54.912 128.698 54.8029Z" fill="white"/>
<path d="M152.768 104.811C151.557 104.35 150.45 103.654 149.508 102.764C148.567 101.874 147.81 100.807 147.282 99.6239C146.753 98.4411 146.463 97.1656 146.427 95.8705C146.392 94.5753 146.613 93.286 147.076 92.0761C147.538 90.8656 148.233 89.758 149.123 88.8165C150.012 87.875 151.079 87.1181 152.261 86.5891C153.444 86.0602 154.719 85.7695 156.014 85.7337C157.309 85.698 158.598 85.9178 159.808 86.3807C161.019 86.8424 162.126 87.5382 163.068 88.4283C164.009 89.3184 164.766 90.3855 165.294 91.5683C165.823 92.7511 166.113 94.0266 166.149 95.3218C166.184 96.6169 165.963 97.9063 165.5 99.1161C165.039 100.327 164.343 101.434 163.453 102.376C162.564 103.317 161.497 104.074 160.315 104.603C159.132 105.132 157.857 105.423 156.562 105.458C155.267 105.494 153.978 105.274 152.768 104.811Z" fill="#0075FF"/>
<path fill-rule="evenodd" clip-rule="evenodd" d="M161.441 97.2716C161.881 95.9777 161.805 94.564 161.23 93.3245C160.654 92.085 159.623 91.1151 158.35 90.6165C157.078 90.1178 155.662 90.1288 154.398 90.6472C153.133 91.1655 152.117 92.1514 151.561 93.3997C151.529 93.4701 151.501 93.544 151.473 93.6144C151.128 94.5112 151.038 95.4856 151.212 96.4304L149.308 98.7289L152.391 98.9049C152.986 99.6077 153.752 100.144 154.616 100.461C155.48 100.778 156.412 100.866 157.32 100.714C158.228 100.563 159.08 100.179 159.795 99.5987C160.51 99.0186 161.061 98.2628 161.396 97.4054C161.413 97.3617 161.429 97.317 161.441 97.2716ZM154.852 99.6406C154.036 99.3309 153.329 98.7872 152.821 98.0777L151.022 97.9756L152.131 96.6381C151.882 95.7369 151.928 94.7799 152.261 93.9065C152.314 93.7728 152.374 93.639 152.437 93.5123C152.939 92.519 153.793 91.7486 154.832 91.3519C155.872 90.9553 157.022 90.9609 158.058 91.3678C159.094 91.7747 159.94 92.5535 160.432 93.5517C160.924 94.5499 161.025 95.6957 160.716 96.7648C160.685 96.8774 160.649 96.9865 160.607 97.0956C160.181 98.1958 159.335 99.0817 158.256 99.5589C157.177 100.036 155.953 100.065 154.852 99.6406Z" fill="white"/>
<path fill-rule="evenodd" clip-rule="evenodd" d="M158.33 97.3632C158.228 97.2576 157.745 96.7366 157.647 96.6592C157.548 96.5817 157.478 96.5254 157.351 96.6169C157.224 96.7084 156.883 96.888 156.784 96.9408C156.686 96.9936 156.608 96.976 156.51 96.8704C156.205 96.5914 155.951 96.2615 155.76 95.8953C155.589 95.5511 155.471 95.1833 155.408 94.8041C155.387 94.6563 155.471 94.614 155.556 94.5788C155.64 94.5436 155.732 94.4838 155.82 94.438L155.887 94.3958C155.933 94.3602 155.976 94.3214 156.017 94.2796C156.047 94.2534 156.07 94.2197 156.083 94.1821C156.096 94.1444 156.098 94.104 156.091 94.0649C156.091 93.9945 156.066 93.3046 156.056 93.0265C156.045 92.7484 155.929 92.7484 155.859 92.7203C155.788 92.6921 155.711 92.6499 155.63 92.6217C155.568 92.5993 155.501 92.5899 155.435 92.5941C155.369 92.5984 155.305 92.6161 155.246 92.6463C155.06 92.7243 154.892 92.8399 154.753 92.9859C154.613 93.1319 154.506 93.3051 154.437 93.4947C154.385 93.634 154.353 93.7797 154.342 93.9276C154.321 94.2662 154.361 94.6058 154.458 94.9308C154.489 95.0329 154.789 96.5888 155.838 97.5462C156.887 98.5036 156.953 98.3417 157.186 98.4051C157.37 98.441 157.56 98.4364 157.742 98.3914C157.925 98.3464 158.095 98.2622 158.242 98.1446C158.391 97.996 158.493 97.806 158.534 97.599C158.495 97.5321 158.428 97.4688 158.33 97.3632Z" fill="white"/>
<path d="M24.5098 59.2205C22.5148 59.2205 20.6015 58.4279 19.1908 57.0172C17.7801 55.6065 16.9875 53.6932 16.9875 51.6982C16.9875 49.7032 17.7801 47.7899 19.1908 46.3792C20.6015 44.9685 22.5148 44.176 24.5098 44.176C25.4976 44.176 26.4758 44.3705 27.3884 44.7486C28.3011 45.1266 29.1303 45.6807 29.8288 46.3792C30.5273 47.0777 31.0814 47.9069 31.4594 48.8196C31.8375 49.7322 32.032 50.7104 32.032 51.6982C32.032 52.686 31.8375 53.6642 31.4594 54.5768C31.0814 55.4895 30.5273 56.3187 29.8288 57.0172C29.1303 57.7157 28.3011 58.2698 27.3884 58.6479C26.4758 59.0259 25.4976 59.2205 24.5098 59.2205Z" fill="#0075FF"/>
<path d="M20.5039 54.208C21.2263 54.6688 22.0614 54.9226 22.9181 54.9415C23.7748 54.9605 24.6203 54.744 25.3624 54.3156C26.1045 53.8871 26.7148 53.2632 27.1268 52.5119C27.5388 51.7605 27.7366 50.9104 27.6988 50.0544C28.0168 49.8235 28.292 49.5388 28.5119 49.2131C28.2106 49.3453 27.8916 49.4331 27.565 49.4736C27.9093 49.2724 28.1693 48.9536 28.2972 48.576C27.9714 48.7697 27.6139 48.9044 27.2412 48.9737C26.9943 48.7037 26.6646 48.5235 26.304 48.4617C25.9434 48.3998 25.5724 48.4597 25.2497 48.632C24.9269 48.8043 24.6706 49.0791 24.5214 49.4131C24.3721 49.7472 24.3382 50.1214 24.4252 50.4768C23.7712 50.4431 23.1315 50.2725 22.5476 49.976C21.9636 49.6795 21.4485 49.2637 21.0354 48.7555C20.8261 49.1181 20.7624 49.5467 20.8572 49.9545C20.9519 50.3622 21.1981 50.7188 21.5458 50.952C21.2842 50.9452 21.0282 50.8752 20.7996 50.7478C20.7952 51.1311 20.9247 51.5039 21.1656 51.802C21.4065 52.1002 21.7439 52.3049 22.1196 52.3811C21.8774 52.447 21.6233 52.4567 21.3769 52.4092C21.4823 52.7354 21.6867 53.0205 21.9618 53.2249C22.2369 53.4294 22.5689 53.5429 22.9116 53.5497C22.2259 54.0754 21.3617 54.3117 20.5039 54.208Z" fill="white"/>
<path d="M38.0161 143.479C34.6754 144.272 31.1565 143.707 28.2325 141.907C25.3085 140.107 23.2188 137.22 22.4225 133.88C22.0277 132.224 21.9632 130.506 22.2326 128.826C22.5019 127.145 23.1 125.534 23.9924 124.084C24.8849 122.635 26.0543 121.375 27.4338 120.378C28.8133 119.381 30.3758 118.665 32.0321 118.272C33.687 117.878 35.4033 117.813 37.0831 118.082C38.763 118.351 40.3734 118.948 41.8224 119.84C43.2714 120.731 44.5306 121.899 45.5281 123.277C46.5257 124.655 47.242 126.216 47.6362 127.871C48.0309 129.528 48.095 131.246 47.8249 132.927C47.5549 134.608 46.9559 136.22 46.0624 137.67C45.1689 139.119 43.9983 140.379 42.6176 141.375C41.2369 142.372 39.6733 143.087 38.0161 143.479Z" fill="#455A64"/>
<path d="M33.6759 125.213C35.5204 124.773 35.7421 124.728 36.4919 124.587C36.9307 124.488 37.3831 124.466 37.8295 124.52C38.1563 124.559 38.4701 124.671 38.7482 124.847C39.0289 125.018 39.2691 125.247 39.4522 125.52C39.7014 125.894 39.8847 126.308 39.9943 126.745C40.202 127.466 40.2618 127.684 40.6983 129.529C41.1348 131.373 41.1806 131.595 41.3214 132.345C41.4217 132.783 41.4444 133.236 41.3882 133.683C41.3523 134.01 41.2402 134.325 41.0609 134.601C40.8928 134.883 40.6644 135.123 40.3921 135.305C40.0162 135.554 39.6008 135.737 39.1636 135.847C38.4596 136.055 38.2273 136.115 36.3828 136.551C34.5383 136.988 34.3165 137.037 33.5668 137.178C33.1271 137.278 32.6732 137.301 32.2257 137.245C31.8986 137.206 31.5846 137.094 31.3069 136.917C31.0291 136.742 30.7954 136.504 30.6241 136.224C30.3727 135.85 30.1881 135.436 30.0785 134.999C29.8743 134.277 29.8145 134.063 29.3745 132.218C28.9345 130.374 28.8887 130.152 28.7479 129.402C28.6512 128.962 28.6286 128.509 28.681 128.061C28.7243 127.736 28.8357 127.423 29.0079 127.143C29.1802 126.864 29.4094 126.623 29.6807 126.438C30.0548 126.188 30.4691 126.003 30.9057 125.893C31.6097 125.689 31.8455 125.629 33.69 125.189L33.6759 125.213ZM33.3943 123.943C31.5181 124.39 31.2823 124.453 30.5537 124.664C29.9835 124.806 29.4418 125.044 28.9521 125.368C28.5365 125.656 28.1852 126.026 27.9204 126.456C27.6556 126.887 27.4831 127.367 27.4138 127.867C27.3399 128.454 27.3661 129.049 27.4913 129.627C27.6356 130.37 27.6813 130.61 28.1284 132.486C28.5754 134.362 28.6388 134.598 28.8324 135.323C28.9732 135.893 29.2113 136.435 29.5364 136.924C29.8228 137.356 30.2016 137.717 30.6452 137.984C31.0721 138.253 31.5527 138.425 32.0532 138.487C32.64 138.562 33.2352 138.536 33.8132 138.41C34.5559 138.269 34.7953 138.22 36.6714 137.773C38.5476 137.326 38.7834 137.262 39.5086 137.069C40.0779 136.925 40.6191 136.687 41.1102 136.365C41.53 136.082 41.8831 135.71 42.145 135.277C42.4123 134.849 42.5851 134.369 42.6519 133.869C42.7248 133.282 42.6974 132.687 42.571 132.109C42.4302 131.363 42.3809 131.127 41.9338 129.251C41.4868 127.375 41.4234 127.139 41.2298 126.41C41.0852 125.841 40.8474 125.3 40.5258 124.809C40.2425 124.39 39.8714 124.038 39.4382 123.777C39.0119 123.507 38.5311 123.333 38.0301 123.27C37.4433 123.196 36.8482 123.222 36.2701 123.348C35.5239 123.492 35.2881 123.538 33.4119 123.985" fill="white"/>
<path d="M34.1791 127.329C33.4776 127.496 32.8413 127.868 32.3509 128.396C31.8604 128.925 31.5377 129.587 31.4236 130.299C31.3095 131.012 31.4091 131.741 31.7099 132.397C32.0106 133.052 32.499 133.604 33.1132 133.982C33.7274 134.36 34.4399 134.547 35.1606 134.52C35.8813 134.494 36.5778 134.254 37.1621 133.831C37.7464 133.408 38.1922 132.821 38.4432 132.145C38.6942 131.469 38.739 130.734 38.5721 130.032C38.3474 129.092 37.7585 128.279 36.9349 127.772C36.1112 127.265 35.1201 127.106 34.1791 127.329ZM35.5871 133.183C35.1314 133.29 34.6539 133.26 34.2151 133.097C33.7763 132.933 33.3958 132.643 33.1217 132.263C32.8477 131.884 32.6923 131.431 32.6753 130.963C32.6583 130.495 32.7804 130.033 33.0262 129.634C33.272 129.235 33.6304 128.918 34.0562 128.723C34.482 128.528 34.956 128.464 35.4184 128.538C35.8808 128.612 36.3108 128.822 36.6541 129.141C36.9974 129.459 37.2386 129.872 37.3471 130.328C37.4194 130.631 37.4311 130.945 37.3817 131.253C37.3323 131.56 37.2227 131.855 37.0592 132.12C36.8958 132.386 36.6816 132.616 36.429 132.798C36.1764 132.98 35.8903 133.111 35.5871 133.183Z" fill="white"/>
<path d="M38.6638 126.114C38.7023 126.278 38.6914 126.45 38.6324 126.608C38.5735 126.765 38.4691 126.902 38.3326 127C38.1961 127.099 38.0334 127.155 37.8652 127.161C37.697 127.167 37.5308 127.123 37.3875 127.034C37.2442 126.946 37.1303 126.817 37.0602 126.664C36.99 126.511 36.9668 126.341 36.9934 126.175C37.0199 126.009 37.0952 125.854 37.2095 125.73C37.3239 125.607 37.4723 125.52 37.6359 125.481C37.7451 125.454 37.8584 125.45 37.9693 125.467C38.0803 125.485 38.1867 125.524 38.2823 125.583C38.3779 125.642 38.4609 125.719 38.5264 125.81C38.5918 125.902 38.6386 126.005 38.6638 126.114Z" fill="white"/>
<path d="M136.157 132.077C135.364 132.078 134.578 131.922 133.845 131.619C133.111 131.315 132.445 130.87 131.884 130.31C131.322 129.749 130.877 129.083 130.573 128.349C130.27 127.616 130.113 126.831 130.113 126.037C130.113 125.244 130.27 124.458 130.573 123.725C130.877 122.992 131.322 122.326 131.884 121.765C132.445 121.204 133.111 120.759 133.845 120.456C134.578 120.152 135.364 119.996 136.157 119.997C136.951 119.995 137.738 120.151 138.472 120.454C139.206 120.757 139.873 121.201 140.435 121.762C140.997 122.323 141.443 122.99 141.747 123.723C142.051 124.457 142.208 125.243 142.208 126.037C142.208 126.831 142.051 127.618 141.747 128.351C141.443 129.085 140.997 129.751 140.435 130.312C139.873 130.873 139.206 131.318 138.472 131.621C137.738 131.924 136.951 132.079 136.157 132.077Z" fill="#455A64"/>
<path d="M135.235 129.687H136.706V126.016H137.731L137.843 124.784H136.706V124.08C136.706 123.791 136.766 123.675 137.058 123.675H137.857V122.394H136.837C135.742 122.394 135.249 122.876 135.249 123.802V124.787H134.464V126.016H135.228L135.235 129.687Z" fill="white"/>
<path d="M115.551 165.458L67.0139 165.44C64.2132 165.44 61.5272 164.327 59.5468 162.347C57.5664 160.367 56.4539 157.681 56.4539 154.88L56.475 33.2006C56.475 31.8121 56.7488 30.4372 57.2808 29.1546C57.8128 27.8721 58.5926 26.707 59.5754 25.7261C60.5582 24.7453 61.7248 23.9679 63.0085 23.4384C64.2921 22.909 65.6676 22.6379 67.0561 22.6406L115.59 22.6688C118.391 22.6688 121.077 23.7814 123.057 25.7618C125.037 27.7421 126.15 30.4281 126.15 33.2288L126.129 154.88C126.131 156.27 125.859 157.646 125.328 158.931C124.798 160.215 124.018 161.382 123.036 162.365C122.053 163.347 120.886 164.126 119.602 164.657C118.317 165.188 116.941 165.46 115.551 165.458Z" fill="#263238"/>
<path d="M115.537 26.9351H106.125C105.507 26.9498 104.92 27.2083 104.492 27.6541C104.064 28.0998 103.83 28.6967 103.84 29.3146V31.0218C103.847 31.3286 103.794 31.6337 103.683 31.9198C103.571 32.2058 103.405 32.4672 103.193 32.6889C102.981 32.9105 102.727 33.0882 102.446 33.2116C102.165 33.3351 101.862 33.4019 101.556 33.4083H83.213C82.906 33.4015 82.6034 33.3342 82.3224 33.2104C82.0415 33.0865 81.7877 32.9086 81.5755 32.6866C81.3634 32.4647 81.197 32.2031 81.086 31.9168C80.975 31.6305 80.9215 31.3252 80.9285 31.0183V29.3005C80.9408 28.6811 80.7074 28.082 80.2793 27.6342C79.8513 27.1863 79.2633 26.9261 78.644 26.9104H75.3282H67.0949C66.1227 26.9081 65.1596 27.0976 64.2607 27.468C63.3618 27.8385 62.5448 28.3826 61.8566 29.0693C61.1683 29.7559 60.6222 30.5716 60.2496 31.4696C59.8771 32.3675 59.6853 33.3302 59.6853 34.3024L59.6606 153.071C59.6606 155.031 60.4394 156.911 61.8257 158.298C63.212 159.684 65.0922 160.463 67.0526 160.463L115.495 160.491C116.466 160.491 117.427 160.3 118.324 159.928C119.221 159.557 120.035 159.012 120.722 158.326C121.408 157.639 121.953 156.825 122.324 155.928C122.696 155.031 122.887 154.07 122.887 153.099L122.912 34.3271C122.912 32.3696 122.135 30.4921 120.753 29.1063C119.37 27.7206 117.495 26.9397 115.537 26.9351Z" fill="white"/>
<path d="M116.245 36.5833C116.245 36.615 115.02 36.6502 113.513 36.6608C112.007 36.6714 110.778 36.6608 110.778 36.6291C110.778 36.5974 112 36.5587 113.51 36.5481C115.02 36.5376 116.245 36.5517 116.245 36.5833Z" fill="#263238"/>
<path d="M116.255 37.9808C116.255 38.0125 115.034 38.0477 113.524 38.0618C112.014 38.0759 110.789 38.0618 110.789 38.0266C110.789 37.9914 112.014 37.9597 113.524 37.9456C115.034 37.9316 116.255 37.9492 116.255 37.9808Z" fill="#263238"/>
<path d="M116.269 39.3782C116.269 39.4099 115.044 39.4486 113.534 39.4592C112.024 39.4698 110.803 39.4592 110.799 39.424C110.796 39.3888 112.024 39.3571 113.534 39.343C115.044 39.329 116.269 39.3466 116.269 39.3782Z" fill="#263238"/>
<path d="M64.7682 40.744H64.9125H65.3103L66.7816 40.7088L66.7394 40.7475C66.7394 40.4237 66.7394 40.0682 66.7218 39.6915C66.7218 39.4944 66.7218 39.3078 66.7218 39.079C66.745 38.9608 66.8053 38.853 66.8939 38.7714C66.9825 38.6897 67.0948 38.6384 67.2146 38.625C67.4539 38.625 67.6616 38.625 67.9186 38.625C68.0532 38.6467 68.1757 38.7157 68.264 38.8195C68.3524 38.9234 68.4009 39.0553 68.4008 39.1917C68.4008 39.6915 68.4008 40.209 68.4184 40.7475L68.3515 40.6807H70.2066L70.1362 40.751C70.1362 40.0048 70.1362 39.2304 70.115 38.4384C70.115 38.2413 70.115 38.0477 70.115 37.8506C70.1071 37.763 70.0795 37.6783 70.0344 37.6027C69.9893 37.5272 69.9279 37.4627 69.8546 37.4141L69.045 36.6115L68.26 35.8406L67.8834 35.4675C67.7531 35.3408 67.651 35.2106 67.4997 35.1789C67.4272 35.1598 67.3513 35.1571 67.2776 35.1712C67.2039 35.1852 67.1343 35.2155 67.0738 35.2598C66.9611 35.3549 66.8415 35.4886 66.7218 35.6118L66.053 36.2842C65.6341 36.7171 65.1976 37.1149 64.8808 37.4915C64.7868 37.7135 64.7551 37.9569 64.7893 38.1955C64.7893 38.4243 64.7893 38.6426 64.7893 38.8467C64.7893 39.248 64.7893 39.6 64.7893 39.9027C64.7893 40.2055 64.7893 40.392 64.7893 40.575C64.7943 40.6559 64.7943 40.737 64.7893 40.8179C64.7852 40.7441 64.7852 40.67 64.7893 40.5962C64.7893 40.4167 64.7893 40.1949 64.7893 39.9309C64.7893 39.6669 64.7893 39.2726 64.7647 38.8749C64.7647 38.6637 64.7647 38.4419 64.7647 38.2061C64.7647 38.0864 64.7647 37.9667 64.7647 37.8541C64.7638 37.7183 64.799 37.5846 64.8667 37.4669C65.2187 37.048 65.62 36.6749 66.0424 36.2278L66.7042 35.5485C66.8239 35.4323 66.9189 35.3162 67.0562 35.1965C67.1319 35.1388 67.2197 35.099 67.3129 35.0801C67.4062 35.0612 67.5026 35.0637 67.5947 35.0874C67.77 35.1517 67.9245 35.2624 68.0418 35.4077L68.4219 35.7808L69.2069 36.5517L70.02 37.3472C70.0962 37.4156 70.1657 37.491 70.2277 37.5725C70.2886 37.6659 70.3227 37.7743 70.3262 37.8858C70.3262 38.0829 70.3262 38.28 70.3262 38.4771C70.3262 39.2691 70.3262 40.0435 70.3438 40.7898V40.8602H70.2734H68.4184H68.2882V40.7933C68.2882 40.2547 68.2882 39.7373 68.2882 39.2374C68.2905 39.13 68.2541 39.0254 68.1855 38.9427C68.117 38.8599 68.021 38.8046 67.9151 38.7869C67.7003 38.7869 67.4469 38.7869 67.2392 38.7869C67.1444 38.7964 67.0549 38.8355 66.9835 38.8987C66.9121 38.9618 66.8624 39.0459 66.8415 39.1389C66.8415 39.3254 66.8415 39.5402 66.8415 39.7302C66.8415 40.1139 66.8415 40.473 66.8415 40.7863V40.8285H66.7992H65.3032H64.9125C64.8616 40.8054 64.8132 40.7771 64.7682 40.744Z" fill="#263238"/>
<path d="M96.8001 133.552C96.6313 133.579 96.4605 133.591 96.2897 133.588L94.9028 133.616C93.7341 133.633 92.1149 133.644 90.3268 133.644C88.5386 133.644 86.9194 133.644 85.7508 133.616L84.3639 133.588C84.1931 133.59 84.0223 133.579 83.8535 133.552C84.0221 133.524 84.193 133.512 84.3639 133.517L85.7508 133.485C86.9194 133.485 88.5386 133.461 90.3268 133.461C92.1149 133.461 93.7306 133.461 94.9028 133.485L96.2897 133.517C96.4605 133.512 96.6315 133.524 96.8001 133.552Z" fill="#455A64"/>
<path d="M117.135 136.734C117.135 136.787 109.683 136.826 100.493 136.826C91.3019 136.826 83.8501 136.787 83.8501 136.734C83.8501 136.682 91.3019 136.643 100.493 136.643C109.683 136.643 117.135 136.685 117.135 136.734Z" fill="#455A64"/>
<path d="M106.734 139.744C106.734 139.797 101.612 139.836 95.2936 139.836C88.9752 139.836 83.8501 139.797 83.8501 139.744C83.8501 139.691 88.9717 139.653 95.2936 139.653C101.616 139.653 106.734 139.681 106.734 139.744Z" fill="#455A64"/>
<path d="M117.793 145.563L116.759 144.524L115.773 145.506V142.535H117.79L117.793 145.563ZM116.759 144.394L116.79 144.426L117.702 145.341V142.63H115.868V145.288L116.759 144.394Z" fill="#263238"/>
<path d="M90.2565 145.175L89.9045 145.013C89.6943 145.112 89.4548 145.129 89.2328 145.061C89.0108 144.993 88.8223 144.844 88.7042 144.644C88.5861 144.444 88.5468 144.207 88.5941 143.98C88.6414 143.752 88.7718 143.551 88.9598 143.414C89.1479 143.278 89.38 143.217 89.6109 143.242C89.8417 143.268 90.0546 143.379 90.208 143.554C90.3613 143.728 90.444 143.953 90.44 144.186C90.4359 144.418 90.3454 144.64 90.1861 144.809L90.2565 145.175ZM89.4081 143.197C89.1675 143.214 88.9423 143.322 88.7786 143.499C88.6148 143.676 88.5249 143.909 88.5271 144.151C88.5294 144.392 88.6236 144.623 88.7906 144.797C88.9576 144.971 89.1848 145.075 89.4257 145.087C89.5865 145.076 89.7422 145.027 89.8798 144.943L90.1509 145.063L90.0875 144.799C90.2116 144.663 90.2935 144.494 90.323 144.313C90.3525 144.132 90.3283 143.946 90.2536 143.778C90.1788 143.61 90.0566 143.468 89.9021 143.368C89.7475 143.269 89.5673 143.217 89.3835 143.218L89.4081 143.197Z" fill="#263238"/>
<path d="M92.6007 145.024L92.1854 144.003L91.4004 143.299H93.3012L92.6007 145.024ZM91.5764 143.359L92.2452 143.972L92.5972 144.841L93.1956 143.345L91.5764 143.359Z" fill="#263238"/>
<path d="M93.2615 143.276L92.2229 143.952L92.2613 144.011L93.2999 143.335L93.2615 143.276Z" fill="#263238"/>
<path d="M87.2608 143.496C87.2328 143.361 87.1577 143.239 87.0487 143.153C86.9398 143.067 86.804 143.023 86.6655 143.028C86.5269 143.032 86.3944 143.086 86.2914 143.179C86.1884 143.271 86.1216 143.398 86.1027 143.535C86.0838 143.396 86.0157 143.268 85.9108 143.175C85.806 143.082 85.6712 143.029 85.531 143.027C85.3907 143.024 85.2541 143.072 85.146 143.161C85.0378 143.251 84.9651 143.376 84.9411 143.514C84.914 143.717 84.9657 143.922 85.0854 144.088C85.2044 144.251 85.344 144.397 85.5008 144.524C85.7155 144.711 85.9091 144.876 86.1203 145.073C86.3315 144.883 86.5075 144.704 86.7187 144.514C86.8735 144.384 87.0108 144.235 87.1271 144.07C87.2448 143.904 87.2928 143.698 87.2608 143.496Z" fill="#0075FF"/>
<path d="M119.912 148.192C119.912 148.192 119.912 148.076 119.912 147.861C119.912 147.646 119.912 147.319 119.912 146.897C119.912 146.048 119.912 144.785 119.895 143.18C119.895 139.945 119.877 135.238 119.863 129.335L119.923 129.395L63.6346 129.427L63.7261 129.335C63.7261 135.89 63.7261 142.243 63.7261 148.192L63.6381 148.104L103.917 148.143L115.674 148.167H118.842H119.659H119.94H119.669H118.863H115.727L103.988 148.192L63.6487 148.234H63.5571V148.192C63.5571 142.243 63.5571 135.89 63.5571 129.335V129.244H63.6557L119.944 129.276H120.004V129.335C120.004 135.252 119.979 139.973 119.972 143.218C119.972 144.83 119.972 146.073 119.972 146.921C119.972 147.337 119.972 147.653 119.972 147.872C119.972 148.09 119.912 148.192 119.912 148.192Z" fill="#263238"/>
<path d="M65.9656 132.488L65.8938 144.956L81.4872 145.046L81.559 132.578L65.9656 132.488Z" fill="#EBEBEB"/>
<path d="M81.5551 132.57H81.2559H80.404H77.2043L65.9403 132.546L66.0248 132.465C66.0072 136.178 65.9861 140.43 65.965 144.929C65.9826 144.954 65.7925 144.756 65.8734 144.837H66.947H68.003H70.1151L74.1631 144.862L81.4635 144.915L81.3896 144.992C81.4248 141.247 81.4565 138.142 81.4811 135.96C81.4811 134.876 81.5058 134.024 81.5128 133.429C81.5128 133.144 81.5128 132.922 81.5128 132.76C81.5128 132.598 81.5128 132.524 81.5128 132.524C81.5128 132.524 81.5128 132.595 81.5128 132.743C81.5128 132.891 81.5128 133.119 81.5128 133.401C81.5128 133.989 81.5128 134.837 81.5128 135.914C81.5128 138.107 81.5128 141.229 81.5128 144.992V145.066H81.4354L74.1349 145.038L70.0869 145.017H67.9749H66.9189H65.8453L65.7502 144.922C65.7819 140.42 65.8066 136.168 65.8312 132.458V132.373H65.9157L77.2149 132.475L80.3829 132.517H81.2171H81.4283L81.5551 132.57Z" fill="#263238"/>
<path d="M66.4995 133.276L66.4368 144.174L80.9354 144.258L80.9982 133.36L66.4995 133.276Z" fill="#E0E0E0"/>
<path d="M66.4294 144.165L71.5335 137.421L74.6451 141.677L76.7853 139.424L80.9283 144.25L66.4294 144.165Z" fill="#F5F5F5"/>
<path d="M76.0075 136.618C76.0068 136.845 75.9389 137.066 75.8125 137.254C75.686 137.441 75.5067 137.587 75.2972 137.673C75.0877 137.759 74.8574 137.781 74.6355 137.736C74.4137 137.691 74.2102 137.581 74.0508 137.42C73.8915 137.259 73.7834 137.055 73.7404 136.832C73.6973 136.61 73.7212 136.38 73.8089 136.171C73.8967 135.963 74.0444 135.785 74.2334 135.66C74.4224 135.535 74.6441 135.469 74.8705 135.471C75.0206 135.471 75.1691 135.501 75.3075 135.559C75.4459 135.617 75.5716 135.702 75.6772 135.809C75.7828 135.915 75.8663 136.042 75.923 136.18C75.9797 136.319 76.0084 136.468 76.0075 136.618Z" fill="#F5F5F5"/>
<path d="M92.2558 51.6982C92.1999 51.7077 92.1428 51.7077 92.0868 51.6982L91.6116 51.7158L89.8516 51.7475C88.3697 51.7475 86.3316 51.7722 84.0577 51.7722C81.7838 51.7722 79.7457 51.7722 78.2638 51.7475L76.5038 51.7158L76.0251 51.6982C75.9703 51.708 75.9143 51.708 75.8596 51.6982C75.9137 51.6849 75.9694 51.679 76.0251 51.6807H76.5038L78.2638 51.6525C79.7457 51.6349 81.7838 51.6243 84.0577 51.6243C86.3316 51.6243 88.3697 51.6243 89.8516 51.6525L91.6116 51.6807H92.0868C92.1437 51.6792 92.2005 51.6851 92.2558 51.6982Z" fill="#263238"/>
<path d="M115.291 120.613L113.756 119.071L112.288 120.532V116.118H115.287L115.291 120.613ZM113.756 118.881L113.802 118.927L115.157 120.285V116.259H112.425V120.208L113.756 118.881Z" fill="#263238"/>
<path d="M76.2679 120.148L75.5639 119.828C75.154 120.018 74.6877 120.049 74.2561 119.914C73.8246 119.78 73.4589 119.489 73.2305 119.098C73.0021 118.708 72.9274 118.247 73.0211 117.805C73.1148 117.362 73.37 116.971 73.737 116.707C74.1039 116.443 74.5562 116.325 75.0054 116.376C75.4545 116.428 75.8683 116.645 76.1658 116.986C76.4633 117.326 76.6231 117.765 76.614 118.217C76.6049 118.669 76.4275 119.102 76.1166 119.43L76.2679 120.148ZM74.5889 116.259C74.3448 116.261 74.1035 116.311 73.8789 116.406C73.6542 116.501 73.4504 116.64 73.2793 116.814C73.1082 116.988 72.9731 117.194 72.8816 117.421C72.7901 117.647 72.7441 117.889 72.7462 118.133C72.7482 118.377 72.7984 118.618 72.8937 118.843C72.989 119.068 73.1277 119.271 73.3017 119.443C73.4758 119.614 73.6818 119.749 73.9081 119.84C74.1344 119.932 74.3765 119.978 74.6206 119.976C74.9372 119.957 75.2442 119.86 75.5146 119.694L75.5463 119.676L76.0743 119.912L75.9546 119.391L75.9793 119.367C76.2238 119.1 76.3849 118.767 76.4428 118.41C76.5007 118.053 76.4528 117.686 76.305 117.356C76.1572 117.026 75.9159 116.746 75.611 116.551C75.3061 116.356 74.9508 116.254 74.5889 116.259Z" fill="#263238"/>
<path d="M80.8862 119.842L80.0625 117.832L78.5208 116.424L82.266 116.396L80.8862 119.842ZM78.8692 116.558L80.1857 117.765L80.8897 119.476L82.0654 116.533L78.8692 116.558Z" fill="#263238"/>
<path d="M82.1916 116.39L80.1499 117.718L80.2248 117.833L82.2665 116.505L82.1916 116.39Z" fill="#263238"/>
<path d="M70.3756 116.864C70.3224 116.595 70.1752 116.353 69.9602 116.182C69.7452 116.011 69.4765 115.922 69.2019 115.931C68.9274 115.94 68.665 116.046 68.4615 116.23C68.258 116.415 68.1267 116.666 68.0911 116.938C68.0507 116.667 67.9154 116.419 67.7092 116.238C67.5031 116.057 67.2394 115.955 66.9653 115.951C66.6911 115.946 66.4241 116.039 66.212 116.212C65.9998 116.386 65.8562 116.629 65.8066 116.899C65.7537 117.297 65.8558 117.701 66.0917 118.026C66.3279 118.346 66.6035 118.636 66.9119 118.888C67.3308 119.24 67.7144 119.592 68.1333 119.969C68.5416 119.596 68.8936 119.244 69.3055 118.867C69.6097 118.611 69.8805 118.318 70.1116 117.994C70.3406 117.665 70.4351 117.261 70.3756 116.864Z" fill="#0075FF"/>
<path d="M70.0341 54.2397C71.4377 54.2397 72.5755 53.1019 72.5755 51.6982C72.5755 50.2946 71.4377 49.1568 70.0341 49.1568C68.6305 49.1568 67.4927 50.2946 67.4927 51.6982C67.4927 53.1019 68.6305 54.2397 70.0341 54.2397Z" fill="#EBEBEB"/>
<path d="M114.333 106.04C114.333 106.093 103.682 106.135 90.5451 106.135C77.4085 106.135 66.7534 106.093 66.7534 106.04C66.7534 105.987 77.4049 105.948 90.5451 105.948C103.685 105.948 114.333 105.991 114.333 106.04Z" fill="#455A64"/>
<path d="M114.333 102.08C114.333 102.129 103.682 102.172 90.5451 102.172C77.4085 102.172 66.7534 102.129 66.7534 102.08C66.7534 102.031 77.4049 101.988 90.5451 101.988C103.685 101.988 114.333 102.031 114.333 102.08Z" fill="#455A64"/>
<path d="M92.6501 110.056C92.6501 110.106 86.8526 110.148 79.7035 110.148C72.5544 110.148 66.7534 110.106 66.7534 110.056C66.7534 110.007 72.5509 109.965 79.7035 109.965C86.8562 109.965 92.6501 110.007 92.6501 110.056Z" fill="#455A64"/>
<path d="M89.4573 153.222C89.4538 153.422 89.3912 153.617 89.2774 153.781C89.1636 153.946 89.0037 154.073 88.8178 154.147C88.6318 154.221 88.4282 154.238 88.2326 154.196C88.0369 154.154 87.858 154.056 87.7182 153.913C87.5785 153.769 87.4843 153.588 87.4473 153.392C87.4104 153.195 87.4325 152.992 87.5108 152.808C87.5891 152.624 87.7201 152.467 87.8873 152.357C88.0546 152.247 88.2505 152.189 88.4506 152.191C88.5844 152.192 88.7167 152.22 88.8399 152.273C88.963 152.325 89.0745 152.402 89.168 152.497C89.2616 152.593 89.3353 152.707 89.3849 152.831C89.4345 152.955 89.4591 153.088 89.4573 153.222Z" fill="#263238"/>
<path d="M92.5762 153.236C92.572 153.435 92.5092 153.629 92.3955 153.792C92.2818 153.955 92.1224 154.082 91.9373 154.155C91.7522 154.228 91.5496 154.245 91.3549 154.203C91.1603 154.161 90.9823 154.063 90.8432 153.921C90.7042 153.778 90.6103 153.598 90.5734 153.402C90.5365 153.207 90.5582 153.005 90.6358 152.821C90.7134 152.638 90.8434 152.482 91.0095 152.372C91.1756 152.262 91.3704 152.204 91.5695 152.205C91.7035 152.206 91.836 152.233 91.9593 152.286C92.0827 152.338 92.1944 152.414 92.288 152.51C92.3816 152.606 92.4553 152.72 92.5048 152.844C92.5542 152.969 92.5785 153.102 92.5762 153.236Z" fill="#263238"/>
<path d="M95.7195 153.25C95.7153 153.449 95.6525 153.643 95.5388 153.806C95.4251 153.969 95.2657 154.096 95.0806 154.169C94.8955 154.242 94.6929 154.259 94.4982 154.217C94.3036 154.175 94.1256 154.077 93.9865 153.935C93.8475 153.792 93.7536 153.612 93.7167 153.416C93.6798 153.221 93.7015 153.019 93.7791 152.835C93.8567 152.652 93.9867 152.496 94.1528 152.386C94.3189 152.276 94.5137 152.218 94.7128 152.219C94.8467 152.22 94.979 152.248 95.1021 152.301C95.2252 152.353 95.3367 152.43 95.4303 152.526C95.5238 152.621 95.5975 152.735 95.6471 152.859C95.6967 152.983 95.7213 153.116 95.7195 153.25Z" fill="#263238"/>
<path d="M120.25 56.7248H63.9551V91.1504H120.25V56.7248Z" fill="#E0E0E0"/>
<path d="M69.1541 91.1609L85.2827 69.5693L95.2865 83.072L102.063 75.849L115.358 91.1469L69.1541 91.1609Z" fill="#F5F5F5"/>
<path d="M99.5245 66.9188C99.5252 67.6388 99.3123 68.3428 98.9128 68.9418C98.5133 69.5408 97.9451 70.0079 97.2801 70.2839C96.6151 70.5599 95.8832 70.6325 95.1769 70.4925C94.4706 70.3524 93.8218 70.006 93.3124 69.4972C92.803 68.9883 92.456 68.3398 92.3153 67.6336C92.1746 66.9275 92.2465 66.1955 92.5218 65.5302C92.7972 64.865 93.2637 64.2963 93.8623 63.8962C94.461 63.4961 95.1648 63.2826 95.8848 63.2826C96.8495 63.2826 97.7747 63.6656 98.4572 64.3474C99.1397 65.0292 99.5236 65.9541 99.5245 66.9188Z" fill="#F5F5F5"/>
<path d="M120.099 123.147C120.099 122.412 120.064 91.3123 120.014 45.2707L120.099 45.3552H63.8106L63.9021 45.2637C63.9021 74.3882 63.9021 101.341 63.9021 123.14L63.8247 123.066L120.12 123.14L63.8247 123.218H63.7508V123.14C63.7508 101.341 63.7508 74.3882 63.7332 45.2637V45.1722H63.8317H120.12H120.204V45.2531C120.187 68.2986 120.173 87.7747 120.162 101.496C120.162 108.346 120.145 113.756 120.141 117.459C120.141 119.303 120.141 120.722 120.141 121.683C120.141 122.158 120.141 122.521 120.141 122.767C120.141 123.013 120.099 123.147 120.099 123.147Z" fill="#263238"/>
<path d="M93.6318 132.81L94.8779 128.624C95.0962 127.716 95.3848 126.646 95.772 125.425C96.124 124.326 97.0181 123.172 97.8347 122.341C99.1054 121.049 99.7109 121.042 100.563 120.356C100.64 120.307 100.728 120.233 100.802 120.194C100.963 120.106 101.105 119.986 101.217 119.842C101.953 119.046 101.246 117.811 99.7496 117.931C98.6267 118.019 96.7893 118.339 93.8043 121.419C93.7656 121.468 93.7269 121.507 93.6917 121.553C92.1253 123.591 90.6539 117.776 90.3864 115.611C90.3345 115.275 90.2078 114.956 90.0157 114.676C89.8235 114.396 89.5709 114.163 89.2765 113.994C88.982 113.825 88.6534 113.724 88.3148 113.7C87.9762 113.675 87.6364 113.727 87.3205 113.851L80.0482 117.251C79.3545 117.05 78.6149 117.075 77.9362 117.322C77.4273 117.5 77.0032 117.862 76.7468 118.337C76.4903 118.811 76.4199 119.364 76.5493 119.888L79.5026 131.648L70.8398 160.477H89.5134L93.6318 132.81Z" fill="#FFBE9D"/>
<path d="M107.994 106.332L102.221 117.645L99.3343 116.843L84.8319 128.645C84.24 129.13 83.4825 129.364 82.7206 129.298C81.9586 129.232 81.2524 128.872 80.7522 128.293L75.2258 121.876C75.2258 121.876 86.3666 117.079 88.4258 113.108C90.485 109.138 88.1055 108.233 88.1055 108.233L93.3468 102.277L107.994 106.332Z" fill="#0075FF"/>
<path d="M100.506 83.2269C100.506 83.2269 92.0585 81.3578 80.1644 69.9248C68.2703 58.4918 62.6876 43.296 61.2479 43.3805C59.8082 43.465 53.437 40.5047 41.3493 66.7955C29.2617 93.0864 34.0242 99.1795 36.4213 99.1443C38.8185 99.1091 55.1548 94.5437 65.3557 95.7018C75.5567 96.8598 88.6687 102.179 88.6687 102.179L100.506 83.2269Z" fill="#0075FF"/>
<path d="M118.455 97.5568L115.572 103.037L114.28 105.501C113.428 107.123 111.985 108.356 110.25 108.946C108.515 109.535 106.62 109.436 104.956 108.669L86.8455 102.358L97.4055 78.2813L115.498 87.9226C117.163 88.8132 118.408 90.3258 118.962 92.1305C119.515 93.9353 119.333 95.8858 118.455 97.5568Z" fill="#0075FF"/>
<g opacity="0.4">
<path opacity="0.4" d="M118.455 97.5568L115.572 103.037L114.28 105.501C113.428 107.123 111.985 108.356 110.25 108.946C108.515 109.535 106.62 109.436 104.956 108.669L86.8455 102.358L97.4055 78.2813L115.498 87.9226C117.163 88.8132 118.408 90.3258 118.962 92.1305C119.515 93.9353 119.333 95.8858 118.455 97.5568Z" fill="black"/>
</g>
<path d="M42.3138 67.2743C35.8828 81.5162 33.2041 94.2093 36.3298 95.6208C39.4556 97.0323 47.2102 86.6343 53.6412 72.3888C60.0723 58.1434 62.751 45.4573 59.6252 44.0423C56.4994 42.6272 48.7449 53.0323 42.3138 67.2743Z" fill="#0075FF"/>
<g opacity="0.5">
<path opacity="0.5" d="M42.3138 67.2743C35.8828 81.5162 33.2041 94.2093 36.3298 95.6208C39.4556 97.0323 47.2102 86.6343 53.6412 72.3888C60.0723 58.1434 62.751 45.4573 59.6252 44.0423C56.4994 42.6272 48.7449 53.0323 42.3138 67.2743Z" fill="black"/>
</g>
<path d="M120.011 105.477L115.1 103.935L118.138 98.1622L121.82 100.45L120.011 105.477Z" fill="#0075FF"/>
<g opacity="0.6">
<path opacity="0.6" d="M118.138 98.1622L115.1 103.935L116.111 104.252L118.578 98.4333L118.138 98.1622Z" fill="black"/>
</g>
<path d="M114.752 99.4928C114.682 99.6512 112.232 98.7008 109.282 97.3808C106.332 96.0608 104.002 94.8359 104.069 94.6775C104.136 94.5191 106.589 95.473 109.542 96.8071C112.496 98.1411 114.826 99.3344 114.752 99.4928Z" fill="#0075FF"/>
<path d="M116.265 96.0538C116.188 96.2087 113.97 95.2759 111.313 93.9664C108.655 92.657 106.564 91.4707 106.642 91.3123C106.719 91.1539 108.933 92.0903 111.591 93.3997C114.248 94.7091 116.343 95.8954 116.265 96.0538Z" fill="#0075FF"/>
<path d="M112.851 103.101C112.826 103.185 112.242 103.052 111.313 102.749C110.848 102.604 110.296 102.421 109.687 102.214C109.078 102.006 108.455 101.675 107.782 101.369C105.096 100.123 103.044 98.905 103.111 98.7571C103.178 98.6093 105.385 99.5632 108.039 100.799C108.708 101.101 109.328 101.432 109.912 101.675C110.496 101.918 111.021 102.133 111.461 102.33C112.341 102.735 112.876 103.016 112.851 103.101Z" fill="#0075FF"/>
<path d="M55.4257 64.1098C55.4257 64.1098 48.083 59.5549 44.0667 69.4778C40.0503 79.4007 47.7732 81.0304 47.7732 81.0304C51.1082 75.7788 53.6845 70.0823 55.4257 64.1098Z" fill="#0075FF"/>
<g opacity="0.5">
<path opacity="0.5" d="M63.2368 52.2826C63.2826 52.2826 63.177 52.9655 62.9517 54.1799C62.7264 55.3943 62.3885 57.1508 61.9168 59.312L60.896 62.7863C60.7106 63.4081 60.5194 64.0523 60.3223 64.7188L60.0231 65.729C59.9139 66.081 59.7696 66.4013 59.6429 66.7427L57.985 71.0231C57.8407 71.3962 57.6928 71.7693 57.5485 72.146C57.4042 72.5226 57.1965 72.8816 57.0311 73.2547L55.9399 75.5075L54.8451 77.7568C54.6586 78.1088 54.4931 78.5031 54.2925 78.848C54.0919 79.193 53.8807 79.552 53.68 79.8864L51.3392 83.8394C51.1491 84.1491 50.9872 84.4695 50.776 84.7651L50.1671 85.6275L48.9984 87.2749L46.8864 90.2211C45.4784 91.9213 44.3027 93.2624 43.4931 94.1952C43.0955 94.7003 42.6563 95.1713 42.1802 95.6032C42.5111 95.0538 42.8879 94.5333 43.3066 94.0474C44.088 93.0512 45.1898 91.6573 46.5415 89.9431L48.5655 86.9757L49.6989 85.3248C49.896 85.0432 50.0931 84.7546 50.2938 84.4624C50.4944 84.1703 50.6458 83.8499 50.8394 83.5367L53.152 79.5872L53.7539 78.5523C53.9616 78.2003 54.1059 77.8483 54.2995 77.4682L55.3837 75.233C55.7357 74.4762 56.1123 73.7335 56.4714 72.9978C56.6403 72.6458 56.8445 72.2727 56.9853 71.8995L57.4253 70.7872L59.1079 66.5632C59.2381 66.2112 59.3859 65.8979 59.4986 65.56C59.6112 65.2221 59.7063 64.8912 59.8083 64.5604L60.4067 62.649L61.4874 59.217L62.7088 54.1482C62.8314 53.5124 63.008 52.8883 63.2368 52.2826Z" fill="black"/>
</g>
<g opacity="0.4">
<path opacity="0.4" d="M76.9788 121.088C77.6511 122.306 78.334 123.552 79.3231 124.513C80.3122 125.474 81.6639 126.157 83.0719 126.016C84.4799 125.875 85.7647 124.728 85.7788 123.341C86.4405 123.837 87.4578 123.57 88.0069 122.947C88.5561 122.324 88.7356 121.461 88.7989 120.634C89.7001 121.165 90.9532 120.747 91.5551 119.891C91.8315 119.446 92.0063 118.945 92.0671 118.424C92.128 117.903 92.0733 117.375 91.9071 116.878C91.5641 115.888 91.0766 114.955 90.4604 114.108C91.1644 114.164 91.8895 114.213 92.509 113.9C93.1285 113.587 93.565 112.763 93.1884 112.172C92.941 111.842 92.5819 111.613 92.1781 111.528C91.0905 111.176 90.3301 110.915 89.1967 111.045C88.9362 111.045 89.6508 114.03 82.5509 118.107C78.3375 120.518 76.9788 121.088 76.9788 121.088Z" fill="black"/>
</g>
<path d="M92.9666 125.382C92.9666 125.414 92.4914 125.323 91.724 125.344C90.7268 125.367 89.746 125.603 88.8467 126.034C87.9473 126.466 87.1499 127.084 86.5073 127.846C86.011 128.431 85.8033 128.857 85.7576 128.839C85.7868 128.729 85.8331 128.625 85.8948 128.529C86.0456 128.261 86.2162 128.005 86.4052 127.762C87.038 126.959 87.8465 126.312 88.7685 125.87C89.6906 125.428 90.7016 125.203 91.724 125.213C92.0309 125.215 92.3371 125.244 92.6392 125.298C92.7524 125.307 92.8633 125.335 92.9666 125.382Z" fill="#EB996E"/>
<path d="M77.4399 119.184C78.5839 120.282 79.3654 121.496 80.5657 122.602C81.1113 123.105 81.9737 124.055 82.6777 124.182C83.3817 124.309 83.8745 124.214 84.1631 123.531C84.399 122.978 83.9766 122.221 83.6879 121.771C82.9241 120.571 82.1919 119.634 81.6217 118.701C81.3507 118.265 81.6991 118.173 81.8259 118.378C82.375 118.948 83.1987 119.434 83.6915 120.064C84.3673 120.912 84.487 122.042 86.254 121.683C86.4903 121.645 86.7145 121.552 86.9087 121.412C87.574 120.901 87.6127 120.004 87.3241 119.3C87.0749 118.756 86.7423 118.255 86.3385 117.814C87.0918 118.663 87.9119 119.574 89.1087 119.652C89.4468 119.693 89.7893 119.628 90.0888 119.466C90.3883 119.304 90.6301 119.053 90.7807 118.747C91.1327 117.945 90.6294 117.167 90.119 116.54C89.2155 115.426 88.2103 114.398 87.1164 113.471C86.7079 113.127 86.1927 112.937 85.6591 112.932C85.0396 112.932 84.2511 113.045 83.8991 113.58C83.6981 113.838 83.5516 114.134 83.4687 114.451C83.3858 114.767 83.3682 115.097 83.4169 115.421C83.4169 115.421 81.8681 114.636 80.622 115.456C79.855 115.995 79.3038 116.788 79.0662 117.695L77.4399 119.184Z" fill="#FFBE9D"/>
<path d="M85.6944 112.594C85.4467 112.307 85.293 111.95 85.254 111.572C85.215 111.195 85.2925 110.814 85.4761 110.482C85.7401 109.965 86.071 109.461 86.4089 109.349C87.8838 108.852 94.3325 109.968 94.2726 111.397C94.2128 112.827 93.7411 113.509 90.2457 113.006C89.6297 112.918 88.6653 112.798 88.6653 112.798L87.8205 114.066L85.6944 112.594Z" fill="#FFBE9D"/>
<path d="M86.8488 118.585C86.0025 117.19 84.7685 116.071 83.2971 115.365C83.5371 115.403 83.7684 115.484 83.98 115.604C85.0395 116.116 85.9292 116.923 86.5426 117.927C86.6846 118.126 86.7884 118.349 86.8488 118.585Z" fill="#EB996E"/>
<path d="M87.9329 114.189C87.9013 114.217 87.4753 113.872 86.8945 113.517C86.6516 113.363 86.4001 113.223 86.1413 113.098C85.9406 113.006 85.8069 112.981 85.8104 112.953C85.8139 112.925 85.9617 112.911 86.1835 112.978C86.469 113.07 86.7413 113.199 86.9931 113.362C87.588 113.724 87.9787 114.15 87.9329 114.189Z" fill="#EB996E"/>
<path d="M89.0171 112.858C88.5976 112.907 88.1724 112.859 87.7745 112.717C87.4835 112.628 87.2131 112.482 86.979 112.288C86.803 112.137 86.7291 112.013 86.7467 111.996C87.0853 112.215 87.4478 112.394 87.8273 112.531C88.2307 112.613 88.6282 112.723 89.0171 112.858Z" fill="#EB996E"/>
<path d="M82.7515 120.356C82.5292 120.123 82.3322 119.867 82.1636 119.592C81.7618 118.942 81.2537 118.364 80.6606 117.881C80.0459 117.432 79.2841 117.23 78.5275 117.318C78.2171 117.374 77.9154 117.469 77.6299 117.603C77.6299 117.603 77.6932 117.529 77.8376 117.441C78.0431 117.317 78.2698 117.231 78.5064 117.188C78.9004 117.124 79.3032 117.14 79.6912 117.233C80.0792 117.327 80.4446 117.497 80.7662 117.733C81.3787 118.226 81.8903 118.832 82.2728 119.518C82.4556 119.783 82.6157 120.064 82.7515 120.356Z" fill="#EB996E"/>
<path d="M87.6832 134.612C86.815 134.797 85.9353 134.922 85.0502 134.988C84.17 135.116 83.282 135.182 82.3926 135.186C83.262 135.001 84.1428 134.875 85.0291 134.809C85.9083 134.684 86.795 134.618 87.6832 134.612Z" fill="#EB996E"/>
<path d="M143.134 17.5437L143.532 18.2723L144.257 18.6701L143.532 19.0679L143.134 19.793L142.736 19.0679L142.011 18.6701L142.736 18.2723L143.134 17.5437Z" fill="#0075FF"/>
<path d="M151.445 35.5555L151.842 36.2842L152.567 36.6819L151.842 37.0797L151.445 37.8048L151.047 37.0797L150.318 36.6819L151.047 36.2842L151.445 35.5555Z" fill="#0075FF"/>
<path d="M18.2689 83.6106L18.6666 84.3392L19.3953 84.737L18.6666 85.1312L18.2689 85.8599L17.8711 85.1312L17.146 84.737L17.8711 84.3392L18.2689 83.6106Z" fill="#0075FF"/>
<path d="M132.232 22.0211L133.151 23.7002L134.83 24.6189L133.151 25.5341L132.232 27.2131L131.317 25.5341L129.638 24.6189L131.317 23.7002L132.232 22.0211Z" fill="#0075FF"/>
<path d="M25.7172 72.1953L26.6324 73.8672L28.3079 74.7824L26.6324 75.7011L25.7172 77.3731L24.802 75.7011L23.1265 74.7824L24.802 73.8672L25.7172 72.1953Z" fill="#0075FF"/>
<path d="M153.705 112.133L154.62 113.809L156.292 114.724L154.62 115.639L153.705 117.315L152.789 115.639L151.114 114.724L152.789 113.809L153.705 112.133Z" fill="#0075FF"/>
</svg>
