<svg width="181" height="181" viewBox="0 0 181 181" fill="none" xmlns="http://www.w3.org/2000/svg">
<path d="M51.0419 141.064C51.0419 141.064 46.5893 144.452 50.8573 148.934C50.8933 148.972 50.9365 149.002 50.9844 149.022C51.0323 149.043 51.0839 149.053 51.136 149.054L90.0293 148.825C90.0293 148.825 93.3488 145.1 90.594 140.811L51.0419 141.064Z" fill="#EBEBEB"/>
<path d="M81.45 144.601C81.45 144.644 76.6064 144.681 70.6334 144.681C64.6604 144.681 59.8169 144.644 59.8169 144.601C59.8169 144.557 64.6568 144.525 70.6334 144.525C76.6101 144.525 81.45 144.557 81.45 144.601Z" fill="#E0E0E0"/>
<path d="M75.3973 146.009C75.3973 146.053 73.1239 146.089 70.3293 146.089C67.5346 146.089 65.2432 146.053 65.2432 146.009C65.2432 145.966 67.5201 145.929 70.3293 145.929C73.1384 145.929 75.3973 145.966 75.3973 146.009Z" fill="#E0E0E0"/>
<path d="M85.432 148.702C85.4066 148.702 85.5189 148.257 85.6383 147.537C85.9558 145.658 85.9375 143.737 85.584 141.864C85.4501 141.14 85.3306 140.709 85.356 140.702C85.4067 140.797 85.4444 140.898 85.4682 141.003C85.5333 141.198 85.613 141.484 85.6926 141.842C85.8998 142.779 86.009 143.735 86.0184 144.695C86.029 145.655 85.938 146.614 85.7469 147.555C85.6925 147.84 85.6236 148.123 85.5406 148.402C85.5167 148.506 85.4803 148.607 85.432 148.702Z" fill="#E0E0E0"/>
<path d="M88.328 140.76C88.3959 140.848 88.4541 140.942 88.5017 141.042C88.5651 141.16 88.6219 141.281 88.6719 141.404C88.7334 141.542 88.8094 141.698 88.871 141.879C89.0266 142.298 89.1477 142.729 89.233 143.167C89.3403 143.705 89.4008 144.252 89.414 144.8C89.4158 145.35 89.3686 145.899 89.2728 146.44C89.1873 146.881 89.0662 147.314 88.9108 147.736C88.8529 147.92 88.7805 148.076 88.7225 148.217C88.6742 148.342 88.6173 148.463 88.5524 148.579C88.5091 148.681 88.4531 148.777 88.3859 148.865C88.3569 148.865 88.5741 148.431 88.8058 147.714C88.942 147.293 89.046 146.862 89.1171 146.425C89.2036 145.893 89.2472 145.354 89.2474 144.814C89.2393 144.274 89.1873 143.735 89.0918 143.204C89.0122 142.769 88.9009 142.341 88.7587 141.922C88.5234 141.18 88.299 140.775 88.328 140.76Z" fill="#E0E0E0"/>
<path d="M57.196 148.753C57.1256 148.675 57.0648 148.589 57.015 148.496C56.9482 148.391 56.8877 148.282 56.834 148.17C56.7555 148.025 56.6866 147.875 56.6276 147.721C56.4658 147.326 56.3445 146.914 56.2656 146.494C56.1626 145.979 56.1116 145.455 56.1136 144.93C56.1257 144.404 56.19 143.88 56.3054 143.366C56.407 142.95 56.5451 142.543 56.7181 142.15C56.7837 141.999 56.8574 141.852 56.9389 141.708C56.995 141.598 57.0591 141.491 57.1308 141.39C57.1825 141.297 57.2457 141.21 57.319 141.133C57.3444 141.151 57.0946 141.527 56.8231 142.194C56.6692 142.585 56.5481 142.988 56.4611 143.399C56.3575 143.903 56.2993 144.416 56.2873 144.93C56.2833 145.446 56.3282 145.961 56.4213 146.469C56.5011 146.882 56.6149 147.287 56.7616 147.681C56.9788 148.355 57.2213 148.739 57.196 148.753Z" fill="#E0E0E0"/>
<path d="M52.9931 149.701C52.9155 149.612 52.8487 149.513 52.794 149.408C52.7186 149.292 52.6509 149.171 52.5913 149.046C52.5031 148.883 52.4246 148.715 52.356 148.543C52.1673 148.1 52.0183 147.641 51.9107 147.171C51.783 146.595 51.7091 146.009 51.6899 145.419C51.6845 144.828 51.7317 144.238 51.8311 143.656C51.9189 143.181 52.0473 142.715 52.2148 142.262C52.2799 142.067 52.3632 141.9 52.4284 141.752C52.4833 141.627 52.5462 141.506 52.6166 141.39C52.6671 141.282 52.729 141.18 52.8012 141.086C52.8302 141.086 52.5804 141.542 52.3198 142.309C52.1715 142.76 52.0566 143.221 51.9759 143.689C51.7813 144.838 51.8071 146.013 52.0519 147.153C52.1519 147.616 52.2874 148.071 52.4573 148.514C52.7542 149.256 53.022 149.687 52.9931 149.701Z" fill="#E0E0E0"/>
<path d="M88.6176 160.67V168.113H74.21V160.67H88.6176Z" fill="#EBEBEB"/>
<path d="M42.1077 164.46C42.1077 164.529 42.1077 164.594 42.1077 164.659C42.1788 165.744 42.6618 166.761 43.4579 167.501C44.2541 168.241 45.303 168.649 46.3901 168.641H89.2871V168.113H79.1077C78.1207 168.113 77.1742 167.721 76.4763 167.023C75.7784 166.325 75.3863 165.378 75.3863 164.391C75.3863 163.404 75.7784 162.458 76.4763 161.76C77.1742 161.062 78.1207 160.67 79.1077 160.67H89.2871V159.881L46.3865 160.026C45.8117 160.027 45.243 160.143 44.7141 160.369C44.1853 160.594 43.7071 160.923 43.308 161.337C42.9088 161.75 42.5969 162.24 42.3907 162.777C42.1845 163.313 42.0883 163.886 42.1077 164.46Z" fill="#E0E0E0"/>
<path d="M88.6176 164.493C88.6176 164.536 85.6565 164.572 82.0039 164.572C78.3513 164.572 75.3901 164.536 75.3901 164.493C75.3901 164.449 78.3513 164.413 82.0039 164.413C85.6565 164.413 88.6176 164.449 88.6176 164.493Z" fill="#E0E0E0"/>
<path d="M88.4074 166.158C88.4074 166.201 85.6055 166.238 82.1521 166.238C78.6986 166.238 75.8931 166.201 75.8931 166.158C75.8931 166.115 78.695 166.078 82.1521 166.078C85.6092 166.078 88.4074 166.125 88.4074 166.158Z" fill="#E0E0E0"/>
<path d="M88.6174 167.704C88.6174 167.747 86.0834 167.78 82.9919 167.78C79.9005 167.78 77.3665 167.747 77.3665 167.704C77.3665 167.66 79.8824 167.624 82.9919 167.624C86.1015 167.624 88.6174 167.66 88.6174 167.704Z" fill="#E0E0E0"/>
<path d="M88.6176 162.987C88.6176 163.03 85.7216 163.063 82.1414 163.063C78.5612 163.063 75.6616 163.03 75.6616 162.987C75.6616 162.943 78.5576 162.907 82.1414 162.907C85.7252 162.907 88.6176 162.943 88.6176 162.987Z" fill="#E0E0E0"/>
<path d="M88.4076 161.477C88.4076 161.521 85.8266 161.557 82.6446 161.557C79.4626 161.557 76.8779 161.521 76.8779 161.477C76.8779 161.434 79.459 161.401 82.6446 161.401C85.8302 161.401 88.4076 161.452 88.4076 161.477Z" fill="#E0E0E0"/>
<path d="M47.3023 160.149C46.9729 160.489 46.6681 160.852 46.3901 161.235C45.7406 162.175 45.3991 163.294 45.4127 164.436C45.4264 165.579 45.7944 166.689 46.4661 167.613C46.7575 167.996 47.0769 168.357 47.4218 168.692C47.3087 168.629 47.2041 168.553 47.1104 168.464C46.8435 168.234 46.6009 167.976 46.3864 167.696C45.6705 166.765 45.276 165.626 45.2623 164.451C45.2486 163.276 45.6164 162.129 46.3104 161.181C46.5156 160.896 46.7498 160.634 47.0091 160.399C47.0974 160.305 47.1957 160.221 47.3023 160.149Z" fill="#F5F5F5"/>
<path d="M45.8507 160.004C45.5213 160.343 45.2176 160.706 44.9421 161.09C44.2901 162.029 43.9471 163.148 43.9607 164.291C43.9743 165.435 44.3439 166.545 45.0181 167.468C45.304 167.844 45.6161 168.198 45.9521 168.529C45.8406 168.466 45.7373 168.389 45.6444 168.301C45.3747 168.074 45.1318 167.816 44.9204 167.534C44.2044 166.602 43.81 165.463 43.7963 164.288C43.7826 163.113 44.1503 161.966 44.8444 161.018C45.0475 160.733 45.2805 160.471 45.5394 160.236C45.6329 160.146 45.7376 160.068 45.8507 160.004Z" fill="#F5F5F5"/>
<path d="M74.9954 160.149C74.6648 160.488 74.3599 160.851 74.0832 161.235C73.4338 162.175 73.0923 163.294 73.1059 164.436C73.1195 165.579 73.4876 166.689 74.1592 167.613C74.4455 167.989 74.7589 168.344 75.0968 168.674C74.9831 168.612 74.8783 168.536 74.7855 168.446C74.5185 168.215 74.2759 167.958 74.0615 167.678C73.3455 166.747 72.9511 165.608 72.9374 164.433C72.9237 163.258 73.2914 162.111 73.9855 161.162C74.1886 160.877 74.423 160.614 74.6841 160.38C74.7781 160.291 74.8827 160.213 74.9954 160.149Z" fill="#F5F5F5"/>
<path d="M73.5437 160.004C73.213 160.342 72.9093 160.705 72.6351 161.09C71.9841 162.029 71.6414 163.148 71.6544 164.291C71.6673 165.434 72.0354 166.544 72.7075 167.468C72.9938 167.844 73.3072 168.199 73.6451 168.529C73.5336 168.466 73.4303 168.389 73.3374 168.301C73.0677 168.074 72.8248 167.816 72.6134 167.534C71.8969 166.602 71.5018 165.464 71.4875 164.289C71.4731 163.114 71.8402 161.966 72.5337 161.018C72.739 160.733 72.9731 160.471 73.2324 160.236C73.3251 160.145 73.4298 160.067 73.5437 160.004Z" fill="#F5F5F5"/>
<path d="M52.1821 165.506L52.1423 162.48C52.1549 162.216 52.1193 161.953 52.0373 161.702C51.9951 161.576 51.919 161.464 51.8175 161.378C51.716 161.293 51.5929 161.237 51.4617 161.217C51.0997 161.05 50.4916 161.365 50.2273 161.803C49.9975 162.261 49.895 162.772 49.9305 163.284C49.9238 164.083 49.9625 164.882 50.0463 165.676C50.0651 166.054 50.1612 166.424 50.3287 166.762C50.415 166.932 50.5473 167.074 50.7106 167.172C50.8739 167.27 51.0614 167.32 51.2518 167.316C51.4375 167.285 51.6112 167.204 51.7536 167.08C51.896 166.957 52.0017 166.797 52.059 166.618C52.1697 166.258 52.2115 165.881 52.1821 165.506Z" fill="#F5F5F5"/>
<path d="M68.8413 164.638C68.8413 164.681 65.739 164.717 61.9163 164.717C58.0935 164.717 54.9912 164.681 54.9912 164.638C54.9912 164.594 58.0899 164.558 61.9163 164.558C65.7426 164.558 68.8413 164.594 68.8413 164.638Z" fill="#F5F5F5"/>
<path d="M49.3116 159.852L49.2319 152.8H53.0728L53.2031 159.852H49.3116Z" fill="#F5F5F5"/>
<path d="M52.8518 154.053C52.2604 154.132 51.6632 154.158 51.0671 154.132C50.4711 154.158 49.8739 154.132 49.2825 154.053C49.8741 153.976 50.4712 153.951 51.0671 153.977C51.6631 153.951 52.2602 153.976 52.8518 154.053Z" fill="#E0E0E0"/>
<path d="M52.8518 155.142C52.2604 155.221 51.6632 155.248 51.0671 155.222C50.4711 155.248 49.8739 155.221 49.2825 155.142C49.8739 155.063 50.4711 155.037 51.0671 155.063C51.6632 155.037 52.2604 155.063 52.8518 155.142Z" fill="#E0E0E0"/>
<path d="M52.8518 156.232C52.2602 156.309 51.6631 156.334 51.0671 156.308C50.4712 156.334 49.8741 156.309 49.2825 156.232C49.8739 156.153 50.4711 156.126 51.0671 156.152C51.6632 156.126 52.2604 156.153 52.8518 156.232Z" fill="#E0E0E0"/>
<path d="M52.8518 157.322C52.2602 157.398 51.6631 157.424 51.0671 157.398C50.4712 157.424 49.8741 157.398 49.2825 157.322C49.8739 157.243 50.4711 157.216 51.0671 157.242C51.6632 157.216 52.2604 157.243 52.8518 157.322Z" fill="#E0E0E0"/>
<path d="M52.8518 158.408C52.2604 158.487 51.6632 158.513 51.0671 158.487C50.4711 158.513 49.8739 158.487 49.2825 158.408C49.8741 158.331 50.4712 158.306 51.0671 158.332C51.6631 158.306 52.2602 158.331 52.8518 158.408Z" fill="#E0E0E0"/>
<path d="M49.0293 152.612H91.586C92.1109 154.947 92.0349 157.517 91.586 160.236H49.2103V159.718H51.7986C52.1231 159.718 52.4343 159.589 52.6638 159.36C52.8932 159.13 53.0222 158.819 53.0222 158.494V154.277C53.0222 153.953 52.8932 153.641 52.6638 153.412C52.4343 153.182 52.1231 153.054 51.7986 153.054H49.0293V152.612Z" fill="#EBEBEB"/>
<path d="M59.0891 156.427H59.8131C59.84 156.427 59.8665 156.434 59.8891 156.449C59.9134 156.462 59.9335 156.481 59.947 156.505C59.9605 156.529 59.9668 156.556 59.9651 156.583C59.967 156.597 59.967 156.612 59.9651 156.626C59.9651 156.688 59.9361 156.746 59.918 156.807C59.8323 157.106 59.68 157.38 59.4728 157.611C59.3996 157.703 59.308 157.778 59.2039 157.833C59.0998 157.887 58.9854 157.919 58.8682 157.926H58.7814C58.6785 157.906 58.5814 157.863 58.4974 157.801C58.4134 157.738 58.3446 157.657 58.2963 157.564C58.1478 157.304 58.0751 157.009 58.0863 156.71C58.0875 156.503 58.1155 156.297 58.1696 156.098C58.2458 155.795 58.3908 155.514 58.5931 155.276C58.6679 155.176 58.7637 155.094 58.8738 155.035C58.9839 154.976 59.1056 154.942 59.2302 154.936C59.3242 154.936 59.4169 154.957 59.5017 154.997C59.701 155.11 59.8488 155.296 59.9144 155.515C59.9197 155.539 59.9197 155.564 59.9144 155.588C59.914 155.614 59.9065 155.641 59.8927 155.664C59.8801 155.687 59.8612 155.706 59.8382 155.72C59.8152 155.733 59.789 155.74 59.7624 155.74H59.7153C59.6923 155.732 59.6714 155.72 59.6544 155.703C59.6374 155.686 59.6247 155.665 59.6176 155.642C59.5972 155.582 59.5692 155.525 59.5343 155.472C59.4994 155.412 59.4499 155.362 59.3904 155.326C59.3308 155.291 59.2633 155.271 59.194 155.269C59.1083 155.272 59.0256 155.302 58.9587 155.356C58.7806 155.502 58.6466 155.695 58.5714 155.913C58.4626 156.166 58.4048 156.438 58.4013 156.713C58.3947 156.93 58.4367 157.145 58.5243 157.343C58.5509 157.42 58.5994 157.487 58.6637 157.537C58.728 157.586 58.8054 157.616 58.8863 157.622C59.0225 157.601 59.1447 157.526 59.2266 157.416C59.3911 157.222 59.5143 156.996 59.5886 156.753H59.0782C58.9696 156.735 58.9117 156.677 58.9117 156.579C58.9081 156.563 58.9081 156.545 58.9117 156.529C58.9241 156.493 58.9488 156.463 58.9814 156.445C59.014 156.426 59.0522 156.42 59.0891 156.427Z" fill="#FAFAFA"/>
<path d="M61.5074 155.041L61.5255 155.095C61.5544 155.197 61.721 156.075 62.025 157.731C62.0284 157.744 62.0284 157.757 62.025 157.77C62.0246 157.797 62.0171 157.824 62.0033 157.847C61.9921 157.871 61.9742 157.891 61.9517 157.905C61.9293 157.919 61.9032 157.927 61.8766 157.926H61.8549C61.8264 157.924 61.7994 157.912 61.7779 157.893C61.7564 157.874 61.7415 157.849 61.7354 157.821L61.5653 156.945H60.6929L60.2802 157.832V157.861C60.266 157.883 60.2468 157.901 60.2241 157.915C60.2015 157.928 60.1761 157.935 60.1499 157.937C60.1201 157.938 60.0908 157.929 60.0666 157.912C60.0449 157.898 60.0269 157.88 60.0142 157.858C60.0016 157.835 59.9947 157.81 59.9942 157.785C59.9905 157.769 59.9905 157.753 59.9942 157.738C60.0196 157.676 60.063 157.579 60.1245 157.448C60.7351 156.111 61.0971 155.323 61.2105 155.084C61.221 155.056 61.2391 155.031 61.2629 155.012C61.2867 154.994 61.3152 154.982 61.3453 154.979C61.3753 154.975 61.4058 154.98 61.4331 154.993C61.4605 155.006 61.4837 155.026 61.5001 155.052L61.5074 155.041ZM61.3155 155.631L60.8413 156.627H61.511L61.3155 155.631Z" fill="#FAFAFA"/>
<path d="M63.8783 157.926H62.5968C62.5671 157.927 62.538 157.918 62.5136 157.901C62.4916 157.88 62.4739 157.856 62.4615 157.828C62.4491 157.801 62.4422 157.772 62.4412 157.741C62.4412 157.691 62.5618 156.816 62.8032 155.117C62.8012 155.098 62.8012 155.078 62.8032 155.059C62.8136 155.031 62.8324 155.007 62.857 154.99C62.8817 154.973 62.9109 154.965 62.9407 154.965C62.9659 154.965 62.9907 154.972 63.0131 154.983C63.0387 154.995 63.0599 155.015 63.0741 155.04C63.0883 155.064 63.0948 155.092 63.0928 155.121C63.0928 155.236 63.0638 155.478 63.0059 155.845C62.8575 156.967 62.7814 157.561 62.7742 157.622H63.8602C63.8865 157.617 63.9136 157.617 63.9398 157.622C63.9697 157.632 63.9954 157.652 64.013 157.678C64.0306 157.704 64.0393 157.735 64.0376 157.767C64.0393 157.782 64.0393 157.798 64.0376 157.814C64.0238 157.845 64.0017 157.872 63.9736 157.892C63.9455 157.912 63.9126 157.924 63.8783 157.926Z" fill="#FAFAFA"/>
<path d="M65.6342 155.041L65.6523 155.095C65.6813 155.197 65.8514 156.076 66.1519 157.731C66.1553 157.744 66.1553 157.757 66.1519 157.77C66.1585 157.795 66.1585 157.822 66.1519 157.847C66.1404 157.87 66.1224 157.89 66.1 157.904C66.0776 157.919 66.0517 157.926 66.0252 157.926H65.9999C65.9734 157.924 65.9482 157.913 65.9276 157.897C65.907 157.88 65.8918 157.857 65.884 157.832L65.7175 156.956H64.8415L64.4071 157.832C64.409 157.842 64.409 157.851 64.4071 157.861C64.3929 157.883 64.3737 157.901 64.351 157.915C64.3284 157.928 64.3029 157.935 64.2767 157.937C64.247 157.938 64.2179 157.929 64.1935 157.912C64.1722 157.898 64.1547 157.879 64.1427 157.857C64.1306 157.835 64.1245 157.81 64.1247 157.785C64.1209 157.77 64.1209 157.753 64.1247 157.738C64.15 157.676 64.1971 157.579 64.255 157.448C64.8656 156.111 65.2276 155.323 65.341 155.084C65.3514 155.056 65.3696 155.031 65.3934 155.012C65.4172 154.994 65.4457 154.982 65.4757 154.979C65.5058 154.975 65.5362 154.98 65.5636 154.993C65.5909 155.006 65.6142 155.026 65.6306 155.052L65.6342 155.041ZM65.4424 155.631L64.9682 156.627H65.6379L65.4424 155.631Z" fill="#FAFAFA"/>
<path d="M67.6939 156.558C67.7952 156.833 67.8713 157.046 67.9256 157.199C68.0595 157.561 68.1247 157.756 68.1247 157.778C68.1259 157.805 68.1168 157.832 68.0993 157.854C68.0868 157.876 68.0684 157.895 68.0461 157.908C68.0237 157.92 67.9983 157.927 67.9726 157.926C67.9147 157.926 67.8749 157.89 67.8459 157.821L67.8206 157.756C67.7518 157.597 67.636 157.296 67.4803 156.855L66.7563 157.847C66.7415 157.869 66.7218 157.888 66.6986 157.902C66.6753 157.916 66.6493 157.924 66.6224 157.926C66.5943 157.926 66.5668 157.919 66.5427 157.904C66.52 157.892 66.5011 157.874 66.4883 157.851C66.4755 157.829 66.4693 157.804 66.4703 157.778V157.745C66.4867 157.698 66.5126 157.655 66.5463 157.618C66.7889 157.307 67.0604 156.931 67.3536 156.496C67.321 156.413 67.2921 156.33 67.2667 156.254C66.9916 155.53 66.8577 155.146 66.8577 155.121C66.8563 155.093 66.8626 155.065 66.8758 155.041C66.8869 155.018 66.9043 154.998 66.9262 154.985C66.948 154.971 66.9732 154.965 66.9988 154.965C67.0286 154.965 67.0579 154.973 67.0834 154.988C67.1089 155.004 67.1298 155.026 67.1436 155.052L67.5708 156.207L68.4251 155.041C68.4407 155.019 68.4612 155.001 68.4852 154.988C68.5091 154.976 68.5357 154.969 68.5627 154.969C68.5869 154.967 68.611 154.974 68.6315 154.987C68.6561 154.999 68.6764 155.018 68.69 155.042C68.7035 155.066 68.7096 155.093 68.7075 155.121C68.7106 155.145 68.7106 155.169 68.7075 155.193L67.6939 156.558Z" fill="#FAFAFA"/>
<path d="M70.8505 154.976C70.8756 154.977 70.9003 154.983 70.9229 154.994C70.9467 155.006 70.9667 155.025 70.9807 155.048C70.9948 155.071 71.0023 155.097 71.0025 155.124C70.7926 156.782 70.6803 157.68 70.6405 157.814C70.6057 158.065 70.5127 158.304 70.369 158.513C70.2313 158.708 70.0276 158.847 69.7955 158.904C69.5634 158.962 69.3184 158.933 69.1056 158.824C68.9137 158.747 68.754 158.606 68.6531 158.426C68.6411 158.402 68.6349 158.376 68.635 158.35C68.6354 158.323 68.6429 158.297 68.6567 158.274C68.6694 158.25 68.6882 158.231 68.7112 158.217C68.7342 158.204 68.7604 158.197 68.7871 158.198C68.8106 158.199 68.8336 158.205 68.8543 158.217C68.875 158.228 68.8928 158.244 68.9065 158.263C68.979 158.371 69.0763 158.46 69.1903 158.523C69.3043 158.586 69.4316 158.621 69.5617 158.625C69.6607 158.623 69.758 158.599 69.8465 158.555C69.9349 158.51 70.012 158.446 70.0722 158.368C70.2454 158.133 70.3438 157.852 70.3545 157.561C70.3044 157.638 70.2406 157.705 70.1663 157.76C70.0333 157.858 69.8721 157.912 69.7065 157.912H69.6197C69.5159 157.893 69.4179 157.85 69.3331 157.788C69.2484 157.725 69.1792 157.643 69.131 157.55C68.9808 157.289 68.9068 156.992 68.9174 156.692C68.9174 156.537 68.9246 156.378 68.9391 156.214C68.9656 155.953 69.0236 155.584 69.1129 155.106C69.1113 155.092 69.1113 155.077 69.1129 155.063C69.1209 155.032 69.1388 155.006 69.1637 154.987C69.1886 154.968 69.2191 154.958 69.2504 154.958C69.2762 154.958 69.3014 154.965 69.3228 154.979C69.3459 154.991 69.3654 155.008 69.3789 155.03C69.3923 155.052 69.3993 155.077 69.3988 155.103C69.3864 155.298 69.3635 155.493 69.3301 155.685C69.2791 155.981 69.2453 156.28 69.2287 156.58C69.2189 156.817 69.2584 157.053 69.3445 157.275C69.4314 157.485 69.5581 157.59 69.7246 157.59H69.7753C69.9365 157.537 70.0729 157.428 70.159 157.282C70.3107 157.07 70.4178 156.83 70.474 156.576L70.6695 155.128C70.6679 155.106 70.6679 155.084 70.6695 155.063C70.6756 155.045 70.6851 155.029 70.6975 155.015C70.7099 155.001 70.725 154.99 70.7418 154.982C70.7587 154.973 70.7769 154.969 70.7956 154.968C70.8142 154.967 70.8329 154.97 70.8505 154.976Z" fill="#FAFAFA"/>
<path d="M89.9895 160.337C89.9461 160.337 89.9099 158.585 89.9099 156.424C89.9099 154.263 89.9461 152.511 89.9895 152.511C90.033 152.511 90.0692 154.263 90.0692 156.424C90.0692 158.585 90.033 160.337 89.9895 160.337Z" fill="#F5F5F5"/>
<path d="M55.1614 160.337C55.118 160.337 55.0818 158.585 55.0818 156.424C55.0818 154.263 55.118 152.511 55.1614 152.511C55.2049 152.511 55.2411 154.263 55.2411 156.424C55.2411 158.585 55.2049 160.337 55.1614 160.337Z" fill="#E0E0E0"/>
<path d="M90.7352 160.337C90.6918 160.337 90.6592 158.585 90.6592 156.424C90.6592 154.263 90.6918 152.511 90.7352 152.511C90.7786 152.511 90.8148 154.263 90.8148 156.424C90.8148 158.585 90.7786 160.337 90.7352 160.337Z" fill="#F5F5F5"/>
<path d="M54.4627 160.337C54.4193 160.337 54.3867 158.585 54.3867 156.424C54.3867 154.263 54.4193 152.511 54.4627 152.511C54.5062 152.511 54.5424 154.263 54.5424 156.424C54.5424 158.585 54.5062 160.337 54.4627 160.337Z" fill="#E0E0E0"/>
<path d="M79.6688 153.803L84.1685 157.423L84.2083 157.455H84.1576L83.5603 157.611L79.7629 158.61L76.3203 157.162L75.3248 156.746L75.0678 156.634L75.0026 156.605C74.9845 156.605 74.9773 156.605 74.9809 156.605H75.0026L75.0714 156.63L75.3284 156.735L76.3094 157.14L79.7593 158.588L83.5531 157.586L84.154 157.43V157.474L79.6652 153.854" fill="#E0E0E0"/>
<path d="M83.7559 156.851L83.9985 157.083L84.3279 157.01L84.1867 157.314L84.3532 157.608L84.0202 157.564L83.7957 157.814L83.7342 157.484L83.4265 157.351L83.7197 157.188L83.7559 156.851Z" fill="#E0E0E0"/>
<path d="M79.4408 158.281L79.6074 158.422L79.8173 158.364L79.7377 158.563L79.8571 158.748L79.6399 158.733L79.506 158.904L79.4517 158.694L79.2454 158.618L79.43 158.502L79.4408 158.281Z" fill="#E0E0E0"/>
<path d="M74.6733 156.326L74.9412 156.344L75.1041 156.134L75.1729 156.391L75.4227 156.485L75.1982 156.627L75.1874 156.894L74.981 156.724L74.724 156.797L74.8218 156.547L74.6733 156.326Z" fill="#E0E0E0"/>
<path d="M85.7722 153.857L86.0401 153.875L86.203 153.665L86.2718 153.922L86.5216 154.017L86.2971 154.158L86.2863 154.426L86.0799 154.255L85.8229 154.328L85.9206 154.082L85.7722 153.857Z" fill="#E0E0E0"/>
<path d="M79.4517 153.684L79.6218 153.694L79.7268 153.56L79.7702 153.723L79.9295 153.785L79.7847 153.875L79.7811 154.046L79.6472 153.937L79.4842 153.984L79.5458 153.825L79.4517 153.684Z" fill="#E0E0E0"/>
<path d="M86.1559 154.045C86.1559 154.045 84.7079 154.013 82.8979 153.937C81.0879 153.861 79.6399 153.785 79.6399 153.767C79.6399 153.749 81.0879 153.799 82.8979 153.875C84.7079 153.951 86.1559 154.027 86.1559 154.045Z" fill="#E0E0E0"/>
<path d="M87.7813 152.547H44.6164C44.0517 151.262 43.8924 150.045 44.6164 148.952H87.7813C88.0492 149.513 88.1881 150.128 88.1881 150.749C88.1881 151.371 88.0492 151.985 87.7813 152.547Z" fill="#E0E0E0"/>
<path d="M76.9394 149.98H53.5542V151.287H76.9394V149.98Z" fill="#EBEBEB"/>
<path d="M46.2709 152.565C46.1279 152.446 46.0119 152.298 45.9306 152.13C45.7097 151.738 45.5751 151.304 45.5358 150.856C45.4964 150.407 45.5533 149.956 45.7025 149.531C45.7536 149.352 45.8424 149.185 45.9632 149.043C45.923 149.22 45.871 149.394 45.8075 149.564C45.5818 150.402 45.66 151.293 46.0283 152.08C46.1218 152.235 46.2029 152.397 46.2709 152.565Z" fill="#E0E0E0"/>
<path d="M47.2047 152.565C47.0617 152.446 46.9457 152.298 46.8644 152.13C46.6435 151.738 46.5089 151.304 46.4696 150.856C46.4303 150.407 46.4871 149.956 46.6363 149.531C46.6874 149.352 46.7763 149.185 46.897 149.043C46.8569 149.22 46.8049 149.394 46.7413 149.564C46.5157 150.402 46.5939 151.293 46.9621 152.08C47.0556 152.235 47.1367 152.397 47.2047 152.565Z" fill="#E0E0E0"/>
<path d="M86.0327 152.482C86.206 151.911 86.3081 151.321 86.3368 150.726C86.315 150.129 86.2202 149.537 86.0544 148.963C86.348 149.504 86.5 150.11 86.4962 150.725C86.4924 151.34 86.333 151.945 86.0327 152.482Z" fill="#F5F5F5"/>
<path d="M85.2328 152.471C85.1822 152.471 85.3668 151.703 85.3595 150.751C85.3523 149.799 85.1785 149.043 85.2256 149.032C85.4429 149.578 85.5428 150.164 85.5188 150.751C85.5429 151.338 85.4455 151.923 85.2328 152.471Z" fill="#F5F5F5"/>
<path d="M170.459 12.9777H103.489V79.9477H170.459V12.9777Z" fill="white"/>
<path d="M170.527 79.7522H103.489V79.9477H170.527V79.7522Z" fill="#EBEBEB"/>
<path d="M170.527 68.5375H103.489V68.7329H170.527V68.5375Z" fill="#EBEBEB"/>
<path d="M170.527 57.3263H103.489V57.5218H170.527V57.3263Z" fill="#EBEBEB"/>
<path d="M170.527 46.1115H103.489V46.307H170.527V46.1115Z" fill="#EBEBEB"/>
<path d="M170.527 34.9004H103.489V35.0959H170.527V34.9004Z" fill="#EBEBEB"/>
<path d="M170.527 23.6893H103.489V23.8847H170.527V23.6893Z" fill="#EBEBEB"/>
<path d="M170.527 12.9777H170.335V79.8499H170.527V12.9777Z" fill="#EBEBEB"/>
<path d="M159.309 12.9777H159.117V79.8499H159.309V12.9777Z" fill="#EBEBEB"/>
<path d="M148.091 12.9777H147.899V79.8499H148.091V12.9777Z" fill="#EBEBEB"/>
<path d="M136.868 12.9777H136.677V79.8499H136.868V12.9777Z" fill="#EBEBEB"/>
<path d="M125.65 12.9777H125.458V79.8499H125.65V12.9777Z" fill="#EBEBEB"/>
<path d="M114.432 12.9777H114.24V79.8499H114.432V12.9777Z" fill="#EBEBEB"/>
<path d="M170.527 79.7993H103.489V79.897H170.527V79.7993Z" fill="#EBEBEB"/>
<path d="M170.527 76.9974H103.489V77.0952H170.527V76.9974Z" fill="#EBEBEB"/>
<path d="M170.527 74.1919H103.489V74.2896H170.527V74.1919Z" fill="#EBEBEB"/>
<path d="M170.527 71.39H103.489V71.4877H170.527V71.39Z" fill="#EBEBEB"/>
<path d="M170.527 68.5881H103.489V68.6859H170.527V68.5881Z" fill="#E0E0E0"/>
<path d="M170.527 65.7827H103.489V65.8804H170.527V65.7827Z" fill="#EBEBEB"/>
<path d="M170.527 62.9807H103.489V63.0785H170.527V62.9807Z" fill="#EBEBEB"/>
<path d="M170.527 60.1789H103.489V60.2766H170.527V60.1789Z" fill="#EBEBEB"/>
<path d="M170.527 57.3734H103.489V57.4711H170.527V57.3734Z" fill="#E0E0E0"/>
<path d="M170.527 54.5715H103.489V54.6692H170.527V54.5715Z" fill="#EBEBEB"/>
<path d="M170.527 51.7696H103.489V51.8673H170.527V51.7696Z" fill="#EBEBEB"/>
<path d="M170.527 48.9641H103.489V49.0618H170.527V48.9641Z" fill="#EBEBEB"/>
<path d="M170.527 46.1622H103.489V46.26H170.527V46.1622Z" fill="#E0E0E0"/>
<path d="M170.527 43.3604H103.489V43.4581H170.527V43.3604Z" fill="#EBEBEB"/>
<path d="M170.527 40.5549H103.489V40.6526H170.527V40.5549Z" fill="#EBEBEB"/>
<path d="M170.527 37.753H103.489V37.8507H170.527V37.753Z" fill="#EBEBEB"/>
<path d="M170.527 34.9474H103.489V35.0452H170.527V34.9474Z" fill="#E0E0E0"/>
<path d="M170.527 32.1456H103.489V32.2433H170.527V32.1456Z" fill="#EBEBEB"/>
<path d="M170.527 29.3437H103.489V29.4414H170.527V29.3437Z" fill="#EBEBEB"/>
<path d="M170.527 26.5382H103.489V26.636H170.527V26.5382Z" fill="#EBEBEB"/>
<path d="M170.527 23.7363H103.489V23.8341H170.527V23.7363Z" fill="#E0E0E0"/>
<path d="M170.527 20.9344H103.489V21.0322H170.527V20.9344Z" fill="#EBEBEB"/>
<path d="M170.527 18.129H103.489V18.2267H170.527V18.129Z" fill="#EBEBEB"/>
<path d="M170.527 15.3271H103.489V15.4248H170.527V15.3271Z" fill="#EBEBEB"/>
<path d="M170.48 12.9777H170.383V79.8499H170.48V12.9777Z" fill="#EBEBEB"/>
<path d="M167.675 12.9777H167.577V79.8499H167.675V12.9777Z" fill="#EBEBEB"/>
<path d="M164.873 12.9777H164.775V79.8499H164.873V12.9777Z" fill="#EBEBEB"/>
<path d="M162.067 12.9777H161.969V79.8499H162.067V12.9777Z" fill="#EBEBEB"/>
<path d="M159.262 12.9777H159.164V79.8499H159.262V12.9777Z" fill="#E0E0E0"/>
<path d="M156.456 12.9777H156.359V79.8499H156.456V12.9777Z" fill="#EBEBEB"/>
<path d="M153.651 12.9777H153.553V79.8499H153.651V12.9777Z" fill="#EBEBEB"/>
<path d="M150.849 12.9777H150.751V79.8499H150.849V12.9777Z" fill="#EBEBEB"/>
<path d="M148.043 12.9777H147.946V79.8499H148.043V12.9777Z" fill="#E0E0E0"/>
<path d="M145.238 12.9777H145.14V79.8499H145.238V12.9777Z" fill="#EBEBEB"/>
<path d="M142.432 12.9777H142.335V79.8499H142.432V12.9777Z" fill="#EBEBEB"/>
<path d="M139.627 12.9777H139.529V79.8499H139.627V12.9777Z" fill="#EBEBEB"/>
<path d="M136.825 12.9777H136.727V79.8499H136.825V12.9777Z" fill="#E0E0E0"/>
<path d="M134.02 12.9777H133.922V79.8499H134.02V12.9777Z" fill="#EBEBEB"/>
<path d="M131.214 12.9777H131.116V79.8499H131.214V12.9777Z" fill="#EBEBEB"/>
<path d="M128.409 12.9777H128.311V79.8499H128.409V12.9777Z" fill="#EBEBEB"/>
<path d="M125.603 12.9777H125.505V79.8499H125.603V12.9777Z" fill="#E0E0E0"/>
<path d="M122.801 12.9777H122.703V79.8499H122.801V12.9777Z" fill="#EBEBEB"/>
<path d="M119.996 12.9777H119.898V79.8499H119.996V12.9777Z" fill="#EBEBEB"/>
<path d="M117.19 12.9777H117.093V79.8499H117.19V12.9777Z" fill="#EBEBEB"/>
<path d="M114.385 12.9777H114.287V79.8499H114.385V12.9777Z" fill="#E0E0E0"/>
<path d="M111.583 12.9777H111.485V79.8499H111.583V12.9777Z" fill="#EBEBEB"/>
<path d="M108.777 12.9777H108.679V79.8499H108.777V12.9777Z" fill="#EBEBEB"/>
<path d="M105.972 12.9777H105.874V79.8499H105.972V12.9777Z" fill="#EBEBEB"/>
<path d="M170.455 79.9477C170.455 79.9477 170.455 79.8391 170.455 79.6291C170.455 79.4192 170.455 79.1115 170.455 78.706C170.455 77.8915 170.455 76.6861 170.455 75.115C170.455 71.9692 170.455 67.361 170.433 61.5002C170.433 49.7822 170.411 33.0506 170.393 12.9922L170.473 13.0718H103.503L103.597 12.9777C103.597 37.4996 103.597 60.483 103.597 79.9477L103.517 79.8644L152.026 79.9043L165.64 79.926H169.231H170.14H170.455H169.235H165.658L152.062 79.9477L103.489 79.9875H103.405V79.9079C103.405 60.4431 103.405 37.4597 103.405 12.9379V12.8438H103.507H170.477H170.56V12.927C170.52 33.0723 170.502 49.8221 170.502 61.54C170.502 67.3935 170.502 71.9982 170.484 75.1367C170.484 76.7006 170.484 77.9024 170.484 78.7133C170.484 79.1151 170.484 79.4373 170.484 79.6291C170.484 79.821 170.455 79.9477 170.455 79.9477Z" fill="#E0E0E0"/>
<path d="M49.6228 13.2203H12.8979V49.9452H49.6228V13.2203Z" fill="white"/>
<path d="M49.6627 49.8401H12.8979V49.9487H49.6627V49.8401Z" fill="#EBEBEB"/>
<path d="M49.6627 43.6898H12.8979V43.7984H49.6627V43.6898Z" fill="#EBEBEB"/>
<path d="M49.6627 37.543H12.8979V37.6516H49.6627V37.543Z" fill="#EBEBEB"/>
<path d="M49.6627 31.3926H12.8979V31.5012H49.6627V31.3926Z" fill="#EBEBEB"/>
<path d="M49.6627 25.2422H12.8979V25.3508H49.6627V25.2422Z" fill="#EBEBEB"/>
<path d="M49.6627 19.0955H12.8979V19.2041H49.6627V19.0955Z" fill="#EBEBEB"/>
<path d="M49.6626 13.2203H49.5576V49.8945H49.6626V13.2203Z" fill="#EBEBEB"/>
<path d="M43.5088 13.2203H43.4038V49.8945H43.5088V13.2203Z" fill="#EBEBEB"/>
<path d="M37.3547 13.2203H37.2498V49.8945H37.3547V13.2203Z" fill="#EBEBEB"/>
<path d="M31.2041 13.2203H31.0991V49.8945H31.2041V13.2203Z" fill="#EBEBEB"/>
<path d="M25.0503 13.2203H24.9453V49.8945H25.0503V13.2203Z" fill="#EBEBEB"/>
<path d="M18.8999 13.2203H18.7949V49.8945H18.8999V13.2203Z" fill="#EBEBEB"/>
<path d="M49.6627 49.8655H12.8979V49.9198H49.6627V49.8655Z" fill="#EBEBEB"/>
<path d="M49.6627 48.3306H12.8979V48.3849H49.6627V48.3306Z" fill="#EBEBEB"/>
<path d="M49.6627 46.7921H12.8979V46.8464H49.6627V46.7921Z" fill="#EBEBEB"/>
<path d="M49.6627 45.2536H12.8979V45.3079H49.6627V45.2536Z" fill="#EBEBEB"/>
<path d="M49.6627 43.7188H12.8979V43.7731H49.6627V43.7188Z" fill="#E0E0E0"/>
<path d="M49.6627 42.1802H12.8979V42.2345H49.6627V42.1802Z" fill="#EBEBEB"/>
<path d="M49.6627 40.6417H12.8979V40.696H49.6627V40.6417Z" fill="#EBEBEB"/>
<path d="M49.6627 39.1069H12.8979V39.1612H49.6627V39.1069Z" fill="#EBEBEB"/>
<path d="M49.6627 37.5684H12.8979V37.6227H49.6627V37.5684Z" fill="#E0E0E0"/>
<path d="M49.6627 36.0298H12.8979V36.0841H49.6627V36.0298Z" fill="#EBEBEB"/>
<path d="M49.6627 34.495H12.8979V34.5493H49.6627V34.495Z" fill="#EBEBEB"/>
<path d="M49.6627 32.9565H12.8979V33.0108H49.6627V32.9565Z" fill="#EBEBEB"/>
<path d="M49.6627 31.418H12.8979V31.4723H49.6627V31.418Z" fill="#E0E0E0"/>
<path d="M49.6627 29.8831H12.8979V29.9374H49.6627V29.8831Z" fill="#EBEBEB"/>
<path d="M49.6627 28.3446H12.8979V28.3989H49.6627V28.3446Z" fill="#EBEBEB"/>
<path d="M49.6627 26.8061H12.8979V26.8604H49.6627V26.8061Z" fill="#EBEBEB"/>
<path d="M49.6627 25.2712H12.8979V25.3255H49.6627V25.2712Z" fill="#E0E0E0"/>
<path d="M49.6627 23.7327H12.8979V23.787H49.6627V23.7327Z" fill="#EBEBEB"/>
<path d="M49.6627 22.1942H12.8979V22.2485H49.6627V22.1942Z" fill="#EBEBEB"/>
<path d="M49.6627 20.6593H12.8979V20.7136H49.6627V20.6593Z" fill="#EBEBEB"/>
<path d="M49.6627 19.1208H12.8979V19.1751H49.6627V19.1208Z" fill="#E0E0E0"/>
<path d="M49.6627 17.5823H12.8979V17.6366H49.6627V17.5823Z" fill="#EBEBEB"/>
<path d="M49.6627 16.0475H12.8979V16.1018H49.6627V16.0475Z" fill="#EBEBEB"/>
<path d="M49.6627 14.509H12.8979V14.5633H49.6627V14.509Z" fill="#EBEBEB"/>
<path d="M49.6373 13.2203H49.583V49.8945H49.6373V13.2203Z" fill="#EBEBEB"/>
<path d="M48.0987 13.2203H48.0444V49.8945H48.0987V13.2203Z" fill="#EBEBEB"/>
<path d="M46.5604 13.2203H46.5061V49.8945H46.5604V13.2203Z" fill="#EBEBEB"/>
<path d="M45.0218 13.2203H44.9675V49.8945H45.0218V13.2203Z" fill="#EBEBEB"/>
<path d="M43.4833 13.2203H43.429V49.8945H43.4833V13.2203Z" fill="#E0E0E0"/>
<path d="M41.9449 13.2203H41.8906V49.8945H41.9449V13.2203Z" fill="#EBEBEB"/>
<path d="M40.41 13.2203H40.3557V49.8945H40.41V13.2203Z" fill="#EBEBEB"/>
<path d="M38.8714 13.2203H38.8171V49.8945H38.8714V13.2203Z" fill="#EBEBEB"/>
<path d="M37.3329 13.2203H37.2786V49.8945H37.3329V13.2203Z" fill="#E0E0E0"/>
<path d="M35.7945 13.2203H35.7402V49.8945H35.7945V13.2203Z" fill="#EBEBEB"/>
<path d="M34.2559 13.2203H34.2017V49.8945H34.2559V13.2203Z" fill="#EBEBEB"/>
<path d="M32.7174 13.2203H32.6631V49.8945H32.7174V13.2203Z" fill="#EBEBEB"/>
<path d="M31.1788 13.2203H31.1245V49.8945H31.1788V13.2203Z" fill="#E0E0E0"/>
<path d="M29.6402 13.2203H29.5859V49.8945H29.6402V13.2203Z" fill="#EBEBEB"/>
<path d="M28.1021 13.2203H28.0479V49.8945H28.1021V13.2203Z" fill="#EBEBEB"/>
<path d="M26.5636 13.2203H26.5093V49.8945H26.5636V13.2203Z" fill="#EBEBEB"/>
<path d="M25.025 13.2203H24.9707V49.8945H25.025V13.2203Z" fill="#E0E0E0"/>
<path d="M23.4899 13.2203H23.4355V49.8945H23.4899V13.2203Z" fill="#EBEBEB"/>
<path d="M21.9518 13.2203H21.8975V49.8945H21.9518V13.2203Z" fill="#EBEBEB"/>
<path d="M20.4132 13.2203H20.3589V49.8945H20.4132V13.2203Z" fill="#EBEBEB"/>
<path d="M18.8746 13.2203H18.8203V49.8945H18.8746V13.2203Z" fill="#E0E0E0"/>
<path d="M17.336 13.2203H17.2817V49.8945H17.336V13.2203Z" fill="#EBEBEB"/>
<path d="M15.7975 13.2203H15.7432V49.8945H15.7975V13.2203Z" fill="#EBEBEB"/>
<path d="M14.2589 13.2203H14.2046V49.8945H14.2589V13.2203Z" fill="#EBEBEB"/>
<path d="M49.6226 49.956C49.6226 49.956 49.6226 49.8945 49.6226 49.7786C49.6226 49.6628 49.6226 49.4926 49.6226 49.2718C49.6226 48.8193 49.6226 48.1569 49.6226 47.2953C49.6226 45.5686 49.6226 43.0418 49.6009 39.8272C49.6009 33.4017 49.5755 24.2287 49.5611 13.2275L49.6407 13.3107H12.9194L13.0136 13.2166C13.0136 26.6649 13.0136 39.2806 13.0136 49.9451L12.9339 49.8619L39.53 49.9053H47.0017H48.9746H49.485H49.6588H48.9927H47.0343L39.5843 49.927L12.9339 49.9669H12.8145V49.956C12.8145 39.2806 12.8145 26.6758 12.8145 13.2275V13.1334H12.9122H49.6335H49.7167V13.213C49.6986 24.2359 49.6841 33.4271 49.6733 39.8634C49.6733 43.0708 49.6733 45.5903 49.6516 47.317C49.6516 48.1713 49.6516 48.8266 49.6516 49.2754C49.6516 49.4926 49.6516 49.6592 49.6516 49.775C49.6516 49.8908 49.6226 49.956 49.6226 49.956Z" fill="#E0E0E0"/>
<path d="M20.1667 118.798L22.6681 105.099L21.9948 104.585L16.0507 112.423C16.2186 112.608 16.3171 112.846 16.3296 113.096C16.3422 113.346 16.2679 113.593 16.1195 113.795C15.9443 114.026 15.6845 114.177 15.3974 114.217C15.1102 114.256 14.8192 114.18 14.5883 114.005C14.3574 113.829 14.2055 113.57 14.1662 113.283C14.1268 112.995 14.2031 112.704 14.3783 112.473C14.5328 112.277 14.7505 112.139 14.9945 112.085C15.2385 112.03 15.494 112.061 15.7177 112.173L21.6654 104.336L21.0282 103.854L8.17725 110.048C11.8153 113.125 9.41167 117.056 9.41167 117.056L13.0715 119.88C15.8734 116.202 20.1667 118.798 20.1667 118.798Z" fill="#E0E0E0"/>
<path d="M7.63447 116.712L13.698 121.389L11.9387 123.779L5.84619 118.892L7.63447 116.712Z" fill="#E0E0E0"/>
<path d="M167.686 168.974C167.686 169.029 132.963 169.068 90.1416 169.068C47.3206 169.068 12.5903 169.029 12.5903 168.974C12.5903 168.92 47.3061 168.88 90.1416 168.88C132.977 168.88 167.686 168.924 167.686 168.974Z" fill="#263238"/>
<path d="M78.9959 115.033H28.5259V145.531H78.9959V115.033Z" fill="white"/>
<path d="M78.9954 109.921H28.5254V115.868H78.9954V109.921Z" fill="#EBEBEB"/>
<path d="M44.2474 128.047H36.0662V119.865H44.2474V128.047ZM36.4282 127.685H43.8854V120.227H36.4282V127.685Z" fill="#263238"/>
<path d="M44.2474 141.357H36.0662V133.173H44.2474V141.357ZM36.4282 140.995H43.8854V133.535H36.4282V140.995Z" fill="#263238"/>
<path d="M70.5467 126.725H51.7227C51.4118 126.725 51.1039 126.664 50.8167 126.545C50.5295 126.426 50.2685 126.252 50.0486 126.032C49.8288 125.812 49.6544 125.551 49.5354 125.264C49.4165 124.977 49.3552 124.669 49.3552 124.358C49.3552 124.047 49.4165 123.739 49.5355 123.452C49.6545 123.165 49.829 122.905 50.0489 122.685C50.2688 122.465 50.5298 122.291 50.817 122.173C51.1042 122.054 51.412 121.993 51.7227 121.994H70.5467C70.8574 121.993 71.1652 122.054 71.4524 122.173C71.7396 122.291 72.0007 122.465 72.2205 122.685C72.4404 122.905 72.6149 123.165 72.7339 123.452C72.8529 123.739 72.9142 124.047 72.9142 124.358C72.9142 124.669 72.8529 124.977 72.734 125.264C72.615 125.551 72.4406 125.812 72.2208 126.032C72.0009 126.252 71.7399 126.426 71.4527 126.545C71.1655 126.664 70.8576 126.725 70.5467 126.725Z" fill="#E0E0E0"/>
<path d="M51.6069 127.949C53.8121 127.949 55.5997 126.161 55.5997 123.956C55.5997 121.751 53.8121 119.963 51.6069 119.963C49.4017 119.963 47.614 121.751 47.614 123.956C47.614 126.161 49.4017 127.949 51.6069 127.949Z" fill="#0075FF"/>
<path d="M70.5467 139.439H51.7227C51.0954 139.439 50.4938 139.19 50.0499 138.747C49.606 138.303 49.3562 137.702 49.3552 137.075C49.3552 136.447 49.6047 135.845 50.0486 135.401C50.4926 134.957 51.0948 134.707 51.7227 134.707H70.5467C71.1746 134.707 71.7768 134.957 72.2208 135.401C72.6647 135.845 72.9142 136.447 72.9142 137.075C72.9132 137.702 72.6634 138.303 72.2195 138.747C71.7756 139.19 71.174 139.439 70.5467 139.439Z" fill="#E0E0E0"/>
<path d="M61.4169 140.666C63.6221 140.666 65.4098 138.878 65.4098 136.673C65.4098 134.468 63.6221 132.68 61.4169 132.68C59.2117 132.68 57.4241 134.468 57.4241 136.673C57.4241 138.878 59.2117 140.666 61.4169 140.666Z" fill="#0075FF"/>
<path d="M40.0121 141.155C39.9578 141.155 39.918 139.417 39.918 137.274C39.918 135.131 39.9578 133.397 40.0121 133.397C40.0664 133.397 40.1062 135.131 40.1062 137.274C40.1062 139.417 40.0628 141.155 40.0121 141.155Z" fill="#263238"/>
<path d="M44.0665 137.365C44.0665 137.415 42.3108 137.459 40.1424 137.459C37.974 137.459 36.2219 137.415 36.2219 137.365C36.2219 137.314 37.9776 137.27 40.1424 137.27C42.3071 137.27 44.0665 137.31 44.0665 137.365Z" fill="#263238"/>
<path d="M78.9958 145.524C78.9958 145.524 78.9958 145.303 78.9958 144.876C78.9958 144.449 78.9958 143.815 78.9958 142.99C78.9958 141.336 78.9958 138.914 78.9958 135.811C78.9958 129.618 78.9704 120.727 78.9559 109.918L79.032 109.994L28.5655 110.012L28.6597 109.918C28.6597 122.656 28.6597 134.751 28.6597 145.524L28.5728 145.441L64.961 145.48L75.2961 145.524H78.0509H79.0066H78.7713H78.069H75.3323L64.9827 145.546L28.5366 145.589H28.4497V145.524C28.4497 134.751 28.4497 122.656 28.4497 109.918V109.824H28.5474L79.0139 109.842H79.0899V109.918C79.0718 120.745 79.0573 129.654 79.05 135.862C79.05 138.954 79.05 141.372 79.0283 143.019C79.0283 143.837 79.0283 144.467 79.0283 144.89C79.0283 145.314 78.9958 145.524 78.9958 145.524Z" fill="#263238"/>
<path d="M32.1421 112.944C32.1421 113.114 32.0915 113.281 31.9969 113.423C31.9022 113.564 31.7676 113.675 31.6102 113.74C31.4528 113.805 31.2796 113.822 31.1124 113.789C30.9453 113.756 30.7918 113.674 30.6713 113.553C30.5508 113.433 30.4687 113.279 30.4355 113.112C30.4023 112.945 30.4193 112.772 30.4845 112.614C30.5497 112.457 30.6602 112.322 30.8018 112.228C30.9435 112.133 31.1101 112.082 31.2805 112.082C31.5087 112.083 31.7273 112.174 31.8887 112.336C32.05 112.497 32.1411 112.716 32.1421 112.944Z" fill="white"/>
<path d="M33.8833 113.816C34.3591 113.816 34.7448 113.431 34.7448 112.955C34.7448 112.479 34.3591 112.093 33.8833 112.093C33.4075 112.093 33.0217 112.479 33.0217 112.955C33.0217 113.431 33.4075 113.816 33.8833 113.816Z" fill="white"/>
<path d="M36.4861 113.816C36.9619 113.816 37.3476 113.431 37.3476 112.955C37.3476 112.479 36.9619 112.093 36.4861 112.093C36.0102 112.093 35.6245 112.479 35.6245 112.955C35.6245 113.431 36.0102 113.816 36.4861 113.816Z" fill="white"/>
<path d="M96.5095 34.3973H28.1675V101.874H96.5095V34.3973Z" fill="white"/>
<path d="M96.5095 101.646H28.1675V101.943H96.5095V101.646Z" fill="#EBEBEB"/>
<path d="M96.5095 34.1004H28.1675V34.3972H96.5095V34.1004Z" fill="#EBEBEB"/>
<path d="M96.5095 84.6428H28.1675V84.9397H96.5095V84.6428Z" fill="#EBEBEB"/>
<path d="M96.5095 67.6397H28.1675V67.9365H96.5095V67.6397Z" fill="#EBEBEB"/>
<path d="M96.5095 50.6401H28.1675V50.937H96.5095V50.6401Z" fill="#EBEBEB"/>
<path d="M96.513 34.3973H96.2197V101.943H96.513V34.3973Z" fill="#EBEBEB"/>
<path d="M79.499 34.3973H79.2058V101.943H79.499V34.3973Z" fill="#EBEBEB"/>
<path d="M62.4849 34.3973H62.1917V101.943H62.4849V34.3973Z" fill="#EBEBEB"/>
<path d="M45.4746 34.3973H45.1814V101.943H45.4746V34.3973Z" fill="#EBEBEB"/>
<path d="M28.4607 34.3973H28.1675V101.943H28.4607V34.3973Z" fill="#EBEBEB"/>
<path d="M96.5095 97.4685H28.1675V97.6169H96.5095V97.4685Z" fill="#EBEBEB"/>
<path d="M96.5095 93.2186H28.1675V93.3671H96.5095V93.2186Z" fill="#EBEBEB"/>
<path d="M96.5095 88.9688H28.1675V89.1172H96.5095V88.9688Z" fill="#EBEBEB"/>
<path d="M96.5095 84.7189H28.1675V84.8673H96.5095V84.7189Z" fill="#E0E0E0"/>
<path d="M96.5095 80.469H28.1675V80.6174H96.5095V80.469Z" fill="#EBEBEB"/>
<path d="M96.5095 76.2155H28.1675V76.3639H96.5095V76.2155Z" fill="#EBEBEB"/>
<path d="M96.5095 71.9656H28.1675V72.114H96.5095V71.9656Z" fill="#EBEBEB"/>
<path d="M96.5095 67.7157H28.1675V67.8641H96.5095V67.7157Z" fill="#E0E0E0"/>
<path d="M96.5095 63.4658H28.1675V63.6142H96.5095V63.4658Z" fill="#EBEBEB"/>
<path d="M96.5095 59.2123H28.1675V59.3608H96.5095V59.2123Z" fill="#EBEBEB"/>
<path d="M96.5095 54.9625H28.1675V55.1109H96.5095V54.9625Z" fill="#EBEBEB"/>
<path d="M96.5095 50.7126H28.1675V50.861H96.5095V50.7126Z" fill="#E0E0E0"/>
<path d="M96.5095 46.4627H28.1675V46.6111H96.5095V46.4627Z" fill="#EBEBEB"/>
<path d="M96.5095 42.2128H28.1675V42.3612H96.5095V42.2128Z" fill="#EBEBEB"/>
<path d="M96.5095 37.9594H28.1675V38.1078H96.5095V37.9594Z" fill="#EBEBEB"/>
<path d="M96.437 34.3973H96.2922V101.943H96.437V34.3973Z" fill="#EBEBEB"/>
<path d="M92.1833 34.3973H92.0386V101.943H92.1833V34.3973Z" fill="#EBEBEB"/>
<path d="M87.93 34.3973H87.7852V101.943H87.93V34.3973Z" fill="#EBEBEB"/>
<path d="M83.6765 34.3973H83.5317V101.943H83.6765V34.3973Z" fill="#EBEBEB"/>
<path d="M79.4229 34.3973H79.2781V101.943H79.4229V34.3973Z" fill="#E0E0E0"/>
<path d="M75.1695 34.3973H75.0247V101.943H75.1695V34.3973Z" fill="#EBEBEB"/>
<path d="M70.916 34.3973H70.7712V101.943H70.916V34.3973Z" fill="#EBEBEB"/>
<path d="M66.6624 34.3973H66.5176V101.943H66.6624V34.3973Z" fill="#EBEBEB"/>
<path d="M62.4089 34.3973H62.2642V101.943H62.4089V34.3973Z" fill="#E0E0E0"/>
<path d="M58.159 34.3973H58.0142V101.943H58.159V34.3973Z" fill="#EBEBEB"/>
<path d="M53.9055 34.3973H53.7607V101.943H53.9055V34.3973Z" fill="#EBEBEB"/>
<path d="M49.6521 34.3973H49.5073V101.943H49.6521V34.3973Z" fill="#EBEBEB"/>
<path d="M45.3985 34.3973H45.2537V101.943H45.3985V34.3973Z" fill="#E0E0E0"/>
<path d="M41.1451 34.3973H41.0002V101.943H41.1451V34.3973Z" fill="#EBEBEB"/>
<path d="M36.8916 34.3973H36.7468V101.943H36.8916V34.3973Z" fill="#EBEBEB"/>
<path d="M32.638 34.3973H32.4932V101.943H32.638V34.3973Z" fill="#EBEBEB"/>
<path d="M28.3846 34.3973H28.2397V101.943H28.3846V34.3973Z" fill="#E0E0E0"/>
<path d="M30.1439 32.7103H26.77V36.0842H30.1439V32.7103Z" fill="#263238"/>
<path d="M30.1439 100.187H26.77V103.561H30.1439V100.187Z" fill="#263238"/>
<path d="M98.0152 32.7103H94.6414V36.0842H98.0152V32.7103Z" fill="#263238"/>
<path d="M98.0152 100.256H94.6414V103.63H98.0152V100.256Z" fill="#263238"/>
<path d="M96.6757 101.943C96.6757 101.248 96.6431 74.7928 96.5961 34.1004L96.6757 34.1837H28.1745L28.2686 34.0896C28.2686 58.9191 28.2686 82.1957 28.2686 101.932L28.1853 101.849L96.6938 101.932H96.3825H95.4449H91.7851L77.8734 101.954L28.1853 101.997H28.1021V101.914C28.1021 82.1776 28.1021 58.9011 28.1021 34.0715V33.9774H28.2034H96.7047H96.7879V34.057C96.7698 54.4195 96.7554 71.39 96.7445 83.289C96.7445 89.2185 96.7445 93.8775 96.7228 97.045C96.7228 98.6269 96.7228 99.8432 96.7228 100.665C96.7228 101.074 96.7228 101.389 96.7228 101.592C96.7228 101.794 96.6757 101.943 96.6757 101.943Z" fill="#263238"/>
<path d="M96.9436 101.092C97.197 101.233 100.296 108.98 100.477 109.874C100.927 112.341 101.067 114.855 100.893 117.357C100.596 120.408 100.118 124.792 100.118 124.792L88.7118 125.067L89.1607 117.697C89.1607 117.697 87.1769 115.478 87.2674 113.896C87.3796 111.93 89.1064 111.97 89.1064 111.97C89.1064 111.97 88.2701 109.458 90.7824 109.219C90.7824 109.219 92.0241 106.645 93.9463 107.123C95.8685 107.601 96.5853 108.321 96.5853 108.321L94.692 103.199C94.5481 102.826 94.5349 102.415 94.6546 102.034C94.7743 101.653 95.0197 101.323 95.3508 101.099C95.5866 100.943 95.8631 100.858 96.1462 100.857C96.4293 100.856 96.7065 100.938 96.9436 101.092Z" fill="#FFBE9D"/>
<path d="M94.4242 114.265C94.3952 114.283 94.1889 113.983 93.7654 113.585C93.5193 113.352 93.2528 113.143 92.969 112.958C92.6255 112.739 92.2619 112.552 91.883 112.401C91.1778 112.134 90.4288 112.001 89.6748 112.01C89.0956 112.01 88.7372 112.093 88.73 112.061C88.8073 112.021 88.8904 111.994 88.9761 111.981C89.2026 111.923 89.4342 111.888 89.6676 111.876C90.446 111.835 91.2243 111.958 91.9518 112.238C92.3489 112.395 92.7286 112.593 93.0848 112.828C93.3726 113.025 93.6384 113.252 93.8776 113.505C94.035 113.666 94.1768 113.842 94.3011 114.03C94.388 114.178 94.4351 114.258 94.4242 114.265Z" fill="#EB996E"/>
<path d="M95.8612 111.76C95.8322 111.76 95.6476 111.492 95.2711 111.101C94.7808 110.592 94.2034 110.174 93.5661 109.867C92.9272 109.563 92.2397 109.375 91.5353 109.309C90.9923 109.262 90.6521 109.309 90.6484 109.266C90.9387 109.183 91.2417 109.153 91.5426 109.179C92.2719 109.206 92.988 109.382 93.6463 109.697C94.3046 110.012 94.8909 110.459 95.3689 111.011C95.5749 111.231 95.7414 111.484 95.8612 111.76Z" fill="#EB996E"/>
<path d="M97.9392 110.12C97.6818 109.849 97.4469 109.557 97.2369 109.248C96.973 108.982 96.7309 108.695 96.5129 108.39C97.1755 108.78 97.6774 109.394 97.9284 110.12H97.9392Z" fill="#EB996E"/>
<path d="M89.1064 118.533C89.2491 117.343 89.5173 116.171 89.9065 115.036C89.7638 116.227 89.4956 117.399 89.1064 118.533Z" fill="#EB996E"/>
<path d="M103.641 134.874L101.74 137.408L100.274 121.06L88.7299 124.38C88.7299 124.38 87.6439 150.165 88.0421 154.404C88.4693 159.03 88.5634 159.262 89.7363 161.372C91.2386 164.073 96.4695 165.955 99.456 165.166C102.5 164.359 105.646 160.304 108.035 157.875C112.379 153.455 119.203 144.905 119.203 144.905L103.641 134.874Z" fill="#FFBE9D"/>
<path d="M103.344 135.269C103.395 135.305 102.913 135.993 102.149 137.079C101.385 138.165 100.339 139.721 99.2533 141.462C98.1673 143.204 97.2623 144.822 96.6179 146.002C95.9735 147.182 95.5717 147.913 95.5319 147.888C95.4921 147.862 95.7853 147.084 96.3681 145.864C97.9067 142.697 99.765 139.695 101.914 136.905C102.739 135.851 103.304 135.236 103.344 135.269Z" fill="#EB996E"/>
<path d="M151.627 65.3193C150.498 64.1754 111.985 33.9122 111.985 33.9122L104.926 43.3242L139.852 74.4562C139.852 74.4562 152.764 66.4596 151.627 65.3193Z" fill="#FFBE9D"/>
<path d="M111.985 33.9121L107.018 25.0214L100.658 19.7073C100.324 19.9468 100.093 20.304 100.011 20.7071C99.93 21.1101 100.005 21.529 100.22 21.8793C100.793 22.766 101.498 23.5596 102.312 24.2323C102.312 24.2323 99.351 24.406 99.351 25.5391C99.351 25.5391 95.8649 26.4984 96.2993 28.7645C96.2993 28.7645 94.8187 31.6388 95.4269 32.4243C95.573 32.6076 95.7586 32.7556 95.9698 32.8574C96.181 32.9591 96.4124 33.0119 96.6468 33.0119C96.8813 33.0119 97.1127 32.9591 97.3239 32.8574C97.5351 32.7556 97.7206 32.6076 97.8668 32.4243C98.5654 31.6388 99.7854 31.2913 101.179 31.3782C102.573 31.465 104.318 33.818 104.144 35.9973C103.97 38.1765 102.747 39.1322 101.092 38.7847C99.4378 38.4371 97.979 36.2 96.7482 36.3737C95.5174 36.5475 95.7165 37.7747 96.3862 38.4697C97.0559 39.1648 100.368 42.9658 101.092 43.3169C101.816 43.668 104.318 43.23 104.926 43.3169C105.534 43.4038 111.985 33.9121 111.985 33.9121Z" fill="#FFBE9D"/>
<path d="M103.811 29.0903C103.633 28.7369 103.378 28.4277 103.065 28.1853C102.721 27.9353 102.327 27.7624 101.91 27.6785C101.396 27.5752 100.87 27.5363 100.346 27.5626C99.3866 27.5993 98.4392 27.7912 97.5409 28.131C96.8531 28.3952 96.4549 28.6269 96.4368 28.598C96.5149 28.5223 96.604 28.4589 96.701 28.4097C96.9549 28.2585 97.2185 28.1242 97.4902 28.0079C98.3934 27.6252 99.3588 27.4105 100.339 27.3744C100.88 27.347 101.421 27.3921 101.95 27.5083C102.387 27.6066 102.797 27.802 103.148 28.0803C103.383 28.2698 103.576 28.5066 103.713 28.7753C103.77 28.871 103.804 28.979 103.811 29.0903Z" fill="#EB996E"/>
<path d="M104.256 26.3789C103.524 26.0297 102.754 25.7649 101.961 25.5898C101.157 25.481 100.343 25.4664 99.5356 25.5463C99.7565 25.4429 99.9946 25.3815 100.238 25.3653C100.822 25.288 101.414 25.3014 101.994 25.4052C102.574 25.5056 103.134 25.6961 103.655 25.9699C103.879 26.0678 104.083 26.2065 104.256 26.3789Z" fill="#EB996E"/>
<path d="M106.066 26.2413C105.591 25.681 105.02 25.2102 104.379 24.8513C103.713 24.5449 102.997 24.3621 102.265 24.3119C102.478 24.2452 102.703 24.2267 102.924 24.2576C103.458 24.2973 103.98 24.4433 104.457 24.6869C104.934 24.9306 105.358 25.2671 105.704 25.6766C105.865 25.8359 105.988 26.0288 106.066 26.2413Z" fill="#EB996E"/>
<path d="M122.255 130.95C119.121 134.909 117.074 139.616 116.314 144.608C114.866 154.639 122.106 158.136 122.106 158.136L121.929 168.974H165.369C165.304 169.047 165.608 150.563 165.22 136.155C164.833 121.748 158.495 106.924 158.495 106.924C158.495 106.924 152.728 103.59 148.398 103.956C144.069 104.321 125.23 106.899 125.23 106.899L122.255 130.95Z" fill="#0075FF"/>
<path d="M125.23 106.899C125.23 106.899 117.99 107.945 111.279 118.483C104.339 129.375 101.722 133.553 101.722 133.553L120.908 146.795C120.908 146.795 131.804 130.367 133.165 126.845C134.527 123.323 136.069 106.566 125.23 106.899Z" fill="#0075FF"/>
<g opacity="0.2">
<path opacity="0.2" d="M116.126 148.659L121.686 150.129C121.686 150.129 132.492 135.804 132.908 127.724L121.053 146.118L119.185 144.905L116.126 148.659Z" fill="black"/>
</g>
<path d="M160.866 92.1326C160.866 92.1326 165.369 106.196 164.75 114.939C164.359 120.503 164.087 124.401 164.087 124.401L150.176 103.691L160.866 92.1326Z" fill="#0075FF"/>
<path d="M101.722 133.553C101.722 133.553 101.758 133.553 101.82 133.607L102.099 133.777L103.185 134.458L107.196 137.039L121.107 146.042L120.984 146.071L127.269 136.326C128.564 134.313 129.831 132.344 131.055 130.458L132.865 127.67C133.412 126.767 133.851 125.802 134.172 124.796C134.485 123.84 134.734 122.864 134.918 121.875C135.098 120.943 135.218 120.001 135.28 119.055C135.458 117.359 135.306 115.645 134.831 114.008C134.383 112.676 133.675 111.446 132.749 110.388C132.05 109.589 131.228 108.907 130.313 108.368C129.729 108.036 129.113 107.764 128.474 107.557L127.967 107.423L127.797 107.369C127.797 107.369 127.859 107.369 127.974 107.402L128.485 107.521C129.134 107.711 129.759 107.974 130.349 108.303C131.279 108.837 132.116 109.518 132.829 110.32C133.773 111.383 134.497 112.623 134.957 113.968C135.447 115.621 135.609 117.354 135.435 119.069C135.299 121.037 134.926 122.982 134.324 124.861C134.002 125.881 133.56 126.86 133.006 127.775L131.196 130.57L127.424 136.427L121.129 146.165L121.082 146.241L121.006 146.19L107.13 137.14L103.148 134.519L102.084 133.802L101.813 133.618C101.781 133.598 101.751 133.576 101.722 133.553Z" fill="#263238"/>
<path d="M163.541 120.112C163.553 120.147 163.562 120.183 163.566 120.22L163.617 120.539C163.66 120.832 163.718 121.241 163.794 121.759C163.95 122.823 164.156 124.361 164.359 126.269C164.562 128.177 164.79 130.45 164.992 132.981C165.195 135.511 165.354 138.295 165.47 141.22C165.702 147.073 165.691 152.38 165.622 156.214C165.59 158.132 165.546 159.685 165.503 160.757C165.481 161.285 165.467 161.698 165.452 161.991L165.434 162.314C165.439 162.35 165.439 162.386 165.434 162.422C165.429 162.386 165.429 162.35 165.434 162.314V161.991C165.434 161.695 165.434 161.267 165.434 160.757C165.434 159.671 165.47 158.122 165.492 156.214C165.528 152.377 165.517 147.077 165.286 141.227C165.17 138.306 165.003 135.522 164.822 132.995C164.641 130.468 164.431 128.191 164.229 126.284C164.026 124.376 163.867 122.834 163.725 121.77C163.664 121.248 163.617 120.836 163.584 120.542C163.584 120.412 163.559 120.307 163.552 120.224C163.544 120.187 163.54 120.149 163.541 120.112Z" fill="#263238"/>
<path d="M162.263 118.262C162.263 118.262 162.23 118.211 162.183 118.11C162.136 118.008 162.071 117.838 161.995 117.661C161.919 117.483 161.818 117.223 161.691 116.937C161.564 116.651 161.43 116.347 161.249 116.014C161.068 115.681 160.887 115.308 160.663 114.928C160.438 114.548 160.185 114.142 159.917 113.722C158.717 111.914 157.253 110.296 155.573 108.922C155.179 108.614 154.809 108.314 154.44 108.064C154.071 107.814 153.734 107.575 153.416 107.373C153.097 107.17 152.797 107.011 152.54 106.848C152.283 106.685 152.051 106.573 151.863 106.486L151.432 106.254C151.38 106.23 151.331 106.2 151.287 106.164C151.287 106.164 151.345 106.164 151.446 106.222L151.895 106.421C152.091 106.508 152.326 106.62 152.59 106.765C152.855 106.909 153.162 107.065 153.484 107.271C153.807 107.478 154.165 107.684 154.531 107.945C154.896 108.205 155.28 108.491 155.682 108.799C156.533 109.486 157.332 110.237 158.071 111.043C158.802 111.858 159.472 112.724 160.076 113.635C160.341 114.063 160.601 114.464 160.8 114.863C161 115.261 161.21 115.626 161.372 115.97C161.535 116.314 161.669 116.629 161.789 116.908C161.908 117.187 161.999 117.433 162.067 117.632L162.223 118.099C162.241 118.152 162.255 118.206 162.263 118.262Z" fill="#263238"/>
<path d="M127.399 135.75C127.399 135.75 127.37 135.652 127.283 135.489C127.151 135.251 126.963 135.049 126.736 134.899C126.372 134.67 125.966 134.516 125.542 134.447C125.046 134.345 124.456 134.364 123.822 134.295C123.482 134.262 123.146 134.189 122.823 134.078C122.465 133.952 122.147 133.732 121.904 133.44C121.653 133.121 121.493 132.739 121.44 132.336C121.387 131.917 121.396 131.493 121.469 131.077C121.607 130.226 121.965 129.397 122.081 128.496C122.149 128.043 122.113 127.581 121.976 127.145C121.82 126.702 121.561 126.302 121.219 125.98C120.529 125.341 119.663 124.923 118.732 124.781C117.86 124.651 116.979 124.59 116.097 124.597C115.288 124.602 114.481 124.53 113.686 124.383C112.986 124.257 112.32 123.984 111.731 123.583C111.256 123.24 110.881 122.777 110.645 122.24C110.459 121.837 110.371 121.395 110.388 120.951C110.401 120.672 110.469 120.398 110.587 120.144C110.619 120.079 110.656 120.016 110.696 119.956C110.721 119.916 110.736 119.894 110.739 119.898C110.568 120.223 110.472 120.584 110.461 120.951C110.457 121.382 110.553 121.808 110.739 122.197C110.982 122.711 111.357 123.152 111.825 123.475C112.404 123.855 113.055 124.112 113.737 124.231C114.523 124.368 115.321 124.432 116.119 124.423C117.01 124.411 117.901 124.47 118.783 124.6C119.75 124.747 120.652 125.179 121.371 125.842C121.733 126.188 122.007 126.615 122.171 127.087C122.321 127.555 122.359 128.051 122.28 128.535C122.157 129.473 121.791 130.302 121.657 131.124C121.523 131.945 121.578 132.789 122.045 133.361C122.512 133.933 123.239 134.103 123.855 134.179C124.47 134.255 125.071 134.251 125.578 134.364C126.014 134.442 126.429 134.61 126.798 134.856C127.028 135.017 127.213 135.235 127.334 135.489C127.369 135.572 127.391 135.66 127.399 135.75Z" fill="white"/>
<path d="M164.239 133.263C164.239 133.263 164.239 133.299 164.221 133.372C164.203 133.444 164.185 133.545 164.152 133.683C164.046 134.081 163.9 134.468 163.718 134.838C163.424 135.423 163.047 135.963 162.599 136.441C162.002 137.075 161.285 137.583 160.489 137.936C159.518 138.361 158.457 138.536 157.401 138.447C156.186 138.353 155.02 137.927 154.031 137.216C152.988 136.459 152.196 135.359 151.11 134.541C150.836 134.339 150.543 134.165 150.234 134.023C150.077 133.954 149.915 133.899 149.748 133.857L149.502 133.784L149.245 133.748C148.542 133.66 147.827 133.734 147.157 133.965C145.781 134.411 144.575 135.192 143.37 135.851C142.217 136.523 140.961 137 139.652 137.263C137.155 137.777 134.707 137.187 133.223 135.942C132.009 135.001 131.187 133.642 130.917 132.13C130.879 131.89 130.858 131.648 130.856 131.406C130.856 131.2 130.856 131.022 130.881 130.881C130.906 130.74 130.917 130.646 130.932 130.566C130.934 130.529 130.942 130.493 130.953 130.458C130.886 131.005 130.899 131.56 130.99 132.105C131.28 133.588 132.103 134.914 133.303 135.833C134.769 137.039 137.162 137.603 139.62 137.089C140.908 136.825 142.145 136.35 143.28 135.685C144.481 135.03 145.69 134.237 147.102 133.781C147.8 133.542 148.543 133.466 149.274 133.56L149.542 133.6L149.806 133.672C149.979 133.719 150.149 133.778 150.313 133.849C150.634 133.997 150.939 134.178 151.222 134.389C152.337 135.236 153.126 136.336 154.14 137.071C155.1 137.77 156.235 138.191 157.419 138.288C158.45 138.379 159.488 138.216 160.442 137.813C161.225 137.471 161.933 136.979 162.527 136.365C163.265 135.606 163.811 134.681 164.12 133.668L164.207 133.361C164.212 133.327 164.223 133.294 164.239 133.263Z" fill="white"/>
<path d="M163.624 106.79C163.58 106.309 163.47 105.837 163.298 105.385C163.097 104.905 162.812 104.465 162.455 104.086C162.024 103.616 161.491 103.251 160.898 103.018C159.628 102.442 158.343 103.065 157.423 102.736C157.063 102.633 156.754 102.399 156.558 102.08C156.509 101.993 156.476 101.897 156.46 101.798C156.455 101.763 156.455 101.728 156.46 101.693C156.506 101.818 156.562 101.939 156.627 102.055C156.83 102.338 157.128 102.54 157.467 102.623C157.978 102.72 158.504 102.72 159.016 102.623C159.164 102.605 159.32 102.594 159.479 102.587C159.639 102.58 159.805 102.587 159.972 102.587C160.315 102.624 160.651 102.708 160.971 102.837C161.589 103.079 162.143 103.464 162.585 103.959C162.949 104.359 163.234 104.825 163.425 105.331C163.554 105.67 163.63 106.026 163.649 106.388C163.661 106.523 163.652 106.658 163.624 106.79Z" fill="white"/>
<path d="M164.992 159.642C164.976 159.68 164.955 159.717 164.931 159.751C164.88 159.827 164.819 159.932 164.735 160.058C164.484 160.455 164.195 160.827 163.874 161.17C162.672 162.429 161.157 163.345 159.483 163.823C158.331 164.158 157.129 164.288 155.931 164.207C154.557 164.108 153.224 163.689 152.04 162.983C150.787 162.259 149.644 161.242 148.355 160.362C147.702 159.902 146.994 159.527 146.248 159.244C145.49 158.958 144.674 158.858 143.87 158.954C143.065 159.065 142.287 159.321 141.575 159.711C140.88 160.092 140.21 160.518 139.569 160.985C138.295 161.89 137.06 162.795 135.692 163.331C134.41 163.833 133.047 164.092 131.67 164.095C130.473 164.1 129.281 163.93 128.133 163.588C127.191 163.296 126.285 162.894 125.437 162.39C125.075 162.158 124.738 161.926 124.437 161.709C124.137 161.492 123.884 161.26 123.663 161.047L123.091 160.471C122.932 160.297 122.816 160.134 122.729 160.011L122.504 159.722C122.454 159.657 122.428 159.624 122.432 159.62C122.464 159.648 122.493 159.678 122.519 159.711L122.758 159.986C122.863 160.105 122.986 160.265 123.145 160.431C123.304 160.598 123.507 160.793 123.724 160.996C123.942 161.199 124.22 161.401 124.506 161.637C124.792 161.872 125.14 162.075 125.505 162.299C126.351 162.787 127.25 163.177 128.184 163.461C129.321 163.788 130.499 163.949 131.681 163.939C133.038 163.93 134.382 163.669 135.645 163.172C136.981 162.654 138.201 161.742 139.475 160.833C140.123 160.362 140.8 159.931 141.502 159.544C142.236 159.145 143.035 158.881 143.862 158.766C144.695 158.668 145.539 158.771 146.324 159.066C147.075 159.358 147.788 159.741 148.445 160.207C149.741 161.101 150.882 162.104 152.116 162.835C153.281 163.532 154.592 163.946 155.946 164.044C157.125 164.128 158.31 164.005 159.446 163.682C161.104 163.219 162.611 162.33 163.819 161.105C164.143 160.768 164.439 160.404 164.703 160.019C164.793 159.895 164.862 159.798 164.913 159.722C164.937 159.693 164.964 159.667 164.992 159.642Z" fill="white"/>
<path d="M160.424 85.6962C159.519 81.088 157.615 76.744 156.167 72.2588C154.476 67.0496 153.166 61.2757 148.963 57.7788C146.19 55.4584 142.548 54.5027 139.008 53.7968C135.797 53.1452 132.474 52.6384 129.267 53.3045C127.666 53.6375 126.135 54.2565 124.561 54.6403C122.718 55.0855 120.774 55.2231 119.051 56.0159C115.489 57.6557 113.668 61.7246 113.136 65.6089C112.604 69.4931 113.042 73.4606 112.484 77.3449C112.176 79.2015 111.77 81.0406 111.268 82.8545C109.624 86.3985 107.825 89.9425 108.082 93.7399C108.271 96.4875 109.53 99.0323 110.138 101.704C110.747 104.375 110.5 107.615 108.328 109.306C108.875 109.812 109.553 110.153 110.285 110.29C111.017 110.428 111.773 110.355 112.466 110.082C113.158 109.808 113.76 109.345 114.2 108.744C114.641 108.144 114.903 107.431 114.957 106.689C115.237 107.075 115.611 107.385 116.043 107.59C117.129 108.086 118.392 107.985 119.587 107.869C123.037 107.539 126.62 107.145 129.621 105.469L146.519 104.021C150.863 105.787 156.138 103.34 158.646 99.3581C161.155 95.3761 161.333 90.3117 160.424 85.6962Z" fill="#263238"/>
<path d="M126.161 56.881C124.524 57.2105 122.801 56.9679 121.194 57.4204C118.87 58.0756 117.143 60.1209 116.253 62.369C115.362 64.617 115.185 67.075 115.018 69.4823L114.562 75.9621C114.514 77.3541 114.319 78.7372 113.983 80.0889C113.559 81.5839 112.397 85.5551 112.321 87.499C112.075 93.8159 114.334 98.9491 117.15 102.142C118.642 103.829 125.581 103.872 127.79 104.314C128.763 103.463 131.192 103.47 132.166 102.62C132.333 102.475 125.107 96.9508 125.19 96.7481C125.288 96.398 125.253 96.0244 125.093 95.6983C120.831 83.0745 121.609 69.2924 127.265 57.2286" fill="#263238"/>
<path d="M145.716 106.341L148.25 66.6334C148.268 65.8007 147.973 64.9917 147.423 64.3658C146.874 63.7399 146.109 63.3426 145.282 63.2523L127.638 58.7526C121.987 58.1445 118.226 65.0949 117.864 70.7638C117.451 77.0662 117.198 84.7732 117.936 89.4756C119.417 98.931 126.66 100.151 126.66 100.151L127.287 106.841C127.287 106.841 131.826 106.214 135.218 105.849C142.715 105.042 145.716 106.341 145.716 106.341Z" fill="#FFBE9D"/>
<path d="M120.387 78.6119C120.383 78.928 120.502 79.2332 120.72 79.4625C120.938 79.6917 121.237 79.8268 121.552 79.8391C121.706 79.8514 121.861 79.8329 122.008 79.7848C122.154 79.7367 122.29 79.6598 122.406 79.5587C122.523 79.4576 122.618 79.3343 122.687 79.196C122.755 79.0577 122.795 78.9071 122.805 78.7531C122.808 78.4376 122.688 78.1333 122.47 77.9048C122.253 77.6764 121.955 77.5418 121.639 77.5295C121.486 77.5162 121.331 77.5338 121.184 77.5813C121.037 77.6289 120.901 77.7053 120.785 77.8062C120.668 77.9071 120.572 78.0304 120.504 78.1688C120.436 78.3072 120.396 78.4578 120.387 78.6119Z" fill="#263238"/>
<path d="M120.05 75.0498C120.202 75.2091 121.136 74.5322 122.425 74.5358C123.714 74.5394 124.684 75.1982 124.829 75.039C124.897 74.9666 124.745 74.677 124.329 74.3765C123.764 73.9858 123.094 73.7774 122.407 73.7792C121.728 73.7745 121.066 73.9876 120.517 74.3874C120.115 74.6951 119.978 74.9774 120.05 75.0498Z" fill="#263238"/>
<path d="M131.656 78.6119C131.653 78.9278 131.773 79.2325 131.99 79.4615C132.208 79.6905 132.506 79.826 132.821 79.8391C132.975 79.8514 133.13 79.833 133.277 79.7848C133.423 79.7367 133.559 79.6598 133.675 79.5587C133.792 79.4577 133.887 79.3343 133.956 79.196C134.024 79.0577 134.064 78.9071 134.074 78.7531C134.077 78.4376 133.957 78.1333 133.739 77.9048C133.522 77.6764 133.224 77.5418 132.908 77.5295C132.755 77.5167 132.6 77.5347 132.453 77.5824C132.307 77.6301 132.171 77.7066 132.055 77.8074C131.938 77.9082 131.843 78.0313 131.774 78.1695C131.706 78.3076 131.665 78.458 131.656 78.6119Z" fill="#263238"/>
<path d="M132.876 75.0498C133.024 75.2091 133.962 74.5322 135.25 74.5358C136.539 74.5394 137.509 75.1983 137.651 75.039C137.719 74.9666 137.571 74.677 137.151 74.3765C136.587 73.9852 135.916 73.7767 135.229 73.7792C134.55 73.7758 133.888 73.9888 133.339 74.3874C132.937 74.6915 132.8 74.9774 132.876 75.0498Z" fill="#263238"/>
<path d="M128.119 84.708C128.119 84.632 127.315 84.4908 126.001 84.3206C125.668 84.2844 125.353 84.2193 125.295 83.9912C125.269 83.6467 125.347 83.3021 125.52 83.003L126.512 80.469C127.887 76.849 128.886 73.8914 128.738 73.8371C128.59 73.7828 127.359 76.6643 125.983 80.2735C125.654 81.164 125.335 82.0147 125.035 82.8075C124.908 83.1695 124.673 83.6147 124.857 84.1143C124.905 84.2319 124.98 84.3371 125.074 84.4217C125.169 84.5064 125.282 84.5684 125.404 84.603C125.59 84.6618 125.782 84.6971 125.976 84.708C127.294 84.7804 128.112 84.7876 128.119 84.708Z" fill="#263238"/>
<path d="M126.642 100.151C126.642 100.151 133.542 100.574 139.851 96.8024C139.851 96.8024 136.38 103.995 126.921 103.09L126.642 100.151Z" fill="#EB996E"/>
<path d="M132.517 87.47C132.309 87.2094 132.05 86.9934 131.757 86.8348C131.463 86.6762 131.141 86.5783 130.809 86.5469C130.351 86.4943 129.887 86.5591 129.461 86.7351C129.034 86.9112 128.66 87.1927 128.373 87.5533L128.307 87.6004C128.252 87.6833 128.222 87.781 128.222 87.8809C128.222 87.9808 128.252 88.0785 128.307 88.1615C128.421 88.3361 128.567 88.4873 128.738 88.6067C129.296 89.1158 129.949 89.5084 130.66 89.7615C131.384 89.9679 132.228 89.8375 132.637 89.2656C132.804 88.9902 132.882 88.6702 132.86 88.349C132.839 88.0277 132.719 87.7208 132.517 87.47Z" fill="#EB996E"/>
<path d="M131.956 85.6275C131.743 85.6275 131.739 87.0284 130.508 88.0312C129.277 89.0339 127.786 88.8746 127.775 89.0737C127.757 89.1606 128.112 89.3488 128.749 89.3669C129.578 89.3813 130.386 89.1017 131.029 88.5778C131.647 88.0748 132.045 87.3521 132.141 86.5615C132.21 85.9678 132.054 85.6166 131.956 85.6275Z" fill="#263238"/>
<path d="M132.076 70.3873C132.206 70.7493 133.524 70.5755 135.037 70.7493C136.55 70.9231 137.806 71.3575 138.009 71.0425C138.099 70.8905 137.886 70.5538 137.386 70.2099C136.725 69.7803 135.97 69.5148 135.185 69.4352C134.403 69.3363 133.608 69.4282 132.868 69.7031C132.304 69.942 132.021 70.228 132.076 70.3873Z" fill="#263238"/>
<path d="M120.032 70.8977C120.26 71.1945 121.161 70.8977 122.24 70.8977C123.319 70.8977 124.235 71.1004 124.448 70.7891C124.539 70.6407 124.398 70.3438 123.996 70.0651C123.46 69.7285 122.836 69.5585 122.203 69.5765C121.57 69.5945 120.957 69.7999 120.441 70.1665C120.057 70.4488 119.931 70.7529 120.032 70.8977Z" fill="#263238"/>
<path d="M124.984 58.1191C125.129 57.5729 125.474 57.1011 125.951 56.7978C128.796 54.5788 132.648 53.9018 136.217 54.4521C139.786 55.0023 143.095 56.6675 146.063 58.7237C148.644 60.5156 151.081 62.7057 152.391 65.5582C153.314 67.5746 153.626 69.8081 153.926 72.0091C154.672 77.4572 156.134 82.9161 156.098 88.4149C156.076 90.558 156.46 94.1599 156.098 96.8025C155.707 99.6225 152.97 103.061 150.194 103.68L143.935 104.307C143.935 104.307 147.323 92.6178 147.063 88.4041C146.831 84.7117 146.863 80.6645 146.447 76.9902C146.457 76.6568 146.356 76.3297 146.159 76.0603C145.962 75.7909 145.682 75.5947 145.361 75.5024L141.452 73.5041C140.188 72.8865 138.959 72.2001 137.77 71.448C136.449 70.5756 135.279 69.9312 134.078 68.914C132.387 67.466 130.82 66.3112 129.144 64.8632C127.968 63.7663 126.932 62.5286 126.059 61.178C125.292 60.016 124.861 58.5572 125.219 57.196" fill="#263238"/>
<path d="M145.984 79.5785C146.085 77.5657 148.275 76.2263 150.02 77.2327C150.976 77.7866 151.711 78.8979 151.62 81.0337C151.388 86.728 145.719 85.3198 145.716 85.1533C145.712 85.07 145.886 81.9351 145.984 79.5785Z" fill="#FFBE9D"/>
<path d="M147.544 83.0681C147.569 83.05 147.642 83.1442 147.805 83.2274C148.037 83.3376 148.303 83.3531 148.547 83.2709C149.155 83.0754 149.702 82.1414 149.77 81.117C149.808 80.6241 149.733 80.1292 149.553 79.669C149.507 79.4879 149.417 79.3211 149.29 79.1834C149.164 79.0458 149.006 78.9414 148.829 78.8798C148.717 78.8444 148.596 78.8497 148.487 78.8947C148.379 78.9398 148.29 79.0216 148.235 79.126C148.152 79.2816 148.181 79.3975 148.152 79.4047C148.123 79.4119 148.033 79.307 148.091 79.0717C148.123 78.9257 148.208 78.7969 148.33 78.7097C148.492 78.599 148.69 78.555 148.883 78.5866C149.115 78.6436 149.328 78.7585 149.503 78.9207C149.678 79.0828 149.808 79.2867 149.883 79.5133C150.104 80.0162 150.199 80.5653 150.161 81.1133C150.078 82.2609 149.437 83.3107 148.612 83.5134C148.457 83.55 148.296 83.5521 148.14 83.5195C147.985 83.487 147.838 83.4207 147.711 83.3252C147.548 83.2057 147.522 83.079 147.544 83.0681Z" fill="#EB996E"/>
<path d="M155.432 70.6153C155.367 70.6986 154.118 69.3519 151.486 68.1935C149.941 67.5325 148.344 66.9998 146.711 66.6007C144.872 66.1084 142.816 65.6704 140.699 65.0116C137.071 63.8893 133.681 62.1074 130.7 59.7553C129.8 59.0472 128.946 58.2818 128.144 57.4639C127.833 57.1814 127.556 56.8631 127.319 56.5154C127.658 56.7618 127.977 57.0354 128.271 57.3336C128.868 57.8729 129.755 58.6295 130.903 59.5056C133.903 61.7475 137.263 63.4614 140.84 64.5736C142.929 65.2215 144.981 65.6596 146.824 66.1953C148.472 66.6173 150.079 67.1893 151.624 67.9039C152.662 68.3909 153.635 69.0063 154.52 69.7357C154.761 69.9342 154.99 70.1482 155.204 70.3764C155.37 70.5176 155.443 70.59 155.432 70.6153Z" fill="#455A64"/>
<path d="M147.164 86.3659C147.139 86.2537 147.117 86.1451 147.088 86.0329L147.164 86.3659Z" fill="#263238"/>
<path d="M147.164 86.3659C147.805 89.5877 145.977 93.1679 142.957 94.4892C141.216 95.253 139.138 95.3616 137.723 96.6286C136.307 97.8956 135.982 99.8866 135.323 101.653C134.664 103.42 132.401 106.471 130.544 106.196C136.774 107.087 143.453 107.956 150.57 105.675L155.493 102.71L147.164 86.3659Z" fill="#263238"/>
<path d="M151.617 104.021C151.698 103.82 151.797 103.627 151.913 103.445L152.811 101.831C153.897 99.8473 154.819 97.7782 155.566 95.644C156.695 92.4891 157.182 89.1399 156.996 85.794C156.761 82.0654 155.418 77.9024 152.398 74.7603C149.379 71.6181 145.524 69.7828 142.121 68.1972C138.718 66.6116 135.511 65.2541 133.071 63.7084C131.105 62.5393 129.341 61.0615 127.844 59.3318C127.445 58.8598 127.083 58.3588 126.758 57.8331C126.633 57.6573 126.527 57.4693 126.439 57.272C126.483 57.2431 126.932 57.996 127.992 59.2124C129.523 60.8748 131.298 62.2944 133.256 63.4224C135.699 64.9175 138.834 66.2677 142.306 67.8062C145.777 69.3447 149.636 71.2163 152.742 74.4453C155.848 77.6744 157.22 81.9713 157.448 85.7723C157.615 89.1698 157.088 92.5657 155.899 95.7526C155.122 97.8875 154.153 99.9473 153.003 101.907C152.598 102.602 152.261 103.13 152.026 103.481C151.911 103.676 151.773 103.858 151.617 104.021Z" fill="#455A64"/>
</svg>
