<svg width="188" height="188" viewBox="0 0 188 188" fill="none" xmlns="http://www.w3.org/2000/svg">
<path d="M24.7747 148.941C26.3527 148.201 28.1261 147.985 29.8357 148.324C30.7531 148.479 31.7157 148.753 32.3361 149.453C32.9565 150.152 33.0881 151.355 32.3624 151.949C31.9001 152.262 31.3426 152.403 30.7869 152.348C29.4484 152.348 27.9632 152.096 26.8953 152.9C26.2862 153.363 25.8801 154.126 25.1507 154.352C24.788 154.432 24.4092 154.393 24.0705 154.24C23.7318 154.088 23.4513 153.83 23.2707 153.506C22.9228 152.836 22.8447 152.058 23.0526 151.333C23.1368 150.828 23.3359 150.35 23.6345 149.936C23.9331 149.521 24.3233 149.181 24.7747 148.941V148.941Z" fill="#EBEBEB"/>
<path d="M21.2479 142.128C22.1917 143.474 24.019 143.027 24.8688 142.207C25.7185 141.387 26.0757 140.199 26.3991 139.064C27.1511 136.473 27.9031 133.755 27.3429 131.115C27.2068 130.319 26.8528 129.575 26.3201 128.968C26.0553 128.662 25.7147 128.432 25.3325 128.3C24.9503 128.168 24.5401 128.139 24.1431 128.216C23.2219 128.46 22.6391 129.344 22.233 130.224C21.0106 132.76 20.3684 135.537 20.353 138.353C20.353 139.661 20.5034 141.038 21.2404 142.113" fill="#EBEBEB"/>
<path d="M18.6647 144.061C19.6874 142.85 19.8792 141.079 19.4167 139.549C18.9015 138.039 17.9789 136.701 16.7508 135.683C15.3576 134.444 13.7372 133.486 11.9794 132.863C11.2987 132.587 10.5667 132.458 9.83244 132.487C9.46555 132.508 9.10935 132.619 8.79481 132.809C8.48027 132.999 8.21691 133.263 8.02764 133.578C7.52756 134.537 8.00884 135.698 8.53148 136.65C9.44584 138.327 10.4906 139.93 11.656 141.444C12.596 142.658 13.6752 143.854 15.1077 144.399C16.5403 144.944 18.048 144.884 18.8 143.891" fill="#EBEBEB"/>
<path d="M21.1838 162.409C21.2367 162.21 21.2658 162.006 21.2703 161.8C21.3154 161.357 21.3681 160.796 21.432 160.135C21.5156 159.313 21.6411 158.496 21.808 157.687C22.0266 156.703 22.3233 155.739 22.6954 154.803C23.062 153.867 23.5581 152.988 24.1693 152.19C24.6729 151.54 25.3152 151.011 26.0493 150.641C26.5429 150.396 27.0721 150.231 27.6172 150.152C27.8229 150.146 28.0272 150.117 28.2263 150.065C28.0201 150.043 27.8121 150.043 27.6059 150.065C27.0312 150.102 26.468 150.244 25.944 150.483C25.1769 150.844 24.5038 151.378 23.9775 152.043C23.3399 152.852 22.8255 153.75 22.451 154.709C22.0718 155.659 21.7761 156.64 21.5674 157.642C21.4106 158.459 21.3026 159.285 21.244 160.116C21.1914 160.823 21.1726 161.398 21.1613 161.793C21.1493 161.999 21.1568 162.205 21.1838 162.409Z" fill="#E0E0E0"/>
<path d="M21.3004 161.127C21.3117 161.034 21.3117 160.939 21.3004 160.845V160.033C21.3004 159.33 21.3004 158.311 21.3342 157.055C21.3982 154.544 21.6125 151.836 22.0336 148.031C22.4096 144.444 22.9586 140.271 23.5376 137.556C23.6579 136.939 23.782 136.383 23.8948 135.898C24.0076 135.413 24.0978 134.988 24.1843 134.649C24.2708 134.311 24.3234 134.067 24.3761 133.86C24.4033 133.769 24.4197 133.676 24.425 133.582C24.3819 133.665 24.3491 133.753 24.3272 133.845C24.2633 134.052 24.1881 134.307 24.0903 134.623C23.9926 134.939 23.8798 135.375 23.7557 135.864C23.6316 136.353 23.4962 136.902 23.3797 137.518C22.6816 140.725 22.1569 143.967 21.808 147.23C21.3906 151.051 21.1989 154.532 21.1838 157.051C21.1838 158.311 21.1838 159.334 21.229 160.037C21.229 160.364 21.2628 160.635 21.2778 160.845C21.2756 160.94 21.2831 161.034 21.3004 161.127V161.127Z" fill="#E0E0E0"/>
<path d="M21.3155 154.416C21.3385 154.134 21.3385 153.851 21.3155 153.57C21.2678 152.801 21.1812 152.036 21.0561 151.276C20.8678 150.149 20.6167 149.033 20.3041 147.933C19.9378 146.582 19.4703 145.259 18.9054 143.978C17.9356 141.616 16.5443 139.45 14.7995 137.586C14.498 137.266 14.1752 136.967 13.8331 136.691C13.6865 136.563 13.5549 136.439 13.4233 136.341L13.0473 136.082C12.8225 135.912 12.5849 135.76 12.3367 135.627C13.1547 136.273 13.932 136.968 14.6641 137.71C16.3488 139.591 17.7016 141.745 18.6647 144.079C19.2216 145.352 19.6915 146.661 20.071 147.997C20.3915 149.086 20.6563 150.19 20.8644 151.306C21.0411 152.257 21.1426 153.036 21.2027 153.562C21.2196 153.849 21.2573 154.134 21.3155 154.416V154.416Z" fill="#E0E0E0"/>
<path d="M14.8296 166.256L15.5026 175.472H27.3391L28.0122 166.256H14.8296Z" fill="#E0E0E0"/>
<path d="M29.4259 162.624H13.6865V166.256H29.4259V162.624Z" fill="#E0E0E0"/>
<path d="M13.6865 175.118V176.126H14.4272H29.1664V175.118H13.6865Z" fill="#EBEBEB"/>
<path d="M15.1492 177.897L14.4272 176.126H28.6024L27.7564 177.897H15.1492Z" fill="#E0E0E0"/>
<path d="M27.794 169.268L27.7376 169.354C27.6887 169.414 27.6323 169.493 27.5609 169.587L26.8728 170.471L26.839 170.508L26.8089 170.467L25.1169 168.125H25.2146L23.5452 170.486L23.4926 170.561L23.4362 170.49C22.8195 169.76 22.1502 168.963 21.4584 168.136H21.5712L21.4622 168.271L19.695 170.49L19.6348 170.565L19.5784 170.486C18.9806 169.636 18.4166 168.843 17.909 168.125H18.0067L15.9538 170.463L15.9162 170.505L15.8898 170.46C15.6154 170.005 15.401 169.64 15.2431 169.377L15.0777 169.091C15.0587 169.059 15.0423 169.025 15.0288 168.989C15.0288 168.989 15.0551 169.016 15.0965 169.08L15.2807 169.354L15.9575 170.418H15.8936L17.9127 168.049L17.9654 167.989L18.0105 168.053L19.695 170.403H19.5822L21.3456 168.181L21.4546 168.046L21.511 167.974L21.5712 168.042L23.5414 170.399H23.4324C24.0415 169.55 24.6055 168.756 25.1169 168.049L25.1658 167.978L25.2146 168.049L26.8728 170.418H26.8126L27.5308 169.576L27.7226 169.354C27.7677 169.29 27.7902 169.264 27.794 169.268Z" fill="#F5F5F5"/>
<path d="M28.1775 166.192C28.1775 166.233 25.2108 166.267 21.5524 166.267C17.8939 166.267 14.9272 166.233 14.9272 166.192C14.9272 166.151 17.8939 166.117 21.5524 166.117C25.2108 166.117 28.1775 166.154 28.1775 166.192Z" fill="#F5F5F5"/>
<path d="M28.7753 176.224C28.7753 176.265 25.553 176.299 21.5749 176.299C17.5968 176.299 14.3745 176.265 14.3745 176.224C14.3745 176.182 17.5968 176.152 21.5749 176.152C25.553 176.152 28.7753 176.182 28.7753 176.224Z" fill="#F5F5F5"/>
<path d="M158.585 20.8229H10.8965V109.213H158.585V20.8229Z" fill="#F5F5F5"/>
<path d="M164.459 145.181H131.205V177.355H164.459V145.181Z" fill="#F5F5F5"/>
<path d="M133.785 174.599L142.982 158.044L150.505 168.625L155.078 163.007L161.879 174.599H133.785Z" fill="#E0E0E0"/>
<path d="M153.713 154.826C153.713 155.299 153.572 155.762 153.309 156.156C153.046 156.55 152.672 156.857 152.234 157.038C151.796 157.22 151.315 157.267 150.85 157.175C150.386 157.082 149.959 156.854 149.624 156.519C149.289 156.184 149.061 155.757 148.968 155.293C148.876 154.828 148.923 154.347 149.105 153.909C149.286 153.471 149.593 153.097 149.987 152.834C150.381 152.571 150.844 152.43 151.317 152.43C151.953 152.43 152.562 152.683 153.011 153.132C153.46 153.581 153.713 154.19 153.713 154.826Z" fill="#E0E0E0"/>
<g opacity="0.3">
<path opacity="0.3" d="M161.879 174.69C161.879 174.69 161.879 174.641 161.879 174.558C161.879 174.475 161.879 174.34 161.879 174.182C161.879 173.84 161.879 173.358 161.879 172.734C161.879 171.46 161.861 169.614 161.846 167.271C161.827 162.571 161.804 155.878 161.774 147.843L161.909 147.982L133.815 148.005C133.777 148.035 134.112 147.704 133.973 147.851V151.487C133.973 152.69 133.973 153.885 133.973 155.066C133.973 157.431 133.973 159.747 133.973 162C133.973 166.512 133.973 170.768 133.973 174.686L133.837 174.547L154.141 174.618L159.872 174.652L161.376 174.671H161.77C161.815 174.668 161.861 174.668 161.906 174.671C161.866 174.674 161.825 174.674 161.785 174.671H161.409H159.905L154.205 174.708L133.803 174.78H133.664V174.641C133.664 170.723 133.664 166.463 133.664 161.954C133.664 159.698 133.664 157.386 133.664 155.021V147.854L133.826 147.689L161.921 147.712H162.06V147.847C162.03 155.92 162.007 162.639 161.988 167.361C161.988 169.689 161.962 171.524 161.955 172.794C161.955 173.404 161.955 173.881 161.936 174.216C161.936 174.366 161.936 174.483 161.936 174.592C161.922 174.627 161.903 174.66 161.879 174.69V174.69Z" fill="#E0E0E0"/>
</g>
<path d="M166.162 29.9145H16.8335V114.804H166.162V29.9145Z" fill="#E0E0E0"/>
<path d="M183.533 177.506C183.533 177.562 144.286 177.604 95.8837 177.604C47.4812 177.604 8.22681 177.562 8.22681 177.506C8.22681 177.449 47.4662 177.408 95.8837 177.408C144.301 177.408 183.533 177.472 183.533 177.506Z" fill="#263238"/>
<path d="M163.372 146.204C163.908 146.452 164.388 146.805 164.785 147.243C165.181 147.681 165.484 148.195 165.677 148.753C166.055 149.874 166.172 151.066 166.019 152.239C165.79 154.495 164.515 156.807 163.169 158.631C161.24 156.991 160.766 154.092 160.62 152.615C160.386 150.268 161.39 145.884 163.372 146.223" fill="#0075FF"/>
<path d="M165.44 162.342C165.304 161.696 165.34 161.027 165.545 160.4C165.749 159.773 166.115 159.211 166.606 158.77C167.105 158.339 167.686 158.012 168.314 157.808C168.941 157.604 169.603 157.527 170.26 157.582C170.866 157.619 171.524 157.788 171.877 158.285C172.029 158.526 172.114 158.804 172.122 159.089C172.13 159.374 172.061 159.656 171.922 159.905C171.64 160.404 171.23 160.818 170.734 161.105C169.095 162.161 167.316 162.879 165.44 162.342" fill="#0075FF"/>
<path d="M162.24 163.658C161.954 162.296 161.348 161.021 160.471 159.94C159.594 158.859 158.472 158.003 157.198 157.443C156.548 157.164 155.694 157.003 155.205 157.495C154.716 157.988 154.852 158.837 155.138 159.488C155.754 160.83 156.754 161.96 158.011 162.736C159.268 163.511 160.726 163.897 162.203 163.846" fill="#0075FF"/>
<path d="M162.827 169.452C162.836 169.292 162.86 169.134 162.898 168.978C162.951 168.677 163.037 168.226 163.158 167.704C163.444 166.296 163.913 164.932 164.553 163.647C165.208 162.354 166.197 161.259 167.418 160.477C167.789 160.248 168.187 160.065 168.602 159.932C168.714 159.894 168.828 159.862 168.944 159.838C168.984 159.825 169.026 159.817 169.068 159.815C168.512 160.009 167.978 160.261 167.474 160.567C166.292 161.362 165.332 162.447 164.688 163.718C164.054 164.994 163.574 166.34 163.259 167.73L162.955 168.989C162.921 169.146 162.878 169.3 162.827 169.452Z" fill="#263238"/>
<path d="M162.902 149.61C162.92 149.677 162.928 149.745 162.928 149.814C162.928 149.96 162.951 150.156 162.966 150.396C163 150.904 163.037 151.637 163.075 152.543C163.154 154.356 163.229 156.864 163.252 159.635C163.274 162.406 163.252 164.899 163.184 166.726C163.158 167.636 163.131 168.369 163.109 168.877C163.109 169.117 163.086 169.313 163.079 169.46C163.076 169.528 163.068 169.596 163.056 169.663C163.051 169.595 163.051 169.527 163.056 169.46C163.056 169.309 163.056 169.117 163.056 168.873C163.056 168.35 163.075 167.621 163.086 166.726C163.109 164.91 163.131 162.406 163.109 159.635C163.086 156.864 163.03 154.371 162.977 152.547C162.951 151.652 162.932 150.923 162.917 150.4C162.917 150.156 162.917 149.964 162.917 149.814C162.905 149.746 162.9 149.678 162.902 149.61V149.61Z" fill="#263238"/>
<path d="M157.623 159.548C157.767 159.597 157.907 159.658 158.04 159.732C158.204 159.804 158.363 159.888 158.514 159.984C158.72 160.099 158.92 160.224 159.112 160.36L159.447 160.601C159.563 160.687 159.676 160.789 159.793 160.887C160.037 161.082 160.266 161.319 160.518 161.563C161.035 162.118 161.493 162.724 161.887 163.372C162.266 164.027 162.574 164.72 162.808 165.44C162.909 165.755 162.992 166.075 163.056 166.399C163.083 166.549 163.12 166.696 163.139 166.839C163.158 166.982 163.173 167.117 163.192 167.249C163.229 167.512 163.229 167.749 163.24 167.959C163.252 168.138 163.252 168.318 163.24 168.497C163.239 168.649 163.226 168.801 163.203 168.952C163.165 168.952 163.225 168.298 163.094 167.264C163.075 167.132 163.052 166.997 163.034 166.858C163.015 166.718 162.973 166.576 162.94 166.425C162.883 166.124 162.782 165.812 162.684 165.481C162.222 164.056 161.452 162.751 160.428 161.657C160.184 161.413 159.962 161.172 159.725 160.977C159.608 160.879 159.499 160.778 159.386 160.691L159.063 160.443C158.206 159.838 157.604 159.578 157.623 159.548Z" fill="#263238"/>
<path d="M166.73 177.506H159.823L158.413 167.384H168.046L166.73 177.506Z" fill="#263238"/>
<path d="M167.425 172.05C167.425 172.103 165.545 172.148 163.259 172.148C160.973 172.148 159.093 172.103 159.093 172.05C159.093 171.998 160.973 171.952 163.259 171.952C165.545 171.952 167.425 171.998 167.425 172.05Z" fill="#FAFAFA"/>
<path d="M167.425 172.652C167.425 172.704 165.545 172.749 163.259 172.749C160.973 172.749 159.093 172.704 159.093 172.652C159.093 172.599 160.973 172.554 163.259 172.554C165.545 172.554 167.425 172.584 167.425 172.652Z" fill="#FAFAFA"/>
<path d="M146.11 177.472L93.4399 177.494C93.3344 177.495 93.2299 177.475 93.1323 177.435C93.0347 177.395 92.9459 177.336 92.8712 177.261C92.7964 177.187 92.7371 177.098 92.6966 177.001C92.6561 176.903 92.6353 176.799 92.6353 176.694V144.88C92.6353 144.775 92.6561 144.67 92.6966 144.573C92.7371 144.475 92.7964 144.387 92.8712 144.313C92.9459 144.238 93.0347 144.179 93.1323 144.139C93.2299 144.099 93.3344 144.079 93.4399 144.079L146.11 144.053C146.323 144.054 146.526 144.139 146.677 144.29C146.827 144.441 146.911 144.645 146.911 144.858V176.667C146.911 176.88 146.827 177.084 146.677 177.235C146.526 177.386 146.323 177.471 146.11 177.472Z" fill="#263238"/>
<path d="M120.331 157.424L124.787 159.819L120.512 162.635L116.233 165.455L116.056 160.24L115.876 155.025L120.331 157.424Z" fill="white"/>
<path d="M142.989 174.144C142.989 174.201 132.593 174.25 119.771 174.253C106.95 174.257 96.5532 174.22 96.5532 174.167C96.5532 174.114 106.946 174.065 119.771 174.058C132.597 174.05 142.989 174.088 142.989 174.144Z" fill="white"/>
<path d="M97.3841 174.167C97.3841 174.283 97.3497 174.396 97.2852 174.493C97.2208 174.589 97.1292 174.664 97.022 174.709C96.9148 174.753 96.7969 174.765 96.6831 174.742C96.5693 174.72 96.4648 174.664 96.3827 174.582C96.3007 174.5 96.2448 174.395 96.2222 174.281C96.1996 174.168 96.2112 174.05 96.2556 173.942C96.3 173.835 96.3752 173.744 96.4716 173.679C96.5681 173.615 96.6815 173.58 96.7975 173.58C96.9531 173.58 97.1023 173.642 97.2123 173.752C97.3223 173.862 97.3841 174.011 97.3841 174.167V174.167Z" fill="white"/>
<path d="M137.879 177.389L81.9455 177.416C81.7321 177.416 81.5274 177.331 81.3765 177.18C81.2256 177.029 81.1409 176.824 81.1409 176.611V142.79C81.1409 142.684 81.1617 142.58 81.2022 142.482C81.2427 142.385 81.302 142.296 81.3768 142.222C81.4515 142.148 81.5403 142.089 81.6379 142.049C81.7355 142.009 81.84 141.988 81.9455 141.989L137.879 141.963C138.092 141.963 138.296 142.047 138.447 142.197C138.598 142.347 138.683 142.551 138.684 142.763V176.603C138.68 176.814 138.593 177.014 138.443 177.161C138.292 177.308 138.09 177.39 137.879 177.389V177.389Z" fill="#455A64"/>
<path d="M110.503 156.123L115.229 158.661L110.694 161.65L106.16 164.639L105.972 159.112L105.78 153.581L110.503 156.123Z" fill="white"/>
<path d="M134.525 173.851C134.525 173.908 123.505 173.956 109.912 173.96C96.32 173.964 85.2957 173.93 85.2957 173.874C85.2957 173.817 96.3162 173.772 109.912 173.765C123.509 173.757 134.525 173.799 134.525 173.851Z" fill="white"/>
<path d="M86.1529 173.874C86.1529 173.996 86.1165 174.116 86.0484 174.218C85.9802 174.32 85.8833 174.4 85.7699 174.447C85.6566 174.494 85.5318 174.506 85.4115 174.482C85.2911 174.458 85.1806 174.399 85.0938 174.312C85.0071 174.226 84.948 174.115 84.924 173.995C84.9001 173.874 84.9124 173.75 84.9593 173.636C85.0063 173.523 85.0858 173.426 85.1878 173.358C85.2899 173.29 85.4098 173.253 85.5325 173.253C85.697 173.253 85.8548 173.319 85.9712 173.435C86.0875 173.551 86.1529 173.709 86.1529 173.874V173.874Z" fill="white"/>
<path d="M116.421 157.172H85.0136C84.5692 157.172 84.209 157.532 84.209 157.976V176.694C84.209 177.138 84.5692 177.498 85.0136 177.498H116.421C116.865 177.498 117.226 177.138 117.226 176.694V157.976C117.226 157.532 116.865 157.172 116.421 157.172Z" fill="#0075FF"/>
<path d="M101.061 165.29L103.772 166.745L101.17 168.459L98.5684 170.178L98.4594 167.004L98.3503 163.831L101.061 165.29Z" fill="white"/>
<path d="M114.846 175.464C114.846 175.517 108.521 175.562 100.723 175.566C92.9248 175.569 86.5967 175.528 86.5967 175.475C86.5967 175.423 92.921 175.374 100.723 175.37C108.525 175.366 114.846 175.408 114.846 175.464Z" fill="white"/>
<path d="M87.0892 175.475C87.0892 175.546 87.0681 175.615 87.0287 175.674C86.9893 175.733 86.9333 175.779 86.8678 175.806C86.8023 175.833 86.7303 175.84 86.6609 175.825C86.5915 175.811 86.5279 175.777 86.478 175.727C86.4282 175.676 86.3945 175.612 86.3812 175.543C86.3678 175.473 86.3754 175.401 86.403 175.336C86.4307 175.271 86.477 175.215 86.5363 175.177C86.5955 175.138 86.6649 175.117 86.7357 175.118C86.8298 175.119 86.9197 175.157 86.9859 175.224C87.0521 175.291 87.0892 175.381 87.0892 175.475V175.475Z" fill="white"/>
<path d="M170.411 39.2432H22.5562V133.431H170.411V39.2432Z" fill="white"/>
<path d="M170.512 133.07C170.512 132.344 170.482 96.6847 170.433 38.8822L170.512 38.9724L22.6726 38.9987L22.7779 38.8822C22.7779 72.2183 22.7779 104.069 22.7779 133.07L22.6801 132.961L170.531 133.07L22.6801 133.179H22.5598V133.07C22.5598 104.069 22.5598 72.2183 22.5598 38.8822V38.7656H22.6801L170.52 38.7919H170.602V38.8822C170.546 96.6847 170.516 132.352 170.512 133.07Z" fill="#263238"/>
<path d="M170.599 44.5297C170.599 44.5861 137.458 44.635 96.5905 44.635C55.723 44.635 22.5598 44.5861 22.5598 44.5297C22.5598 44.4733 55.6929 44.4207 96.5754 44.4207C137.458 44.4207 170.599 44.4695 170.599 44.5297Z" fill="#263238"/>
<path d="M27.4479 41.0404C27.4479 41.2293 27.3919 41.414 27.287 41.571C27.182 41.7281 27.0329 41.8505 26.8584 41.9228C26.6839 41.9951 26.4918 42.014 26.3066 41.9771C26.1213 41.9403 25.9511 41.8493 25.8176 41.7157C25.684 41.5822 25.593 41.412 25.5562 41.2267C25.5193 41.0415 25.5383 40.8495 25.6105 40.675C25.6828 40.5004 25.8052 40.3513 25.9623 40.2463C26.1193 40.1414 26.304 40.0854 26.4929 40.0854C26.7462 40.0854 26.9891 40.186 27.1682 40.3651C27.3473 40.5442 27.4479 40.7871 27.4479 41.0404Z" fill="#263238"/>
<path d="M30.3769 41.0404C30.3769 41.2293 30.3209 41.414 30.2159 41.571C30.111 41.7281 29.9618 41.8505 29.7873 41.9228C29.6128 41.9951 29.4208 42.014 29.2355 41.9771C29.0503 41.9403 28.8801 41.8493 28.7465 41.7157C28.613 41.5822 28.522 41.412 28.4851 41.2267C28.4483 41.0415 28.4672 40.8495 28.5395 40.675C28.6118 40.5004 28.7342 40.3513 28.8912 40.2463C29.0483 40.1414 29.2329 40.0854 29.4218 40.0854C29.5473 40.0854 29.6714 40.1101 29.7873 40.1581C29.9032 40.2061 30.0085 40.2764 30.0972 40.3651C30.1858 40.4538 30.2562 40.5591 30.3042 40.675C30.3522 40.7908 30.3769 40.915 30.3769 41.0404Z" fill="#263238"/>
<path d="M33.2909 41.0404C33.2909 41.2293 33.2349 41.414 33.13 41.571C33.0251 41.7281 32.8759 41.8505 32.7014 41.9228C32.5269 41.9951 32.3348 42.014 32.1496 41.9771C31.9643 41.9403 31.7942 41.8493 31.6606 41.7157C31.527 41.5822 31.4361 41.412 31.3992 41.2267C31.3624 41.0415 31.3813 40.8495 31.4536 40.675C31.5258 40.5004 31.6483 40.3513 31.8053 40.2463C31.9624 40.1414 32.147 40.0854 32.3359 40.0854C32.5892 40.0854 32.8321 40.186 33.0112 40.3651C33.1903 40.5442 33.2909 40.7871 33.2909 41.0404V41.0404Z" fill="#263238"/>
<path d="M62.9649 95.2784H32.4751V124.779H62.9649V95.2784Z" fill="#0075FF"/>
<g opacity="0.3">
<path opacity="0.3" d="M34.8401 122.256L43.2738 107.073L50.1734 116.778L54.3658 111.623L60.6036 122.256H34.8401Z" fill="black"/>
</g>
<g opacity="0.3">
<path opacity="0.3" d="M53.1136 104.122C53.1143 104.556 52.9862 104.981 52.7454 105.343C52.5045 105.704 52.1619 105.986 51.7607 106.153C51.3595 106.32 50.9179 106.364 50.4917 106.28C50.0655 106.195 49.6739 105.987 49.3664 105.68C49.0589 105.373 48.8494 104.981 48.7644 104.555C48.6794 104.129 48.7226 103.688 48.8887 103.286C49.0548 102.885 49.3362 102.542 49.6974 102.3C50.0586 102.059 50.4833 101.93 50.9178 101.93C51.4992 101.931 52.0566 102.162 52.468 102.573C52.8795 102.983 53.1116 103.54 53.1136 104.122Z" fill="black"/>
</g>
<g opacity="0.3">
<path opacity="0.3" d="M60.6035 122.335C60.5978 122.295 60.5978 122.255 60.6035 122.215C60.6035 122.129 60.6035 122.016 60.6035 121.873C60.6035 121.557 60.6035 121.121 60.6035 120.546C60.6035 119.376 60.6035 117.684 60.5697 115.533C60.5697 111.225 60.5321 105.088 60.5057 97.7223L60.6336 97.8464L34.8701 97.869L35.013 97.7261V104.351C35.013 106.517 35.013 108.641 35.013 110.706C35.013 114.842 35.013 118.745 35.013 122.335L34.8889 122.211L53.5159 122.275L58.7799 122.309H60.1749H60.5509H60.6787C60.6413 122.315 60.6033 122.315 60.5659 122.309H60.2162H58.8476L53.6212 122.343L34.9152 122.407H34.7874V122.279C34.7874 118.688 34.7874 114.781 34.7874 110.649C34.7874 108.585 34.7874 106.461 34.7874 104.295V97.7261L34.934 97.5795L60.6975 97.5983H60.8216V97.7223C60.7953 105.122 60.7727 111.285 60.7577 115.612C60.7577 117.752 60.7313 119.433 60.7238 120.594C60.7238 121.155 60.7238 121.591 60.7238 121.899C60.7238 122.038 60.7238 122.144 60.7238 122.23C60.6866 122.268 60.6464 122.304 60.6035 122.335V122.335Z" fill="black"/>
</g>
<path d="M87.8335 100.892H67.1948V101.93H87.8335V100.892Z" fill="#0075FF"/>
<path d="M95.0075 105.344C95.0075 105.404 88.8072 105.453 81.1632 105.453C73.5191 105.453 67.3188 105.404 67.3188 105.344C67.3188 105.284 73.5153 105.239 81.1632 105.239C88.811 105.239 95.0075 105.28 95.0075 105.344Z" fill="#263238"/>
<path d="M95.0076 108.239C95.0076 108.299 88.8074 108.348 81.1633 108.348C73.5192 108.348 67.304 108.288 67.304 108.239C67.304 108.19 73.5004 108.134 81.1483 108.134C88.7961 108.134 95.0076 108.183 95.0076 108.239Z" fill="#263238"/>
<path d="M95.0075 111.134C95.0075 111.194 88.8072 111.24 81.1632 111.24C73.5191 111.24 67.3188 111.194 67.3188 111.134C67.3188 111.074 73.5153 111.029 81.1632 111.029C88.811 111.029 95.0075 111.074 95.0075 111.134Z" fill="#263238"/>
<path d="M95.0075 114.029C95.0075 114.086 88.8072 114.135 81.1632 114.135C73.5191 114.135 67.3188 114.086 67.3188 114.029C67.3188 113.973 73.5153 113.924 81.1632 113.924C88.811 113.924 95.0075 113.969 95.0075 114.029Z" fill="#263238"/>
<path d="M95.0076 116.936C95.0076 116.992 88.8074 117.041 81.1633 117.041C73.5192 117.041 67.304 116.981 67.304 116.936C67.304 116.891 73.5004 116.827 81.1483 116.827C88.7961 116.827 95.0076 116.865 95.0076 116.936Z" fill="#263238"/>
<path d="M81.5393 119.568C81.5393 119.624 78.3546 119.673 74.4291 119.673C70.5037 119.673 67.304 119.639 67.304 119.568C67.304 119.497 70.4887 119.459 74.4141 119.459C78.3395 119.459 81.5393 119.523 81.5393 119.568Z" fill="#263238"/>
<path d="M154.502 99.1437H133.864V100.181H154.502V99.1437Z" fill="#0075FF"/>
<path d="M161.68 103.599C161.68 103.659 155.48 103.705 147.836 103.705C140.191 103.705 133.991 103.659 133.991 103.599C133.991 103.539 140.188 103.494 147.836 103.494C155.483 103.494 161.68 103.539 161.68 103.599Z" fill="#263238"/>
<path d="M161.68 106.495C161.68 106.555 155.48 106.6 147.836 106.6C140.191 106.6 133.991 106.555 133.991 106.495C133.991 106.434 140.188 106.389 147.836 106.389C155.483 106.389 161.68 106.434 161.68 106.495Z" fill="#263238"/>
<path d="M161.68 109.39C161.68 109.446 155.48 109.495 147.836 109.495C140.191 109.495 133.991 109.446 133.991 109.39C133.991 109.333 140.188 109.281 147.836 109.281C155.483 109.281 161.68 109.33 161.68 109.39Z" fill="#263238"/>
<path d="M161.68 112.285C161.68 112.341 155.48 112.39 147.836 112.39C140.191 112.39 133.991 112.341 133.991 112.285C133.991 112.229 140.188 112.176 147.836 112.176C155.483 112.176 161.68 112.225 161.68 112.285Z" fill="#263238"/>
<path d="M161.68 115.176C161.68 115.236 155.48 115.285 147.836 115.285C140.191 115.285 133.991 115.236 133.991 115.176C133.991 115.116 140.188 115.071 147.836 115.071C155.483 115.071 161.68 115.12 161.68 115.176Z" fill="#263238"/>
<path d="M148.208 117.838C148.208 117.895 145.023 117.944 141.098 117.944C137.172 117.944 133.988 117.895 133.988 117.838C133.988 117.782 137.172 117.729 141.098 117.729C145.023 117.729 148.208 117.778 148.208 117.838Z" fill="#263238"/>
<path d="M129.6 125.776C129.93 125.673 130.278 125.637 130.622 125.67C130.408 125.885 130.562 125.731 130.513 125.776V125.584V125.392C130.513 125.269 130.521 125.16 130.536 125.065C130.555 124.881 130.581 124.768 130.611 124.768C130.641 124.768 130.667 124.881 130.686 125.065C130.686 125.16 130.694 125.269 130.709 125.392V125.768L130.604 125.877C130.265 125.913 129.924 125.878 129.6 125.776V125.776Z" fill="#263238"/>
<path d="M125.208 125.776C125.931 125.635 126.674 125.635 127.396 125.776C126.674 125.921 125.93 125.921 125.208 125.776V125.776Z" fill="#263238"/>
<path d="M120.846 125.776C121.569 125.635 122.312 125.635 123.035 125.776C122.312 125.921 121.568 125.921 120.846 125.776V125.776Z" fill="#263238"/>
<path d="M116.47 125.776C117.192 125.635 117.935 125.635 118.658 125.776C117.936 125.921 117.192 125.921 116.47 125.776Z" fill="#263238"/>
<path d="M112.093 125.776C112.816 125.635 113.559 125.635 114.281 125.776C113.559 125.921 112.815 125.921 112.093 125.776V125.776Z" fill="#263238"/>
<path d="M107.716 125.776C108.439 125.635 109.182 125.635 109.905 125.776C109.182 125.921 108.439 125.921 107.716 125.776V125.776Z" fill="#263238"/>
<path d="M103.34 125.776C104.063 125.635 104.805 125.635 105.528 125.776C104.806 125.921 104.062 125.921 103.34 125.776Z" fill="#263238"/>
<path d="M100.129 124.757C100.236 125.085 100.273 125.432 100.238 125.776L100.129 125.671H100.527L100.855 125.693C101.039 125.716 101.152 125.742 101.152 125.768C101.152 125.795 101.039 125.825 100.855 125.847L100.527 125.87H100.129C100.084 125.821 100.238 125.975 100.024 125.761C99.9925 125.422 100.028 125.081 100.129 124.757Z" fill="#263238"/>
<path d="M100.129 120.531C100.274 121.228 100.274 121.947 100.129 122.644C99.9883 121.946 99.9883 121.228 100.129 120.531V120.531Z" fill="#263238"/>
<path d="M100.129 116.308C100.274 117.005 100.274 117.724 100.129 118.421C99.9883 117.724 99.9883 117.005 100.129 116.308V116.308Z" fill="#263238"/>
<path d="M100.129 112.086C100.274 112.781 100.274 113.499 100.129 114.195C100.026 113.853 99.9905 113.494 100.023 113.138C99.9903 112.784 100.026 112.426 100.129 112.086Z" fill="#263238"/>
<path d="M100.129 107.859C100.274 108.556 100.274 109.276 100.129 109.973C99.9883 109.275 99.9883 108.557 100.129 107.859V107.859Z" fill="#263238"/>
<path d="M100.129 103.637C100.274 104.332 100.274 105.051 100.129 105.746C100.026 105.405 99.9903 105.048 100.023 104.693C99.9905 104.338 100.026 103.979 100.129 103.637V103.637Z" fill="#263238"/>
<path d="M100.129 99.4106C100.274 100.108 100.274 100.827 100.129 101.524C99.9883 100.826 99.9883 100.108 100.129 99.4106V99.4106Z" fill="#263238"/>
<path d="M101.144 96.2786C100.814 96.3832 100.466 96.419 100.121 96.3839L100.23 96.2786V96.4741V96.6659C100.23 96.7862 100.23 96.899 100.208 96.9892C100.189 97.1735 100.163 97.29 100.132 97.29C100.102 97.29 100.076 97.1735 100.057 96.9892C100.057 96.899 100.057 96.7862 100.035 96.6659C100.012 96.5455 100.035 96.5343 100.035 96.4741V96.2786L100.14 96.1733C100.478 96.1407 100.82 96.1765 101.144 96.2786V96.2786Z" fill="#263238"/>
<path d="M105.528 96.2786C104.805 96.419 104.063 96.419 103.34 96.2786C104.063 96.1382 104.805 96.1382 105.528 96.2786V96.2786Z" fill="#263238"/>
<path d="M109.905 96.2786C109.182 96.419 108.439 96.419 107.716 96.2786C108.439 96.1382 109.182 96.1382 109.905 96.2786V96.2786Z" fill="#263238"/>
<path d="M114.281 96.2786C113.559 96.419 112.816 96.419 112.093 96.2786C112.816 96.1382 113.559 96.1382 114.281 96.2786V96.2786Z" fill="#263238"/>
<path d="M118.658 96.2786C117.935 96.419 117.192 96.419 116.47 96.2786C117.192 96.1382 117.935 96.1382 118.658 96.2786V96.2786Z" fill="#263238"/>
<path d="M123.035 96.2786C122.312 96.419 121.569 96.419 120.846 96.2786C121.569 96.1382 122.312 96.1382 123.035 96.2786V96.2786Z" fill="#263238"/>
<path d="M127.411 96.2786C126.689 96.419 125.946 96.419 125.223 96.2786C125.946 96.1382 126.689 96.1382 127.411 96.2786V96.2786Z" fill="#263238"/>
<path d="M130.622 97.3013C130.515 96.9717 130.478 96.6234 130.513 96.2786L130.622 96.3839H130.416H130.224C130.1 96.3839 129.991 96.3839 129.897 96.3613C129.712 96.3425 129.6 96.3162 129.6 96.2861C129.6 96.256 129.712 96.2297 129.897 96.2109C129.992 96.2109 130.101 96.2034 130.224 96.1884H130.416H130.622L130.728 96.2936C130.758 96.6332 130.722 96.9754 130.622 97.3013V97.3013Z" fill="#263238"/>
<path d="M130.622 101.52C130.477 100.823 130.477 100.104 130.622 99.4069C130.763 100.104 130.763 100.823 130.622 101.52V101.52Z" fill="#263238"/>
<path d="M130.622 105.746C130.477 105.051 130.477 104.332 130.622 103.637C130.725 103.979 130.76 104.338 130.728 104.693C130.761 105.048 130.725 105.405 130.622 105.746V105.746Z" fill="#263238"/>
<path d="M130.622 109.973C130.477 109.276 130.477 108.556 130.622 107.859C130.763 108.557 130.763 109.275 130.622 109.973Z" fill="#263238"/>
<path d="M130.622 114.195C130.477 113.499 130.477 112.781 130.622 112.086C130.725 112.426 130.761 112.784 130.728 113.138C130.76 113.494 130.725 113.853 130.622 114.195V114.195Z" fill="#263238"/>
<path d="M130.622 118.44C130.477 117.743 130.477 117.024 130.622 116.327C130.763 117.024 130.763 117.743 130.622 118.44Z" fill="#263238"/>
<path d="M130.622 122.644C130.477 121.947 130.477 121.228 130.622 120.531C130.763 121.228 130.763 121.946 130.622 122.644V122.644Z" fill="#263238"/>
<path d="M121.264 68.1914C121.264 68.1914 121.264 68.1124 121.264 67.9695C121.264 67.8267 121.264 67.5935 121.264 67.3454C121.264 66.7927 121.264 65.9955 121.245 64.9766C121.245 62.9274 121.218 59.9871 121.203 56.3963L121.279 56.4715L102.125 56.494C102.103 56.5128 102.309 56.3098 102.219 56.3963V62.495C102.219 64.469 102.219 66.3715 102.219 68.1839L102.125 68.0936L115.894 68.1387L119.854 68.1651H120.91H121.185C121.217 68.1619 121.25 68.1619 121.282 68.1651H120.933H119.891L115.954 68.1914L102.125 68.2365H102.035V68.1425C102.035 66.3302 102.035 64.4276 102.035 62.4536V59.4456C102.035 58.938 102.035 58.4229 102.035 57.9078V56.4C101.948 56.4865 102.155 56.2797 102.136 56.3023L121.29 56.3211H121.369V56.4C121.35 60.0134 121.335 62.965 121.327 65.0292C121.327 66.0407 121.327 66.8303 121.309 67.3792C121.309 67.6424 121.309 67.8455 121.309 67.9921C121.309 68.1387 121.264 68.1914 121.264 68.1914Z" fill="#0075FF"/>
<path d="M111.804 61.3144L113.375 62.1604L111.868 63.153L110.356 64.1457L110.296 62.307L110.232 60.4684L111.804 61.3144Z" fill="#0075FF"/>
<path d="M119.88 67.0107C119.88 67.0671 116.21 67.1085 111.687 67.1085C107.164 67.1085 103.49 67.0671 103.49 67.0107C103.49 66.9543 107.16 66.928 111.672 66.928C116.184 66.928 119.88 66.9581 119.88 67.0107Z" fill="#0075FF"/>
<path d="M103.569 67.2176C103.683 67.2176 103.776 67.125 103.776 67.0108C103.776 66.8965 103.683 66.804 103.569 66.804C103.455 66.804 103.362 66.8965 103.362 67.0108C103.362 67.125 103.455 67.2176 103.569 67.2176Z" fill="#0075FF"/>
<path d="M146.207 57.7761H125.569V58.8139H146.207V57.7761Z" fill="#0075FF"/>
<path d="M153.382 62.2318C153.382 62.2882 147.185 62.3371 139.541 62.3371C131.897 62.3371 125.697 62.2882 125.697 62.2318C125.697 62.1754 131.893 62.1228 139.541 62.1228C147.189 62.1228 153.382 62.1717 153.382 62.2318Z" fill="#263238"/>
<path d="M153.382 65.1232C153.382 65.1834 147.185 65.2323 139.541 65.2323C131.897 65.2323 125.697 65.1834 125.697 65.1232C125.697 65.0631 131.893 65.0179 139.541 65.0179C147.189 65.0179 153.382 65.0668 153.382 65.1232Z" fill="#263238"/>
<path d="M121.264 85.5138C121.264 85.5138 121.264 85.4386 121.264 85.2957C121.264 85.1528 121.264 84.9385 121.264 84.6715C121.264 84.1188 121.264 83.3217 121.245 82.3027C121.245 80.2535 121.218 77.3132 121.203 73.7224L121.279 73.7976L102.125 73.8202C102.103 73.8202 102.309 73.6322 102.219 73.7224V79.8249C102.219 81.7989 102.219 83.7015 102.219 85.5138L102.125 85.4235L115.894 85.4687L119.854 85.495H120.91H121.185H121.282C121.282 85.495 121.256 85.495 121.196 85.495H120.933H119.891L115.954 85.5213L102.125 85.5627H102.035V85.4687C102.035 83.6563 102.035 81.7538 102.035 79.7798V76.7718C102.035 76.2604 102.035 75.7491 102.035 75.2339V73.6848C101.948 73.7713 102.155 73.5645 102.136 73.5871L121.29 73.6059H121.369V73.6848C121.35 77.2982 121.335 80.2498 121.327 82.3103C121.327 83.3217 121.327 84.1151 121.309 84.664C121.309 84.9272 121.309 85.1265 121.309 85.2731C121.299 85.3542 121.284 85.4346 121.264 85.5138V85.5138Z" fill="#0075FF"/>
<path d="M111.804 78.6366L113.375 79.4826L111.868 80.479L110.356 81.4717L110.296 79.633L110.232 77.7906L111.804 78.6366Z" fill="#0075FF"/>
<path d="M119.88 84.3368C119.88 84.3894 116.21 84.4346 111.687 84.4346C107.164 84.4346 103.49 84.3894 103.49 84.3368C103.49 84.2842 107.16 84.224 111.672 84.224C116.184 84.224 119.88 84.2842 119.88 84.3368Z" fill="#0075FF"/>
<path d="M103.569 84.5436C103.683 84.5436 103.776 84.451 103.776 84.3368C103.776 84.2226 103.683 84.13 103.569 84.13C103.455 84.13 103.362 84.2226 103.362 84.3368C103.362 84.451 103.455 84.5436 103.569 84.5436Z" fill="#0075FF"/>
<path d="M146.207 75.1023H125.569V76.1401H146.207V75.1023Z" fill="#0075FF"/>
<path d="M153.382 79.5541C153.382 79.6143 147.185 79.6632 139.541 79.6632C131.897 79.6632 125.697 79.6143 125.697 79.5541C125.697 79.494 131.893 79.4489 139.541 79.4489C147.189 79.4489 153.382 79.4977 153.382 79.5541Z" fill="#263238"/>
<path d="M153.382 82.4493C153.382 82.5094 147.185 82.5583 139.541 82.5583C131.897 82.5583 125.697 82.5094 125.697 82.4493C125.697 82.3891 131.893 82.344 139.541 82.344C147.189 82.344 153.382 82.3929 153.382 82.4493Z" fill="#263238"/>
<path d="M92.0334 89.6684C92.3371 89.5731 92.6567 89.5399 92.9734 89.5707L92.8757 89.6684V89.488V89.3112C92.8757 89.1984 92.8757 89.0969 92.8945 89.0104C92.8945 88.8412 92.9358 88.736 92.9659 88.736C92.996 88.736 93.0148 88.8412 93.0336 89.0104C93.0336 89.0969 93.0336 89.1984 93.0562 89.3112V89.6872L92.9584 89.785C92.6454 89.8098 92.3306 89.7701 92.0334 89.6684Z" fill="#E0E0E0"/>
<path d="M88.281 89.6685C88.9008 89.5376 89.5412 89.5376 90.161 89.6685C89.5412 89.7994 88.9008 89.7994 88.281 89.6685Z" fill="#E0E0E0"/>
<path d="M84.5322 89.6685C85.152 89.5371 85.7925 89.5371 86.4122 89.6685C85.7925 89.8 85.152 89.8 84.5322 89.6685V89.6685Z" fill="#E0E0E0"/>
<path d="M80.7798 89.6685C81.3996 89.5376 82.04 89.5376 82.6598 89.6685C82.04 89.7994 81.3996 89.7994 80.7798 89.6685Z" fill="#E0E0E0"/>
<path d="M77.031 89.6684C77.3333 89.5729 77.6518 89.5397 77.9672 89.5707C78.284 89.5399 78.6036 89.5732 78.9072 89.6684C78.6041 89.7658 78.284 89.7991 77.9672 89.7662C77.6518 89.7998 77.3327 89.7665 77.031 89.6684V89.6684Z" fill="#E0E0E0"/>
<path d="M73.2786 89.6685C73.8984 89.5376 74.5387 89.5376 75.1586 89.6685C74.5387 89.7994 73.8984 89.7994 73.2786 89.6685Z" fill="#E0E0E0"/>
<path d="M69.5298 89.6685C70.1496 89.5376 70.7899 89.5376 71.4098 89.6685C70.7899 89.7994 70.1496 89.7994 69.5298 89.6685Z" fill="#E0E0E0"/>
<path d="M65.7773 89.6684C66.081 89.5732 66.4006 89.5399 66.7173 89.5707C67.0328 89.5397 67.3513 89.5729 67.6536 89.6684C67.3518 89.7665 67.0328 89.7998 66.7173 89.7662C66.4006 89.7991 66.0805 89.7658 65.7773 89.6684Z" fill="#E0E0E0"/>
<path d="M62.0398 89.6685C62.6596 89.5376 63.3 89.5376 63.9198 89.6685C63.3 89.7994 62.6596 89.7994 62.0398 89.6685Z" fill="#E0E0E0"/>
<path d="M58.2798 89.6685C58.8996 89.5371 59.54 89.5371 60.1598 89.6685C59.54 89.8 58.8996 89.8 58.2798 89.6685V89.6685Z" fill="#E0E0E0"/>
<path d="M54.52 89.6685C55.1399 89.5376 55.7802 89.5376 56.4 89.6685C55.7802 89.7994 55.1399 89.7994 54.52 89.6685Z" fill="#E0E0E0"/>
<path d="M50.7788 89.6685C51.3986 89.5371 52.039 89.5371 52.6588 89.6685C52.039 89.8 51.3986 89.8 50.7788 89.6685V89.6685Z" fill="#E0E0E0"/>
<path d="M47.0261 89.6685C47.646 89.5376 48.2863 89.5376 48.9061 89.6685C48.2863 89.7994 47.646 89.7994 47.0261 89.6685Z" fill="#E0E0E0"/>
<path d="M43.2776 89.6684C43.5799 89.5729 43.8983 89.5397 44.2138 89.5707C44.5293 89.5397 44.8478 89.5729 45.1501 89.6684C44.8483 89.7665 44.5293 89.7998 44.2138 89.7662C43.8983 89.7998 43.5793 89.7665 43.2776 89.6684V89.6684Z" fill="#E0E0E0"/>
<path d="M39.5251 89.6685C39.8288 89.5732 40.1484 89.5399 40.4651 89.5707C40.7806 89.5401 41.099 89.5734 41.4014 89.6685C41.0995 89.7656 40.7806 89.7989 40.4651 89.7662C40.1484 89.7991 39.8283 89.7658 39.5251 89.6685V89.6685Z" fill="#E0E0E0"/>
<path d="M35.7764 89.6684C36.0786 89.5729 36.3971 89.5397 36.7126 89.5707C37.0293 89.5399 37.349 89.5732 37.6526 89.6684C37.3494 89.7658 37.0293 89.7991 36.7126 89.7662C36.3971 89.7998 36.0781 89.7665 35.7764 89.6684V89.6684Z" fill="#E0E0E0"/>
<path d="M32.9601 88.736C33.0554 89.0396 33.0886 89.3592 33.0579 89.676L32.9601 89.5782H33.3361C33.4489 89.5782 33.5504 89.5782 33.6369 89.6008C33.8061 89.6008 33.9114 89.6421 33.9114 89.6684C33.9114 89.6948 33.8061 89.7211 33.6369 89.7399L33.3361 89.7587H33.1594H32.9714L32.8736 89.6609C32.8412 89.3499 32.8706 89.0356 32.9601 88.736V88.736Z" fill="#E0E0E0"/>
<path d="M32.9601 85.0361C33.0904 85.6446 33.0904 86.2738 32.9601 86.8823C32.8297 86.2738 32.8297 85.6446 32.9601 85.0361V85.0361Z" fill="#E0E0E0"/>
<path d="M32.9601 81.3477C33.0904 81.9561 33.0904 82.5853 32.9601 83.1938C32.8297 82.5853 32.8297 81.9561 32.9601 81.3477Z" fill="#E0E0E0"/>
<path d="M32.9601 77.6553C33.0904 78.2638 33.0904 78.8929 32.9601 79.5014C32.8297 78.8929 32.8297 78.2638 32.9601 77.6553V77.6553Z" fill="#E0E0E0"/>
<path d="M32.9601 73.963C33.0904 74.5715 33.0904 75.2007 32.9601 75.8092C32.8297 75.2007 32.8297 74.5715 32.9601 73.963V73.963Z" fill="#E0E0E0"/>
<path d="M32.9601 70.2706C33.0904 70.8791 33.0904 71.5083 32.9601 72.1168C32.8297 71.5083 32.8297 70.8791 32.9601 70.2706Z" fill="#E0E0E0"/>
<path d="M32.9601 66.5822C33.0905 67.1894 33.0905 67.8173 32.9601 68.4246C32.8297 67.8173 32.8297 67.1894 32.9601 66.5822V66.5822Z" fill="#E0E0E0"/>
<path d="M32.9601 62.8898C33.0904 63.4983 33.0904 64.1274 32.9601 64.7359C32.8297 64.1274 32.8297 63.4983 32.9601 62.8898Z" fill="#E0E0E0"/>
<path d="M32.9601 59.1975C33.0904 59.806 33.0904 60.4352 32.9601 61.0437C32.8297 60.4352 32.8297 59.806 32.9601 59.1975V59.1975Z" fill="#E0E0E0"/>
<path d="M32.9601 55.5051C33.0904 56.1136 33.0904 56.7428 32.9601 57.3513C32.8297 56.7428 32.8297 56.1136 32.9601 55.5051Z" fill="#E0E0E0"/>
<path d="M33.9 52.719C33.5974 52.8189 33.277 52.8535 32.96 52.8205C33.1555 52.6212 33.0126 52.7641 33.0578 52.7228V52.907C33.0578 52.9634 33.0578 53.0198 33.0578 53.0837C33.0578 53.1476 33.0578 53.2981 33.0352 53.3808C33.0352 53.55 32.9938 53.6553 32.9675 53.6553C32.9412 53.6553 32.9149 53.55 32.8998 53.3808C32.8998 53.2981 32.8998 53.1965 32.8773 53.0837V52.7077C32.9224 52.6626 32.7795 52.8017 32.975 52.6062C33.2878 52.5823 33.6022 52.6206 33.9 52.719V52.719Z" fill="#E0E0E0"/>
<path d="M37.6526 52.719C37.35 52.8189 37.0296 52.8534 36.7126 52.8205C36.3969 52.8536 36.0777 52.819 35.7764 52.719C36.0786 52.6235 36.3971 52.5902 36.7126 52.6212C37.0293 52.5904 37.349 52.6237 37.6526 52.719V52.719Z" fill="#E0E0E0"/>
<path d="M41.4014 52.719C41.0999 52.8183 40.7809 52.8529 40.4651 52.8205C40.1482 52.8534 39.8278 52.8188 39.5251 52.719C39.8288 52.6237 40.1484 52.5905 40.4651 52.6212C40.7806 52.5907 41.099 52.6239 41.4014 52.719Z" fill="#E0E0E0"/>
<path d="M45.1501 52.719C44.8488 52.819 44.5296 52.8536 44.2138 52.8205C43.8981 52.8536 43.5789 52.819 43.2776 52.719C43.5799 52.6235 43.8983 52.5902 44.2138 52.6212C44.5293 52.5902 44.8478 52.6235 45.1501 52.719Z" fill="#E0E0E0"/>
<path d="M48.9025 52.719C48.2832 52.855 47.6418 52.855 47.0225 52.719C47.6423 52.5881 48.2826 52.5881 48.9025 52.719Z" fill="#E0E0E0"/>
<path d="M52.64 52.719C52.0208 52.8554 51.3793 52.8554 50.76 52.719C51.3798 52.5876 52.0202 52.5876 52.64 52.719Z" fill="#E0E0E0"/>
<path d="M56.4 52.719C55.7807 52.855 55.1393 52.855 54.52 52.719C55.1399 52.5881 55.7802 52.5881 56.4 52.719Z" fill="#E0E0E0"/>
<path d="M60.1598 52.719C59.5405 52.8554 58.899 52.8554 58.2798 52.719C58.8996 52.5876 59.54 52.5876 60.1598 52.719Z" fill="#E0E0E0"/>
<path d="M63.9198 52.719C63.3005 52.855 62.6591 52.855 62.0398 52.719C62.6596 52.5881 63.3 52.5881 63.9198 52.719Z" fill="#E0E0E0"/>
<path d="M67.6536 52.719C67.3523 52.819 67.0331 52.8536 66.7173 52.8205C66.4004 52.8534 66.08 52.8189 65.7773 52.719C66.081 52.6237 66.4006 52.5904 66.7173 52.6212C67.0328 52.5902 67.3513 52.6235 67.6536 52.719V52.719Z" fill="#E0E0E0"/>
<path d="M71.4061 52.719C70.7868 52.855 70.1454 52.855 69.5261 52.719C70.146 52.5881 70.7863 52.5881 71.4061 52.719V52.719Z" fill="#E0E0E0"/>
<path d="M75.1549 52.719C74.5356 52.855 73.8942 52.855 73.2749 52.719C73.8947 52.5881 74.5351 52.5881 75.1549 52.719Z" fill="#E0E0E0"/>
<path d="M78.9072 52.719C78.6046 52.8189 78.2842 52.8534 77.9672 52.8205C77.6515 52.8536 77.3323 52.819 77.031 52.719C77.3333 52.6235 77.6518 52.5902 77.9672 52.6212C78.284 52.5904 78.6036 52.6237 78.9072 52.719Z" fill="#E0E0E0"/>
<path d="M82.6559 52.719C82.0366 52.855 81.3952 52.855 80.7759 52.719C81.3957 52.5881 82.0361 52.5881 82.6559 52.719Z" fill="#E0E0E0"/>
<path d="M86.4047 52.719C85.7854 52.8554 85.1439 52.8554 84.5247 52.719C85.1444 52.5876 85.7849 52.5876 86.4047 52.719Z" fill="#E0E0E0"/>
<path d="M90.1571 52.719C89.5378 52.855 88.8964 52.855 88.2771 52.719C88.8969 52.5881 89.5373 52.5881 90.1571 52.719Z" fill="#E0E0E0"/>
<path d="M92.9734 53.659C92.8756 53.3559 92.8423 53.0357 92.8757 52.719C93.0712 52.9145 92.9283 52.7754 92.9734 52.8205H92.7817H92.605H92.3079C92.1387 52.8017 92.0334 52.7791 92.0334 52.7491C92.0334 52.719 92.1387 52.7002 92.3079 52.6814L92.605 52.6588H92.981C93.0223 52.704 92.8832 52.5611 93.0787 52.7566C93.1025 53.0614 93.0667 53.3679 92.9734 53.659V53.659Z" fill="#E0E0E0"/>
<path d="M92.9735 57.3513C92.8431 56.7428 92.8431 56.1136 92.9735 55.5051C93.1039 56.1136 93.1039 56.7428 92.9735 57.3513Z" fill="#E0E0E0"/>
<path d="M92.9735 61.0437C92.8431 60.4352 92.8431 59.806 92.9735 59.1975C93.1039 59.806 93.1039 60.4352 92.9735 61.0437Z" fill="#E0E0E0"/>
<path d="M92.9735 64.7359C92.8431 64.1274 92.8431 63.4983 92.9735 62.8898C93.1039 63.4983 93.1039 64.1274 92.9735 64.7359Z" fill="#E0E0E0"/>
<path d="M92.9735 68.432C92.8431 67.8248 92.8431 67.1968 92.9735 66.5896C93.1039 67.1968 93.1039 67.8248 92.9735 68.432V68.432Z" fill="#E0E0E0"/>
<path d="M92.9735 72.1168C92.8431 71.5083 92.8431 70.8791 92.9735 70.2706C93.1039 70.8791 93.1039 71.5083 92.9735 72.1168Z" fill="#E0E0E0"/>
<path d="M92.9735 75.8092C92.8431 75.2007 92.8431 74.5715 92.9735 73.963C93.1039 74.5715 93.1039 75.2007 92.9735 75.8092Z" fill="#E0E0E0"/>
<path d="M92.9735 79.5014C92.8431 78.8929 92.8431 78.2638 92.9735 77.6553C93.1039 78.2638 93.1039 78.8929 92.9735 79.5014V79.5014Z" fill="#E0E0E0"/>
<path d="M92.9735 83.1938C92.876 82.8958 92.8427 82.5806 92.8757 82.2689C92.8426 81.9583 92.8759 81.6443 92.9735 81.3477C93.0695 81.6447 93.1027 81.9583 93.0713 82.2689C93.1021 82.5806 93.0688 82.8954 92.9735 83.1938V83.1938Z" fill="#E0E0E0"/>
<path d="M92.9735 86.8823C92.8431 86.2738 92.8431 85.6446 92.9735 85.0361C93.1039 85.6446 93.1039 86.2738 92.9735 86.8823Z" fill="#E0E0E0"/>
<path d="M88.6419 89.3789L30.3205 92.5787C30.1089 92.59 29.9013 92.5174 29.7429 92.3766C29.5845 92.2358 29.4881 92.0382 29.4745 91.8267L27.5419 56.5353C27.5296 56.3234 27.6018 56.1153 27.7428 55.9567C27.8838 55.7981 28.082 55.7019 28.2939 55.6893L86.6115 52.4896C86.8231 52.4782 87.0307 52.5508 87.1891 52.6916C87.3475 52.8324 87.4439 53.0301 87.4575 53.2416L89.3939 88.5291C89.4005 88.6344 89.3863 88.7398 89.352 88.8396C89.3178 88.9393 89.2642 89.0312 89.1943 89.1102C89.1245 89.1891 89.0397 89.2535 88.9449 89.2996C88.8501 89.3457 88.7471 89.3727 88.6419 89.3789Z" fill="#0075FF"/>
<path d="M58.8928 68.7854L63.9538 71.1617L59.4042 74.5307L54.8508 77.8996L54.3395 72.1543L53.8281 66.4091L58.8928 68.7854Z" fill="white"/>
<path d="M84.9119 85.8897C84.9119 85.9424 73.4401 86.6154 59.2837 87.3937C45.1273 88.172 33.648 88.7548 33.6443 88.7022C33.6405 88.6495 45.116 87.9728 59.2762 87.1982C73.4364 86.4236 84.9081 85.8333 84.9119 85.8897Z" fill="white"/>
<path d="M34.5392 88.6532C34.5457 88.7809 34.5142 88.9076 34.4487 89.0174C34.3832 89.1272 34.2867 89.2151 34.1713 89.2701C34.0559 89.325 33.9267 89.3445 33.8002 89.3261C33.6737 89.3077 33.5555 89.2523 33.4605 89.1667C33.3655 89.0812 33.298 88.9694 33.2665 88.8455C33.235 88.7216 33.2409 88.5912 33.2835 88.4706C33.3261 88.3501 33.4035 88.2449 33.5059 88.1683C33.6082 88.0917 33.731 88.0472 33.8586 88.0404C33.9436 88.0358 34.0286 88.048 34.1088 88.0764C34.189 88.1047 34.2629 88.1486 34.3261 88.2056C34.3893 88.2625 34.4407 88.3314 34.4772 88.4082C34.5138 88.485 34.5349 88.5683 34.5392 88.6532V88.6532Z" fill="white"/>
<g opacity="0.3">
<path opacity="0.3" d="M83.5019 52.7114C82.5694 54.5012 81.6219 56.5429 82.2536 58.4567C82.5506 59.3328 83.1522 60.0697 83.6072 60.8744C85.0059 63.3447 84.957 66.3414 84.8743 69.1765C84.848 69.9811 84.7803 70.8835 84.1749 71.4099C83.6748 71.8385 82.9642 71.8874 82.2949 71.91L74.3613 72.2145V86.1829L89.078 82.9268L88.3899 62.04L88.0139 58.5169L86.5287 52.5009L83.5019 52.7114Z" fill="black"/>
</g>
<path d="M70.8872 165.658L71.391 177.442L77.753 177.299L77.2755 165.493L70.8872 165.658Z" fill="#0075FF"/>
<path d="M74.5154 176.927C74.5681 176.927 74.4666 174.344 74.2936 171.163C74.1206 167.982 73.9176 165.406 73.88 165.41C73.8424 165.414 73.9251 167.993 74.1018 171.174C74.2786 174.355 74.4478 176.931 74.5154 176.927Z" fill="#263238"/>
<path d="M71.3535 176.63L77.7192 176.468L77.753 177.299L71.3911 177.442L71.3535 176.63Z" fill="#E0E0E0"/>
<path d="M77.5989 173.528C77.5989 173.528 77.55 173.426 77.4259 173.276C76.9747 172.748 76.4088 172.33 75.7715 172.054C75.2982 171.847 74.7831 171.755 74.2675 171.783C73.8021 171.802 73.3457 171.918 72.9275 172.123C72.5093 172.328 72.1385 172.619 71.8386 172.975C71.6605 173.19 71.5148 173.429 71.4062 173.686C71.358 173.777 71.3274 173.876 71.3159 173.979C71.4992 173.657 71.7079 173.35 71.9401 173.062C72.5457 172.405 73.3864 172.014 74.2788 171.975C75.1709 171.96 76.0408 172.254 76.7416 172.806C77.2981 173.212 77.5763 173.55 77.5989 173.528Z" fill="#263238"/>
<g opacity="0.3">
<path opacity="0.3" d="M77.4107 168.854L77.4633 170.151L71.0864 170.264L71.0413 169.286L77.4107 168.854Z" fill="black"/>
</g>
<path d="M55.4975 165.966L55.8171 173.336C55.8171 173.336 48.4287 176.137 48.3535 177.506L62.6716 177.401L62.6453 165.891L55.4975 165.966Z" fill="#0075FF"/>
<path d="M60.1599 172.712C60.2983 172.754 60.4166 172.845 60.4921 172.968C60.5677 173.092 60.5953 173.239 60.5697 173.381C60.534 173.521 60.4458 173.642 60.3233 173.719C60.2009 173.796 60.0535 173.823 59.9117 173.795C59.7639 173.752 59.6376 173.655 59.5576 173.523C59.4776 173.392 59.4497 173.235 59.4793 173.084C59.5312 172.941 59.637 172.824 59.774 172.758C59.911 172.692 60.0683 172.682 60.2125 172.731" fill="#E0E0E0"/>
<path d="M62.6716 177.401V176.246L48.816 176.773C48.816 176.773 48.1768 177.055 48.252 177.506L62.6716 177.401Z" fill="#E0E0E0"/>
<path d="M55.6854 173.385C55.6854 173.456 56.0614 173.486 56.3886 173.708C56.7157 173.93 56.9225 174.227 56.9902 174.201C57.0578 174.174 56.945 173.765 56.5202 173.501C56.0953 173.238 55.6704 173.336 55.6854 173.385Z" fill="#263238"/>
<path d="M54.1777 174.02C54.1777 174.092 54.4673 174.208 54.7079 174.505C54.9485 174.802 55.0237 175.114 55.0839 175.111C55.1441 175.107 55.1967 174.708 54.8884 174.359C54.5801 174.009 54.1777 173.956 54.1777 174.02Z" fill="#263238"/>
<path d="M53.3317 175.84C53.3956 175.84 53.4934 175.502 53.3091 175.114C53.1249 174.727 52.794 174.581 52.7639 174.641C52.7339 174.701 52.9407 174.904 53.0873 175.22C53.2339 175.536 53.264 175.833 53.3317 175.84Z" fill="#263238"/>
<path d="M55.8022 171.685C55.8322 171.749 56.1518 171.648 56.5542 171.685C56.9565 171.723 57.2648 171.832 57.3062 171.772C57.3475 171.712 57.043 171.463 56.573 171.441C56.103 171.418 55.7646 171.629 55.8022 171.685Z" fill="#263238"/>
<path d="M55.5312 170.099C55.7672 170.166 56.0172 170.166 56.2532 170.099C56.5128 170.052 56.7655 169.972 57.0052 169.862C57.1479 169.797 57.2861 169.723 57.4188 169.64C57.4985 169.593 57.5708 169.535 57.6331 169.467C57.6802 169.417 57.7089 169.353 57.7144 169.284C57.7199 169.216 57.7018 169.148 57.6632 169.091C57.6286 169.041 57.5825 169 57.5288 168.972C57.4752 168.944 57.4155 168.929 57.3548 168.929C57.2632 168.931 57.1723 168.945 57.0841 168.971C56.9303 169.009 56.7805 169.062 56.6367 169.128C56.3934 169.24 56.1689 169.388 55.9712 169.568C55.6403 169.88 55.5275 170.147 55.5538 170.159C55.5801 170.17 55.7456 169.959 56.084 169.704C56.2799 169.549 56.4963 169.423 56.7269 169.328C56.8648 169.273 57.0069 169.231 57.1518 169.2C57.3022 169.159 57.4338 169.155 57.4714 169.222C57.509 169.29 57.4714 169.26 57.4714 169.305C57.4256 169.355 57.3723 169.397 57.3135 169.429C57.1927 169.511 57.0671 169.585 56.9375 169.651C56.7144 169.763 56.4816 169.855 56.2419 169.926C56.0011 169.966 55.7635 170.024 55.5312 170.099V170.099Z" fill="#263238"/>
<path d="M55.6253 170.2C55.7574 169.992 55.8218 169.747 55.8095 169.501C55.8208 169.233 55.7852 168.966 55.7043 168.711C55.6577 168.558 55.5946 168.411 55.5162 168.271C55.4791 168.173 55.4168 168.087 55.3356 168.021C55.2544 167.955 55.1571 167.912 55.0538 167.895C54.9896 167.897 54.9274 167.918 54.8742 167.954C54.821 167.99 54.779 168.04 54.753 168.098C54.7188 168.184 54.6948 168.274 54.6815 168.365C54.6589 168.526 54.6589 168.689 54.6815 168.85C54.7224 169.123 54.831 169.382 54.9974 169.602C55.2794 169.978 55.5764 170.057 55.5802 170.031C55.5839 170.005 55.3583 169.862 55.1402 169.505C55.008 169.299 54.9244 169.066 54.8958 168.824C54.8772 168.685 54.8772 168.545 54.8958 168.407C54.9184 168.252 54.9748 168.128 55.0312 168.143C55.0876 168.158 55.2267 168.256 55.2869 168.38C55.3591 168.499 55.4196 168.625 55.4674 168.756C55.5511 168.987 55.6005 169.229 55.614 169.474C55.6479 169.926 55.5877 170.189 55.6253 170.2Z" fill="#263238"/>
<g opacity="0.3">
<path opacity="0.3" d="M62.6752 170.313L62.6602 171.949H55.7568V171.05L62.6752 170.313Z" fill="black"/>
</g>
<path d="M84.111 53.8582C83.9493 53.8582 83.532 55.49 83.3252 56.3097C83.2508 56.61 83.2938 56.9274 83.4455 57.197L85.1037 60.1336C85.4139 60.6762 85.8629 61.1265 86.4046 61.4383L87.2356 61.9083L87.3446 63.653L92.0108 63.7282L90.5895 58.2799L89.9954 54.9598C89.9163 54.797 89.7991 54.6557 89.6538 54.5477C89.5086 54.4397 89.3394 54.3683 89.1607 54.3394L88.7208 54.2755L88.5553 53.8544C88.5076 53.7348 88.43 53.6295 88.33 53.5486C88.2299 53.4676 88.1107 53.4136 87.9838 53.3919L87.7093 53.3581L87.3333 52.4143C87.2721 52.2647 87.1681 52.1363 87.0343 52.0454C86.9006 51.9545 86.7431 51.9049 86.5813 51.903L84.3253 51.933C84.3253 51.933 83.829 52.6023 84.9683 52.9182C85.2836 53.0075 85.6108 53.0481 85.9384 53.0385L86.4648 55.0726C86.4648 55.0726 86.8408 57.2083 85.8369 57.2083C84.957 57.2083 84.8743 56.0578 84.8743 56.0578C84.8743 56.0578 85.2616 53.7303 84.111 53.8582Z" fill="#FFBE9D"/>
<path d="M88.7359 55.8961C88.7166 55.7527 88.6877 55.6107 88.6494 55.4712C88.5307 55.14 88.3077 54.8563 88.014 54.6628C87.8577 54.3407 87.7403 54.0012 87.6643 53.6513C87.6219 53.5088 87.6054 53.3598 87.6154 53.2114C87.6154 53.2114 87.6455 53.3769 87.7169 53.6363C87.8099 53.9711 87.9293 54.298 88.0741 54.6139L88.3035 54.8019C88.3732 54.8682 88.4362 54.9412 88.4915 55.02C88.5866 55.152 88.6578 55.2996 88.702 55.4561C88.7318 55.5601 88.747 55.6676 88.7472 55.7757C88.7506 55.8162 88.7468 55.857 88.7359 55.8961V55.8961Z" fill="#EB996E"/>
<path d="M89.454 55.5013C89.4438 55.4277 89.4209 55.3564 89.3863 55.2907C89.3426 55.2121 89.2804 55.1453 89.205 55.0961C89.1297 55.047 89.0435 55.017 88.9539 55.0087H88.9276V54.9862L88.9012 54.9147C88.7895 54.6404 88.7002 54.3575 88.6343 54.0687C88.7731 54.3296 88.8877 54.6027 88.9764 54.8846L89.0028 54.9598L88.9689 54.9335C89.0707 54.9431 89.1682 54.9794 89.2514 55.0388C89.3346 55.0983 89.4006 55.1787 89.4427 55.2719C89.4878 55.4073 89.4652 55.5088 89.454 55.5013Z" fill="#EB996E"/>
<path d="M85.8897 53.0461C85.8709 53.0461 85.7844 52.9445 85.8069 52.7866C85.8295 52.6287 85.9047 52.5309 85.9235 52.5422C85.9423 52.5535 85.9009 52.6588 85.8859 52.7941C85.8709 52.9295 85.9085 53.0348 85.8897 53.0461Z" fill="#EB996E"/>
<path d="M61.9873 74.1997L70.4473 74.0945L69.5035 66.8865C69.5035 66.8865 70.0826 66.7625 70.1202 63.6304C70.1578 60.4983 70.3044 55.1666 70.3044 55.1666C68.5219 54.4014 66.5676 54.1254 64.6429 54.3673C62.7183 54.6093 60.893 55.3602 59.3553 56.5428L58.8928 56.9188L61.9873 74.1997Z" fill="#FFBE9D"/>
<path d="M59.874 60.7578C59.8214 60.7353 57.7196 60.1186 57.7872 62.2618C57.8549 64.405 59.9944 63.8937 59.9944 63.8335C59.9944 63.7734 59.874 60.7578 59.874 60.7578Z" fill="#FFBE9D"/>
<path d="M69.9358 60.3103C69.9884 60.2877 71.8985 59.7726 71.8158 61.9158C71.733 64.059 69.6086 63.5477 69.6086 63.4837C69.6086 63.4198 69.9358 60.3103 69.9358 60.3103Z" fill="#FFBE9D"/>
<path d="M72.3461 54.1176C72.3675 53.9231 72.3394 53.7264 72.2645 53.5456C72.1896 53.3649 72.0702 53.206 71.9175 53.0836C71.7599 52.9676 71.566 52.9118 71.3708 52.9263C71.1757 52.9408 70.9921 53.0246 70.8534 53.1626C70.8827 53.0316 70.8842 52.8959 70.8578 52.7643C70.8314 52.6327 70.7777 52.5081 70.7 52.3986C70.6224 52.289 70.5227 52.197 70.4072 52.1285C70.2918 52.06 70.1633 52.0165 70.0299 52.0008C69.5186 51.9707 69.0824 52.3542 68.5899 52.4896C68.097 52.5954 67.5829 52.536 67.1272 52.3204C66.661 52.1361 66.2286 51.8767 65.7586 51.7075C64.7661 51.3434 63.67 51.3866 62.7092 51.8275C61.7485 52.2684 61.001 53.0714 60.6299 54.0612C60.2811 53.9767 59.9148 53.9997 59.5793 54.1272C59.2437 54.2547 58.9546 54.4807 58.7499 54.7756C58.3514 55.3822 58.192 56.115 58.3025 56.8324C58.3769 57.3133 58.503 57.7847 58.6785 58.2386C58.6785 58.28 58.6785 58.3176 58.6785 58.3589C58.7086 60.081 59.6072 65.5292 60.3442 65.5405C61.6263 65.5593 60.6187 59.7238 60.6187 59.7238C62.1903 59.1147 61.6038 56.7572 61.9986 56.4C62.3934 56.0428 63.2131 55.2118 66.5106 56.8963C67.7363 57.4434 69.1031 57.5907 70.4172 57.3174H70.4999H70.5187C70.5187 57.3174 70.5375 57.3174 70.5488 57.3174C70.8474 57.2367 71.1316 57.1098 71.3911 56.9414C71.6993 56.7653 71.9431 56.4952 72.0867 56.1706C72.1554 56.0072 72.175 55.8273 72.1429 55.653C72.1109 55.4786 72.0286 55.3175 71.9062 55.1892C72.154 54.8825 72.3068 54.51 72.3461 54.1176V54.1176Z" fill="#263238"/>
<path d="M59.1785 60.536C59.4981 62.3333 59.4341 63.277 59.7312 64.4765C60.2012 66.3565 61.1449 67.8304 62.852 68.7779C64.559 69.7254 66.8752 69.7066 68.3454 68.4019C69.3643 67.507 70.0862 66.4956 70.2254 65.1457C70.3645 63.7959 70.5299 61.4121 70.5412 60.0547C70.5412 57.6069 70.7217 55.2682 70.7217 55.2682L63.7281 54.0011L59.75 56.3661L59.1785 60.536Z" fill="#263238"/>
<path d="M66.3901 69.842C65.9988 69.9886 65.5749 70.025 65.1643 69.9473C64.746 69.9332 64.3398 69.803 63.9912 69.5713C64.0138 69.5186 64.5289 69.6803 65.1869 69.7517C65.8449 69.8232 66.3826 69.7818 66.3901 69.842Z" fill="#263238"/>
<path d="M68.2063 53.6853C68.1002 53.7237 67.9883 53.744 67.8755 53.7454C67.5646 53.7481 67.2576 53.6759 66.9806 53.5349C66.5787 53.3253 66.2006 53.0732 65.8526 52.7829C65.4292 52.4287 64.9192 52.1938 64.3749 52.1023C63.8287 52.0279 63.2729 52.1251 62.7844 52.3805C62.3875 52.5944 62.0531 52.908 61.8143 53.2905C61.5964 53.6447 61.4543 54.0403 61.397 54.4523C61.3979 54.34 61.4093 54.2279 61.4308 54.1177C61.4925 53.8149 61.6057 53.5249 61.7655 53.2604C62.0052 52.8647 62.345 52.5392 62.7506 52.3166C63.2515 52.0499 63.8241 51.9485 64.3862 52.0271C64.9424 52.117 65.463 52.359 65.8902 52.7265C66.2411 53.0129 66.6188 53.2647 67.0182 53.4785C67.2864 53.6203 67.5835 53.6987 67.8867 53.7078C68.0898 53.7153 68.2063 53.674 68.2063 53.6853Z" fill="#455A64"/>
<path d="M61.491 54.5651C61.3306 54.4868 61.1632 54.4238 60.9909 54.3771C60.5687 54.2824 60.1263 54.3524 59.7539 54.5726C59.3905 54.8061 59.1317 55.1713 59.032 55.5916C58.9969 55.7675 58.9781 55.9462 58.9756 56.1255C58.9605 56.0794 58.9529 56.0312 58.953 55.9826C58.9413 55.848 58.9502 55.7123 58.9793 55.5803C59.02 55.3599 59.1063 55.1504 59.2326 54.9652C59.359 54.7801 59.5226 54.6233 59.7131 54.5051C59.9035 54.3869 60.1166 54.3097 60.3386 54.2786C60.5606 54.2475 60.7866 54.2631 61.0022 54.3245C61.1339 54.3586 61.2604 54.4105 61.3782 54.4786C61.4205 54.5008 61.4586 54.53 61.491 54.5651Z" fill="#455A64"/>
<path d="M61.2878 62.2092C60.8404 61.5141 60.5054 60.7527 60.2952 59.9532C60.7425 60.6484 61.0775 61.4098 61.2878 62.2092Z" fill="#455A64"/>
<path d="M63.1189 63.4386C62.7029 63.2089 62.3592 62.8678 62.1263 62.4535C61.8405 62.0734 61.6649 61.6221 61.6187 61.1488C61.6751 61.1488 61.8781 61.7166 62.2917 62.3445C62.7053 62.9724 63.1678 63.3973 63.1189 63.4386Z" fill="#455A64"/>
<path d="M64.9237 63.8373C64.6058 63.7404 64.3182 63.5629 64.089 63.3221C63.6754 62.9461 63.4235 62.5965 63.4649 62.5701C63.5062 62.5438 63.8183 62.8333 64.2169 63.1793C64.6154 63.5252 64.9538 63.7884 64.9237 63.8373Z" fill="#455A64"/>
<path d="M68.116 60.9308C68.1643 61.2976 68.0987 61.6704 67.928 61.9986C67.8154 62.3512 67.5992 62.6618 67.3076 62.8897C67.4348 62.5591 67.5817 62.2364 67.7475 61.9234C67.8525 61.5862 67.9755 61.2548 68.116 60.9308V60.9308Z" fill="#455A64"/>
<path d="M69.1838 59.2388C69.2672 59.6791 69.2242 60.1341 69.0597 60.551C68.9642 60.9865 68.7463 61.3856 68.4318 61.7016C68.3867 61.6677 68.6875 61.1714 68.898 60.4946C69.1086 59.8178 69.1424 59.2388 69.1838 59.2388Z" fill="#455A64"/>
<path d="M70.0298 54.8959C69.9483 54.9809 69.8545 55.0531 69.7515 55.1103C69.4699 55.2737 69.155 55.3713 68.8303 55.396C68.3487 55.4294 67.8657 55.3549 67.4166 55.1779C66.8756 54.9583 66.3527 54.6968 65.8524 54.3959C65.3537 54.1006 64.8192 53.8706 64.2619 53.7115C63.8054 53.5861 63.3235 53.5861 62.867 53.7115C62.5609 53.7977 62.2807 53.9579 62.051 54.1778C61.8931 54.3395 61.833 54.4523 61.8254 54.4447C61.8778 54.3395 61.9463 54.2431 62.0285 54.159C62.2541 53.9226 62.5382 53.7501 62.8519 53.6589C63.3155 53.5192 63.8086 53.5101 64.277 53.6326C64.8432 53.7881 65.3858 54.0195 65.89 54.3207C66.3877 54.6192 66.9067 54.8806 67.4429 55.1027C67.8814 55.2809 68.354 55.3593 68.8266 55.3321C69.2625 55.3117 69.682 55.1596 70.0298 54.8959V54.8959Z" fill="#455A64"/>
<path d="M70.6504 55.9223C70.6164 55.9524 70.5784 55.9777 70.5376 55.9975C70.4295 56.0594 70.3177 56.1147 70.2029 56.163C69.4418 56.4845 68.5993 56.5607 67.7928 56.3811C67.6656 56.3562 67.54 56.3236 67.4168 56.2833C67.3341 56.2532 67.2889 56.2344 67.2927 56.2269C67.2965 56.2194 67.4807 56.272 67.7853 56.3284C68.1835 56.3989 68.5893 56.4166 68.9922 56.3811C69.3933 56.3418 69.7876 56.2508 70.1653 56.1103C70.4737 56.0013 70.6466 55.9111 70.6504 55.9223Z" fill="#455A64"/>
<path d="M66.755 120.704L68.8117 140.541L70.2894 170.418H78.1741L78.3885 106.833L55.8134 108.442L51.136 141.805L55.1893 171.005H63.841L61.8144 143.237L66.755 120.704Z" fill="#263238"/>
<path d="M66.7549 120.696C66.2912 121.244 65.7776 121.747 65.2209 122.2C64.708 122.705 64.1505 123.163 63.5552 123.569C64.0208 123.023 64.5342 122.519 65.0893 122.065C65.6014 121.558 66.159 121.1 66.7549 120.696V120.696Z" fill="#455A64"/>
<path d="M66.7323 120.32C66.6986 119.471 66.7124 118.621 66.7736 117.774C66.7739 116.925 66.8228 116.076 66.9203 115.233C67.021 116.079 67.0374 116.933 66.9692 117.782C66.9715 118.634 66.8922 119.483 66.7323 120.32V120.32Z" fill="#455A64"/>
<path d="M69.338 112.901C69.3805 112.897 69.4234 112.897 69.4659 112.901L69.8419 112.879L71.3459 112.807L76.6926 112.582H76.7828V112.676C76.7828 114.342 76.7828 116.229 76.7828 118.226V118.399L76.7189 118.421L73.2447 119.816H73.2108H73.177L70.1051 118.748H70.0562V118.699C69.8306 116.966 69.6463 115.522 69.511 114.488C69.4508 114.007 69.4057 113.62 69.3681 113.33C69.3305 113.041 69.3267 112.932 69.3305 112.935C69.3419 112.972 69.3507 113.01 69.3568 113.048C69.3568 113.135 69.3869 113.236 69.4095 113.36C69.4546 113.653 69.5185 114.045 69.5937 114.533C69.7479 115.552 69.9697 116.97 70.2179 118.669L70.1652 118.602L73.2447 119.647H73.1807L76.655 118.244L76.5948 118.335V118.229C76.5948 116.233 76.5948 114.345 76.5948 112.68L76.6851 112.766L71.3985 112.898L69.8945 112.924H69.338V112.901Z" fill="#455A64"/>
<path d="M57.9566 112.999C57.9952 112.994 58.0344 112.994 58.0731 112.999H58.4228L59.7764 112.954L64.6644 112.841H64.7546V112.932C64.702 114.578 64.6418 116.477 64.5779 118.496V118.549L64.5366 118.575L63.9726 118.951L61.115 120.831L61.0661 120.865L61.0134 120.831L57.7723 118.816L57.731 118.79V118.745C57.7911 117.015 57.8438 115.575 57.8776 114.541C57.9002 114.06 57.919 113.672 57.9302 113.387C57.9317 113.255 57.9404 113.123 57.9566 112.992C57.9622 113.029 57.9622 113.067 57.9566 113.105V113.417C57.9566 113.71 57.9566 114.101 57.9566 114.593C57.9566 115.612 57.919 117.037 57.8964 118.729L57.855 118.658L61.0886 120.594H60.9871L63.8447 118.714L64.4087 118.338L64.3636 118.417C64.4388 116.395 64.5065 114.496 64.5666 112.849L64.6531 112.939L59.829 112.965H58.0919L57.9566 112.999Z" fill="#455A64"/>
<path d="M75.9519 121.986C75.5957 122.009 75.238 121.998 74.884 121.952C74.226 121.903 73.3199 121.813 72.3197 121.685C71.3195 121.557 70.4209 121.41 69.7742 121.29C69.4198 121.245 69.0708 121.164 68.7327 121.049C69.0883 121.053 69.443 121.087 69.793 121.151L72.346 121.489L74.8991 121.813C75.2542 121.841 75.6063 121.899 75.9519 121.986V121.986Z" fill="#455A64"/>
<path d="M75.7677 144.098C75.7677 144.098 75.7376 144.215 75.5834 144.35C75.3541 144.533 75.0682 144.63 74.775 144.625C74.3432 144.611 73.9287 144.452 73.5982 144.173C73.2078 143.846 72.849 143.482 72.5265 143.087C71.924 142.387 71.389 141.631 70.9285 140.831C70.7231 140.51 70.5554 140.167 70.4285 139.808C70.6518 140.113 70.8577 140.431 71.0451 140.759C71.537 141.526 72.081 142.259 72.6732 142.951C72.9894 143.336 73.3364 143.695 73.7109 144.023C74.0078 144.287 74.3828 144.447 74.7788 144.478C75.0438 144.494 75.3071 144.426 75.5308 144.283C75.6925 144.181 75.7564 144.091 75.7677 144.098Z" fill="#455A64"/>
<path d="M60.1975 144.798C60.1975 144.798 60.1975 144.899 60.0922 145.05C59.9529 145.262 59.7663 145.44 59.547 145.568C59.2184 145.759 58.844 145.857 58.4641 145.85C58.0008 145.834 57.5508 145.691 57.1632 145.437C56.4808 144.963 55.939 144.313 55.5952 143.557C55.4322 143.264 55.3059 142.952 55.2192 142.628C55.4112 142.903 55.5821 143.192 55.7306 143.493C56.099 144.197 56.6301 144.803 57.2797 145.26C57.6398 145.497 58.0563 145.635 58.4867 145.659C58.836 145.671 59.1827 145.595 59.4944 145.437C59.7707 145.275 60.0101 145.057 60.1975 144.798Z" fill="#455A64"/>
<path d="M60.7014 141.805C60.5121 141.971 60.2925 142.098 60.0547 142.181C59.4925 142.409 58.8941 142.537 58.2875 142.557C57.6785 142.584 57.0697 142.501 56.4902 142.312C56.2461 142.251 56.0171 142.141 55.8171 141.989C56.6121 142.242 57.4419 142.369 58.2762 142.365C59.1084 142.302 59.9261 142.113 60.7014 141.805V141.805Z" fill="#455A64"/>
<path d="M86.3595 71.7858H74.8652C74.8652 71.7858 73.301 70.8872 72.549 71.0338C71.995 71.2101 71.5039 71.5431 71.1353 71.9926L72.6581 84.6563L76.3805 81.904L90.2398 80.4639C90.8337 80.4575 91.4202 80.3314 91.9642 80.093C92.5082 79.8546 92.9985 79.5088 93.4057 79.0765V79.0765C93.8479 78.6068 94.1817 78.0459 94.3837 77.4334C94.5858 76.8208 94.6511 76.1714 94.5751 75.5308L92.0108 61.9083L86.7468 62.085L86.5362 65.5405L86.3595 71.7858Z" fill="#455A64"/>
<path d="M54.7154 74.9781C53.4806 75.7424 52.5115 76.869 51.9405 78.2042C51.2712 79.8135 46.6765 87.8524 44.2776 92.0561C43.851 92.8005 43.6764 93.663 43.7801 94.5148C43.8838 95.3666 44.2601 96.162 44.8529 96.7824V96.7824C46.3193 98.3127 48.7784 98.7338 50.9178 98.0382C51.8766 97.7261 55.7156 94.6091 55.7156 94.6091L54.7154 74.9781Z" fill="#455A64"/>
<path d="M56.7158 103.701L54.0801 81.0242L54.7155 74.9781L61.4271 72.1205L70.1165 71.549L78.3922 72.4626L76.4558 95.722L78.5727 108.841L55.3961 109.886L56.7158 103.701Z" fill="#455A64"/>
<path d="M56.7044 103.603C56.6518 103.603 56.0201 98.5609 55.2944 92.323C54.5687 86.0852 54.0273 81.043 54.08 81.0205C54.1326 80.9979 54.7643 86.0664 55.4899 92.3005C56.2156 98.5345 56.7759 103.596 56.7044 103.603Z" fill="#263238"/>
<path d="M78.2079 77.5499C78.2187 77.6184 78.2187 77.6882 78.2079 77.7567C78.2079 77.9109 78.1778 78.1026 78.1553 78.3395C78.0989 78.8697 78.0274 79.5954 77.9372 80.4752C77.753 82.3063 77.5048 84.7879 77.2303 87.5327C76.9558 90.2775 76.7528 92.7967 76.6174 94.594C76.5535 95.4776 76.5009 96.2033 76.4633 96.7372C76.4633 96.9741 76.4294 97.1658 76.4182 97.32C76.4163 97.3886 76.4062 97.4568 76.3881 97.523C76.3785 97.4557 76.3785 97.3873 76.3881 97.32C76.3881 97.1621 76.3881 96.9703 76.3881 96.7334C76.3881 96.2258 76.4332 95.4926 76.4783 94.5865C76.5798 92.7742 76.7716 90.27 77.0348 87.5139C77.298 84.7578 77.58 82.2499 77.7868 80.4602C77.8996 79.5615 77.9936 78.8321 78.0688 78.3282C78.1026 78.0951 78.1327 77.9034 78.1553 77.7492C78.1636 77.6807 78.1813 77.6136 78.2079 77.5499V77.5499Z" fill="#263238"/>
<path d="M74.2336 100.129C74.1201 100.288 73.9943 100.437 73.8576 100.576C73.7115 100.75 73.5545 100.915 73.3876 101.069C73.1921 101.249 72.9815 101.467 72.7183 101.67C72.4409 101.908 72.1496 102.129 71.846 102.332C71.5032 102.574 71.148 102.797 70.7819 103.001C69.0954 103.939 67.2245 104.497 65.2998 104.637C64.8562 104.637 64.4388 104.686 64.044 104.663C63.6794 104.659 63.3153 104.634 62.9536 104.588C62.6544 104.557 62.357 104.51 62.0625 104.449C61.8375 104.412 61.6152 104.361 61.397 104.295C61.2081 104.253 61.0232 104.195 60.8442 104.122C60.8442 104.077 61.6489 104.325 62.9649 104.449C63.3247 104.485 63.6861 104.503 64.0478 104.502C64.4238 104.502 64.8486 104.479 65.2848 104.457C67.1778 104.298 69.0175 103.748 70.6879 102.844C71.0639 102.622 71.4399 102.426 71.7482 102.201C72.0566 101.975 72.3611 101.768 72.6243 101.565C73.6734 100.738 74.1998 100.099 74.2336 100.129Z" fill="#263238"/>
<g opacity="0.3">
<path opacity="0.3" d="M61.9797 104.362C60.8517 104.039 60.7878 102.975 61.2277 102.52C61.6676 102.065 62.3557 102.005 62.9987 102.095C63.6145 102.246 64.2448 102.331 64.8787 102.347C65.9089 102.279 66.7587 101.561 67.4881 100.817C68.2176 100.072 68.8831 99.2376 69.8231 98.809C70.7631 98.3803 72.0791 98.5345 72.5679 99.4406C72.7092 99.7381 72.773 100.066 72.7533 100.395C72.7336 100.724 72.631 101.042 72.4551 101.321C72.1004 101.877 71.6233 102.345 71.0601 102.689C69.7483 103.584 68.2639 104.195 66.7022 104.484C65.1405 104.772 63.5358 104.73 61.991 104.362" fill="black"/>
</g>
<g opacity="0.2">
<path opacity="0.2" d="M55.0312 89.3488C54.8281 89.6346 52.8692 92.3117 52.8692 92.3117C52.8165 92.5824 50.9177 95.0302 50.9177 95.0302C50.9177 95.0302 52.606 94.0939 53.9032 93.4247C54.4514 93.0998 54.9709 92.7287 55.4561 92.3155C55.4561 92.3155 55.1628 90.4731 55.0349 89.785C54.7454 88.2434 54.5499 84.7654 54.5499 84.7654" fill="black"/>
</g>
<path d="M75.6849 72.2483C76.304 72.4727 76.8324 72.8941 77.1889 73.4477C77.6016 73.9621 77.8353 74.5971 77.8544 75.2563C77.5017 74.0315 76.7332 72.9678 75.6812 72.2483H75.6849Z" fill="#263238"/>
<path d="M55.0311 89.3489C54.8718 89.6722 54.6817 89.9795 54.4634 90.2663C54.0874 90.8153 53.5685 91.5673 52.9782 92.3907C51.7938 94.0301 50.7823 95.3423 50.7222 95.2671L51.3275 94.391L52.8315 92.2779C53.4218 91.4545 53.9595 90.7138 54.3618 90.1874C54.5593 89.8883 54.7833 89.6077 55.0311 89.3489V89.3489Z" fill="#263238"/>
</svg>
