<svg width="17" height="17" viewBox="0 0 17 17" fill="none" xmlns="http://www.w3.org/2000/svg">
<path d="M4.93917 9.70744C5.41692 9.70744 5.8787 9.67658 6.31568 9.61913V4.82947C5.87874 4.77207 5.41692 4.74121 4.93917 4.74121C2.21135 4.74121 0 5.74415 0 6.98139V7.46722C0 8.70441 2.21135 9.70744 4.93917 9.70744Z" fill="black"/>
<path d="M4.93917 12.2085C5.41692 12.2085 5.8787 12.1776 6.31568 12.1203V10.7164C5.87861 10.7738 5.41704 10.805 4.93917 10.805C2.55808 10.805 0.570701 10.0408 0.103879 9.02368C0.0358963 9.17184 0 9.32524 0 9.4825V9.96833C0 11.2056 2.21135 12.2085 4.93917 12.2085Z" fill="black"/>
<path d="M6.31568 13.3267V13.2176C5.87862 13.275 5.41704 13.3063 4.93917 13.3063C2.55808 13.3063 0.570701 12.542 0.103879 11.5249C0.0358963 11.673 0 11.8264 0 11.9837V12.4695C0 13.7068 2.21135 14.7097 4.93917 14.7097C5.48469 14.7097 6.00938 14.6695 6.50003 14.5954C6.37841 14.3467 6.31568 14.0843 6.31568 13.8125V13.3267Z" fill="black"/>
<path d="M12.0608 0.947266C9.33293 0.947266 7.12158 1.9502 7.12158 3.18744V3.67327C7.12158 4.9105 9.33293 5.91344 12.0608 5.91344C14.7885 5.91344 16.9999 4.9105 16.9999 3.67327V3.18744C16.9999 1.9502 14.7885 0.947266 12.0608 0.947266Z" fill="black"/>
<path d="M12.0608 7.01109C9.67966 7.01109 7.69228 6.2469 7.22546 5.22974C7.15748 5.37785 7.12158 5.53126 7.12158 5.68856V6.17439C7.12158 7.41162 9.33293 8.41456 12.0608 8.41456C14.7885 8.41456 16.9999 7.41162 16.9999 6.17439V5.68856C16.9999 5.53126 16.964 5.37785 16.8961 5.22974C16.4292 6.2469 14.4419 7.01109 12.0608 7.01109Z" fill="black"/>
<path d="M12.0608 9.51207C9.67966 9.51207 7.69228 8.74783 7.22546 7.73071C7.15748 7.87883 7.12158 8.03223 7.12158 8.18953V8.67536C7.12158 9.91264 9.33293 10.9156 12.0608 10.9156C14.7885 10.9156 16.9999 9.91264 16.9999 8.67536V8.18953C16.9999 8.03223 16.964 7.87883 16.8961 7.73071C16.4292 8.74787 14.4419 9.51207 12.0608 9.51207Z" fill="black"/>
<path d="M12.0608 12.1481C9.67966 12.1481 7.69228 11.3838 7.22546 10.3667C7.15748 10.5149 7.12158 10.6682 7.12158 10.8255V11.3113C7.12158 12.5486 9.33293 13.5515 12.0608 13.5515C14.7885 13.5515 16.9999 12.5486 16.9999 11.3113V10.8255C16.9999 10.6682 16.964 10.5148 16.8961 10.3667C16.4292 11.3838 14.4419 12.1481 12.0608 12.1481Z" fill="black"/>
<path d="M12.0608 14.649C9.67966 14.649 7.69228 13.8848 7.22546 12.8677C7.15748 13.0159 7.12158 13.1693 7.12158 13.3265V13.8123C7.12158 15.0496 9.33293 16.0525 12.0608 16.0525C14.7885 16.0525 16.9999 15.0496 16.9999 13.8123V13.3265C16.9999 13.1692 16.964 13.0157 16.8961 12.8677C16.4292 13.8848 14.4419 14.649 12.0608 14.649Z" fill="black"/>
</svg>
