<svg width="37" height="36" viewBox="0 0 37 36" fill="none" xmlns="http://www.w3.org/2000/svg">
<circle cx="18.2" cy="18" r="18" fill="#4E6297"/>
<path d="M26.3 12.4367C26.3 11.089 25.1109 9.8999 23.7632 9.8999H13.5368C12.1891 9.8999 11 11.089 11 12.4367V22.6631C11 24.0108 12.1891 25.1999 13.5368 25.1999H18.6896V19.4129H16.787V16.8761H18.6896V15.8455C18.6896 14.1015 19.958 12.5952 21.5435 12.5952H23.6047V15.132H21.5435C21.3057 15.132 21.0679 15.3699 21.0679 15.8455V16.8761H23.6047V19.4129H21.0679V25.1999H23.7632C25.1109 25.1999 26.3 24.0108 26.3 22.6631V12.4367Z" fill="white"/>
</svg>
