<svg width="37" height="36" viewBox="0 0 37 36" fill="none" xmlns="http://www.w3.org/2000/svg">
<circle cx="18.8999" cy="18" r="18" fill="#F79A38"/>
<path d="M24.5137 20.5136C24.986 20.0414 25.0535 19.3667 24.6487 18.6921C24.3113 18.1524 23.7042 17.8825 23.0295 18.0174C22.7596 18.0849 22.4898 18.2198 22.2199 18.4222C20.1285 19.839 17.295 19.7715 15.2036 18.3548C15.0686 18.2873 14.9337 18.2198 14.7988 18.1524C14.0567 17.815 13.3146 17.95 12.9098 18.6246C12.4375 19.2993 12.505 20.0414 13.1122 20.6486C13.2471 20.7835 13.382 20.851 13.4495 20.9859L13.517 21.0534C14.4615 21.7955 15.6084 22.2677 17.0926 22.4701L16.2155 23.3472C15.4734 24.0893 14.6639 24.8989 13.9217 25.641C13.7194 25.8434 13.4495 26.1807 13.4495 26.653C13.4495 27.2601 13.7868 27.8673 14.394 28.1372C14.5964 28.2721 14.7988 28.2721 15.0012 28.2721C15.3385 28.2721 15.7433 28.1372 16.0132 27.7999C17.0251 26.7879 17.8347 25.9783 18.6443 25.1687C18.7118 25.1013 18.7117 25.1013 18.7117 25.1013C18.7117 25.1013 18.7792 25.1013 18.7792 25.1687C19.3189 25.7759 19.9261 26.3156 20.4658 26.9228C20.7357 27.1927 21.0056 27.4625 21.2754 27.7324C21.6127 28.0697 21.8826 28.2047 22.2874 28.2047C22.8946 28.2721 23.5692 27.8673 23.8391 27.2601C24.1089 26.7204 23.974 26.0458 23.5018 25.641C22.8271 24.9663 22.1525 24.2242 21.4103 23.5496L20.2634 22.4027C20.8706 22.3352 21.5453 22.2003 22.1525 21.9304C23.1644 21.5931 23.9065 21.1208 24.5137 20.5136Z" fill="white"/>
<path d="M18.7117 18.6246C21.6127 18.6246 23.974 16.3308 23.974 13.4298C23.974 12.0131 23.4343 10.6638 22.4223 9.65179C21.4103 8.63982 20.1285 8.1001 18.7792 8.1001C15.8782 8.1001 13.5844 10.4614 13.517 13.2949C13.517 14.7117 14.0567 15.9935 15.0686 17.0055C16.0132 18.0849 17.295 18.6246 18.7117 18.6246ZM17.2275 11.8781C17.6323 11.4733 18.172 11.2709 18.7117 11.2709C19.9261 11.2709 20.8032 12.2155 20.8032 13.3624C20.8032 14.5767 19.8587 15.4538 18.7117 15.4538C17.4974 15.4538 16.6203 14.5093 16.6203 13.3624C16.6203 12.8226 16.8227 12.2829 17.2275 11.8781Z" fill="white"/>
<path d="M24.5137 20.5136C24.986 20.0414 25.0535 19.3667 24.6487 18.6921C24.3113 18.1524 23.7042 17.8825 23.0295 18.0174C22.7596 18.0849 22.4898 18.2198 22.2199 18.4222C20.1285 19.839 17.295 19.7715 15.2036 18.3548C15.0686 18.2873 14.9337 18.2198 14.7988 18.1524C14.0567 17.815 13.3146 17.95 12.9098 18.6246C12.4375 19.2993 12.505 20.0414 13.1122 20.6486C13.2471 20.7835 13.382 20.851 13.4495 20.9859L13.517 21.0534C14.4615 21.7955 15.6084 22.2677 17.0926 22.4701L16.2155 23.3472C15.4734 24.0893 14.6639 24.8989 13.9217 25.641C13.7194 25.8434 13.4495 26.1807 13.4495 26.653C13.4495 27.2601 13.7868 27.8673 14.394 28.1372C14.5964 28.2721 14.7988 28.2721 15.0012 28.2721C15.3385 28.2721 15.7433 28.1372 16.0132 27.7999C17.0251 26.7879 17.8347 25.9783 18.6443 25.1687C18.7118 25.1013 18.7117 25.1013 18.7117 25.1013C18.7117 25.1013 18.7792 25.1013 18.7792 25.1687C19.3189 25.7759 19.9261 26.3156 20.4658 26.9228C20.7357 27.1927 21.0056 27.4625 21.2754 27.7324C21.6127 28.0697 21.8826 28.2047 22.2874 28.2047C22.8946 28.2721 23.5692 27.8673 23.8391 27.2601C24.1089 26.7204 23.974 26.0458 23.5018 25.641C22.8271 24.9663 22.1525 24.2242 21.4103 23.5496L20.2634 22.4027C20.8706 22.3352 21.5453 22.2003 22.1525 21.9304C23.1644 21.5931 23.9065 21.1208 24.5137 20.5136Z" fill="white"/>
</svg>
