<svg width="37" height="36" viewBox="0 0 37 36" fill="none" xmlns="http://www.w3.org/2000/svg">
<circle cx="18.6001" cy="18" r="18" fill="#00A9E7"/>
<path d="M27.8865 18.9615C27.9478 18.4706 28.0092 18.041 28.0092 17.5501C28.0092 12.641 24.0206 8.59101 19.0501 8.59101C18.5592 8.59101 18.1296 8.65237 17.6387 8.71373C16.841 8.28419 15.9819 8.1001 15.1228 8.1001C12.0546 8.1001 9.6001 10.5546 9.6001 13.6228C9.6001 14.4819 9.78419 15.341 10.2137 16.1387C10.1524 16.6296 10.091 17.0592 10.091 17.5501C10.091 22.4592 14.0796 26.5092 19.0501 26.5092C19.541 26.5092 19.9706 26.4478 20.4615 26.3865C21.2592 26.7546 22.1183 27.0001 22.9774 27.0001C26.0456 27.0001 28.5001 24.5456 28.5001 21.4774C28.5001 20.6183 28.2546 19.7592 27.8865 18.9615ZM22.7933 20.8024C22.6092 21.1706 22.3637 21.4774 21.9956 21.7228C21.6274 21.9683 21.2592 22.1524 20.7683 22.2751C20.2774 22.3978 19.7251 22.4592 19.1115 22.4592C17.8228 22.4592 16.7796 22.1524 16.0433 21.6001C15.6137 21.2319 15.2456 20.8024 15.0615 20.2501C14.816 19.7592 15.2456 19.1456 15.8592 19.1456H16.0433C16.4115 19.1456 16.7796 19.391 16.9024 19.6978C17.0251 20.0046 17.2092 20.2501 17.4546 20.4342C17.8228 20.741 18.3751 20.8637 19.0501 20.8637C19.6637 20.8637 20.1546 20.741 20.5228 20.5569C20.891 20.3728 21.0751 20.0046 21.0751 19.6365C21.0751 19.4524 21.0137 19.3296 20.9524 19.2069C20.891 19.0842 20.7069 18.9615 20.5842 18.9001C20.4001 18.7774 20.216 18.716 19.9092 18.6546C19.6637 18.5933 19.3569 18.4706 18.9887 18.4092L18.6206 18.2865C18.191 18.1637 17.7001 18.041 17.3319 17.9183C16.9024 17.7956 16.5342 17.6115 16.2274 17.4274C15.9206 17.2433 15.6751 16.9978 15.491 16.6296C15.3069 16.3228 15.2456 15.8933 15.2456 15.4024C15.2456 14.9115 15.3683 14.4819 15.5524 14.1137C15.7365 13.7456 16.0433 13.4387 16.3501 13.2546C16.7183 13.0092 17.0865 12.8251 17.5774 12.7637C18.0069 12.641 18.4978 12.5796 19.0501 12.5796C19.6637 12.5796 20.1546 12.641 20.6456 12.7637C21.1365 12.8865 21.5046 13.0706 21.8728 13.3774C22.241 13.6228 22.4865 13.9296 22.6706 14.3592C22.9774 14.9115 22.5478 15.6478 21.8728 15.6478H21.6887C21.3206 15.6478 21.0137 15.4637 20.8296 15.1569C20.7069 14.9728 20.5842 14.7887 20.4001 14.6046C20.0933 14.3592 19.6024 14.2365 19.0501 14.2365C18.4978 14.2365 18.0683 14.3592 17.7615 14.5433C17.4546 14.7274 17.3319 15.0342 17.3319 15.341C17.3319 15.5251 17.3933 15.6478 17.4546 15.7706C17.516 15.8933 17.6387 16.016 17.8228 16.0774C18.0069 16.1387 18.191 16.2615 18.4365 16.3228C18.6819 16.3842 18.9887 16.4456 19.3569 16.5683C19.7251 16.6296 20.0319 16.7524 20.4001 16.8137C20.7069 16.8751 21.0137 16.9978 21.3206 17.0592C21.6274 17.1819 21.8728 17.3046 22.1183 17.4274C22.3637 17.5501 22.5478 17.7342 22.7319 17.9183C22.916 18.1024 23.0387 18.3478 23.1001 18.5933C23.2228 18.8387 23.2228 19.2069 23.2228 19.5751C23.1001 20.0046 22.9774 20.4342 22.7933 20.8024Z" fill="white"/>
</svg>
