<svg width="36" height="36" viewBox="0 0 36 36" fill="none" xmlns="http://www.w3.org/2000/svg">
<circle cx="18" cy="18" r="18" fill="#2F89CE"/>
<path d="M8.41573 18.3365L12.554 19.8796L14.1672 25.0699C14.2374 25.4206 14.6582 25.4908 14.9388 25.2804L17.2534 23.3866C17.4638 23.1762 17.8145 23.1762 18.0951 23.3866L22.2334 26.4026C22.5139 26.613 22.9348 26.4727 23.0049 26.122L26.0911 11.3926C26.1612 11.0419 25.8105 10.6912 25.4598 10.8315L8.41573 17.4247C7.99489 17.5649 7.99489 18.1962 8.41573 18.3365ZM13.9568 19.108L22.0931 14.1281C22.2333 14.0579 22.3736 14.2683 22.2334 14.3385L15.57 20.581C15.3596 20.7914 15.1492 21.0719 15.1492 21.4226L14.9388 23.106C14.9388 23.3164 14.5881 23.3866 14.5179 23.106L13.6762 20.0198C13.4658 19.6691 13.6061 19.2483 13.9568 19.108Z" fill="white"/>
</svg>
