<svg width="37" height="36" viewBox="0 0 37 36" fill="none" xmlns="http://www.w3.org/2000/svg">
<circle cx="18.3" cy="18" r="18" fill="#55ACE3"/>
<path d="M27.8399 13.4102C27.2099 13.6802 26.49 13.8602 25.77 13.9502C26.49 13.5002 27.1199 12.7802 27.3899 11.9702C26.6699 12.4202 25.95 12.6902 25.05 12.8702C24.42 12.1502 23.4299 11.7002 22.4399 11.7002C20.4599 11.7002 18.8399 13.3202 18.8399 15.3002C18.8399 15.5702 18.8399 15.8402 18.9299 16.1102C15.9599 15.9302 13.2599 14.4902 11.4599 12.3302C11.1899 12.8702 11.0099 13.5002 11.0099 14.1302C11.0099 15.3902 11.6399 16.4702 12.6299 17.1002C11.9999 17.1002 11.4599 16.9202 11.0099 16.6502C11.0099 18.3602 12.2699 19.8902 13.8899 20.1602C13.6199 20.2502 13.26 20.2502 12.9 20.2502C12.63 20.2502 12.4499 20.2502 12.1799 20.1602C12.6299 21.6002 13.98 22.6802 15.6 22.6802C14.34 23.6702 12.81 24.2102 11.1 24.2102C10.83 24.2102 10.56 24.2102 10.2 24.1202C11.82 25.1102 13.7099 25.7402 15.7799 25.7402C22.4399 25.7402 26.0399 20.2502 26.0399 15.4802V15.0302C26.7599 14.7602 27.3899 14.1302 27.8399 13.4102Z" fill="white"/>
</svg>
