<svg width="37" height="36" viewBox="0 0 37 36" fill="none" xmlns="http://www.w3.org/2000/svg">
<circle cx="18.1001" cy="18" r="18" fill="#7C509A"/>
<path d="M23.7286 9.49132C20.2983 8.83623 16.736 8.83623 13.3056 9.49132C11.7883 9.81887 9.87523 11.6531 9.54539 13.0944C8.95167 15.9113 8.95167 18.7937 9.54539 21.6106C9.9412 23.0518 11.8543 24.8861 13.3056 25.2136C13.3716 25.2136 13.4375 25.2791 13.4375 25.3447V29.4718C13.4375 29.6683 13.7014 29.7993 13.8333 29.6028L15.8124 27.572C15.8124 27.572 17.3956 25.9342 17.6595 25.6722C17.6595 25.6722 17.7255 25.6067 17.7915 25.6067C19.7705 25.6722 21.8155 25.4757 23.7946 25.1481C25.3119 24.8206 27.225 22.9863 27.5548 21.5451C28.1485 18.7282 28.1485 15.8458 27.5548 13.0288C27.159 11.6531 25.2459 9.81887 23.7286 9.49132ZM23.7946 21.8071C23.4648 22.4622 23.0689 22.9863 22.4093 23.3139C22.2114 23.3794 22.0135 23.4449 21.8155 23.5104C21.5517 23.4449 21.3538 23.3794 21.1559 23.3139C19.0449 22.4622 17.0658 21.2831 15.4826 19.5798C14.625 18.5972 13.8993 17.4835 13.3056 16.3043C13.0417 15.7147 12.7778 15.1907 12.5799 14.6011C12.382 14.077 12.7119 13.5529 13.0417 13.1599C13.3716 12.7668 13.7674 12.5048 14.2292 12.3082C14.559 12.1117 14.8888 12.2427 15.1527 12.5048C15.6805 13.1599 16.2082 13.815 16.604 14.5356C16.8679 14.9941 16.8019 15.5182 16.3401 15.8458C16.2082 15.9113 16.1422 15.9768 16.0103 16.1078C15.9443 16.1733 15.8124 16.2388 15.7464 16.3698C15.6145 16.5664 15.6145 16.7629 15.6805 16.9594C16.2082 18.4661 17.1977 19.6453 18.715 20.3004C18.9789 20.4314 19.1768 20.4969 19.5066 20.4969C19.9684 20.4314 20.1663 19.9074 20.4962 19.6453C20.826 19.3833 21.2218 19.3833 21.6176 19.5798C21.9475 19.7763 22.2773 20.0384 22.6731 20.3004C23.003 20.5624 23.3328 20.759 23.6627 21.021C23.8606 21.152 23.9265 21.4796 23.7946 21.8071ZM21.0239 16.8939C20.892 16.8939 20.9579 16.8939 21.0239 16.8939C20.76 16.8939 20.6941 16.7629 20.6281 16.5664C20.6281 16.4353 20.6281 16.2388 20.5621 16.1078C20.4962 15.8458 20.3642 15.5837 20.1004 15.3872C19.9684 15.3217 19.8365 15.2562 19.7045 15.1907C19.5066 15.1252 19.3747 15.1252 19.1768 15.1252C18.9789 15.0596 18.9129 14.9286 18.9129 14.7321C18.9129 14.6011 19.1108 14.4701 19.2428 14.4701C20.2983 14.5356 21.0899 15.1251 21.2218 16.3698C21.2218 16.4353 21.2218 16.5664 21.2218 16.6319C21.2218 16.7629 21.1559 16.8939 21.0239 16.8939ZM20.3642 14.0115C20.0344 13.8805 19.7045 13.7494 19.3087 13.6839C19.1768 13.6839 18.9789 13.6184 18.847 13.6184C18.6491 13.6184 18.5171 13.4874 18.5831 13.2909C18.5831 13.0944 18.715 12.9633 18.9129 13.0288C19.5726 13.0944 20.1663 13.2254 20.76 13.4874C21.9475 14.077 22.6072 15.0596 22.8051 16.3698C22.8051 16.4353 22.8051 16.5009 22.8051 16.5664C22.8051 16.6974 22.8051 16.8284 22.8051 17.0249C22.8051 17.0904 22.8051 17.156 22.8051 17.2215C22.7391 17.4835 22.2773 17.549 22.2114 17.2215C22.2114 17.156 22.1454 17.0249 22.1454 16.9594C22.1454 16.3698 22.0135 15.7802 21.7496 15.2562C21.3538 14.6666 20.892 14.2735 20.3642 14.0115ZM23.9265 17.9421C23.7286 17.9421 23.5967 17.7455 23.5967 17.549C23.5967 17.156 23.5307 16.7629 23.4648 16.3698C23.2009 14.2735 21.4857 12.5703 19.4407 12.2427C19.1108 12.1772 18.781 12.1772 18.5171 12.1117C18.3192 12.1117 18.0553 12.1117 17.9894 11.8497C17.9234 11.6531 18.1213 11.4566 18.3192 11.4566C18.3852 11.4566 18.4511 11.4566 18.4511 11.4566C21.1559 11.5221 18.5831 11.4566 18.4511 11.4566C21.2218 11.5221 23.5307 13.3564 23.9925 16.1078C24.0585 16.5664 24.1244 17.0249 24.1244 17.549C24.2564 17.7455 24.1244 17.9421 23.9265 17.9421Z" fill="white"/>
</svg>
