<svg width="37" height="36" viewBox="0 0 37 36" fill="none" xmlns="http://www.w3.org/2000/svg">
<circle cx="18.5" cy="18" r="18" fill="#7294C7"/>
<path d="M27.3257 22.6038C27.3257 22.5291 27.2509 22.5291 27.2509 22.4544C26.9521 21.8566 26.2796 21.1094 25.3829 20.2875C24.9346 19.9139 24.7104 19.615 24.561 19.4656C24.3368 19.1667 24.3368 18.9425 24.4116 18.6436C24.4863 18.4195 24.7851 18.0459 25.3082 17.3734C25.6071 16.9998 25.7565 16.7756 25.9807 16.5515C27.1015 15.057 27.6245 14.0857 27.4751 13.6373L27.4004 13.5626C27.3257 13.4879 27.2509 13.4132 27.1015 13.4132C26.952 13.3385 26.7279 13.3385 26.5037 13.4132H23.6644C23.5896 13.4132 23.5896 13.4132 23.4402 13.4132C23.3655 13.4132 23.2907 13.4132 23.2907 13.4132H23.216H23.1413L23.0666 13.4879C22.9919 13.5626 22.9918 13.5626 22.9918 13.6373C22.693 14.4593 22.3194 15.1318 21.9458 15.879C21.7216 16.2526 21.4974 16.6262 21.2733 16.9251C21.0491 17.2239 20.8997 17.4481 20.7502 17.5975C20.6008 17.747 20.4513 17.8217 20.3766 17.9711C20.3019 18.0459 20.1525 18.1206 20.1525 18.0459C20.0778 18.0459 20.003 18.0459 20.003 17.9711C19.9283 17.8964 19.8536 17.8217 19.7789 17.747C19.7042 17.6723 19.7041 17.5228 19.6294 17.3734C19.6294 17.2239 19.6294 17.0745 19.6294 16.9998C19.6294 16.9251 19.6294 16.7009 19.6294 16.5515C19.6294 16.3273 19.6294 16.1779 19.6294 16.1031C19.6294 15.879 19.6294 15.5801 19.6294 15.2812C19.6294 14.9823 19.6294 14.7582 19.6294 14.6087C19.6294 14.4593 19.6294 14.2351 19.6294 14.0857C19.6294 13.8615 19.6294 13.7121 19.6294 13.6373C19.6294 13.5626 19.5547 13.4132 19.5547 13.3385C19.48 13.2638 19.4053 13.189 19.3305 13.1143C19.2558 13.0396 19.1064 13.0396 19.0317 12.9649C18.6581 12.8901 18.2097 12.8154 17.6867 12.8154C16.4912 12.8154 15.6692 12.8902 15.3704 13.0396C15.2209 13.1143 15.0715 13.189 14.9968 13.3385C14.8473 13.4879 14.8473 13.5626 14.922 13.5626C15.2956 13.6374 15.5945 13.7868 15.744 14.011L15.8187 14.1604C15.8934 14.2351 15.8934 14.3846 15.9681 14.6087C16.0428 14.8329 16.0428 15.057 16.0428 15.3559C16.0428 15.8043 16.0428 16.2526 16.0428 16.5515C16.0428 16.9251 15.9681 17.1492 15.9681 17.3734C15.9681 17.5975 15.8934 17.747 15.8187 17.8217C15.744 17.9712 15.744 18.0459 15.6692 18.0459C15.6692 18.0459 15.6692 18.1206 15.5945 18.1206C15.5198 18.1206 15.4451 18.1953 15.2956 18.1953C15.2209 18.1953 15.0715 18.1206 14.9968 18.0459C14.8473 17.9712 14.6979 17.8217 14.6232 17.6723C14.4737 17.5228 14.3243 17.2987 14.1748 16.9998C14.0254 16.7009 13.8012 16.402 13.6518 15.9537L13.5023 15.6548C13.4276 15.5054 13.2782 15.2065 13.1287 14.8329C12.9793 14.4593 12.8299 14.1604 12.6804 13.7868C12.6057 13.6374 12.531 13.5626 12.4563 13.4879H12.3815C12.3815 13.4879 12.3068 13.4132 12.2321 13.4132C12.1574 13.4132 12.0827 13.3385 12.0079 13.3385H9.31798C9.0191 13.3385 8.86966 13.4132 8.79494 13.4879L8.72021 13.5626C8.72021 13.5626 8.72021 13.6374 8.72021 13.7121C8.72021 13.7868 8.72022 13.8615 8.79494 14.011C9.16854 14.9076 9.61686 15.8043 10.0652 16.7009C10.5135 17.5228 10.9618 18.27 11.2607 18.7931C11.6343 19.3161 11.9332 19.8392 12.3068 20.2875C12.6804 20.7358 12.9046 21.0347 12.9793 21.1841C13.1287 21.3336 13.2034 21.4083 13.2782 21.483L13.5023 21.7072C13.6518 21.8566 13.8759 22.0808 14.1748 22.3049C14.4737 22.5291 14.8473 22.7533 15.2209 22.9774C15.5945 23.2016 16.0428 23.351 16.4912 23.5005C17.0142 23.6499 17.4625 23.7246 17.9109 23.6499H19.0317C19.2558 23.6499 19.4053 23.5752 19.5547 23.4258L19.6294 23.351C19.6294 23.2763 19.7041 23.2763 19.7041 23.2016C19.7041 23.1269 19.7041 23.0522 19.7041 22.9027C19.7041 22.6038 19.7042 22.3797 19.7789 22.1555C19.8536 21.9313 19.8536 21.7819 19.9283 21.6325C20.003 21.483 20.0778 21.4083 20.1525 21.3336C20.2272 21.2589 20.3019 21.1841 20.3019 21.1841H20.3766C20.5261 21.1094 20.7502 21.1841 20.8997 21.3336C21.1238 21.483 21.348 21.7072 21.4974 21.9313C21.6469 22.1555 21.8711 22.3797 22.1699 22.6785C22.4688 22.9774 22.693 23.2016 22.8424 23.2763L23.0666 23.4258C23.216 23.5005 23.3655 23.5752 23.5896 23.6499C23.8138 23.7246 23.9632 23.7246 24.1127 23.7246L26.6532 23.6499C26.8773 23.6499 27.1015 23.5752 27.2509 23.5005C27.4004 23.4258 27.4751 23.351 27.4751 23.2016C27.4751 23.1269 27.4751 22.9774 27.4751 22.9027C27.3256 22.7533 27.3257 22.6785 27.3257 22.6038Z" fill="white"/>
</svg>
