<svg width="37" height="36" viewBox="0 0 37 36" fill="none" xmlns="http://www.w3.org/2000/svg">
<circle cx="18.8" cy="18" r="18" fill="#48C95F"/>
<path d="M25.9342 10.8563C24.1561 9.08447 21.7854 8.1001 19.283 8.1001C14.0805 8.1001 9.8659 12.3001 9.8659 17.4845C9.8659 19.1251 10.3269 20.7657 11.1171 22.1438L9.80005 27.0001L14.8049 25.6876C16.1879 26.4095 17.7025 26.8032 19.283 26.8032C24.4854 26.8032 28.7001 22.6032 28.7001 17.4188C28.6342 14.9907 27.7122 12.6282 25.9342 10.8563ZM23.8269 20.8313C23.6293 21.3563 22.7074 21.8813 22.2464 21.947C21.8513 22.0126 21.3244 22.0126 20.7976 21.8813C20.4683 21.7501 20.0074 21.6188 19.4805 21.3563C17.1098 20.372 15.5952 18.0095 15.4635 17.8126C15.3318 17.6813 14.4757 16.5657 14.4757 15.3845C14.4757 14.2032 15.0683 13.6782 15.2659 13.4157C15.4635 13.1532 15.7269 13.1532 15.9244 13.1532C16.0561 13.1532 16.2537 13.1532 16.3854 13.1532C16.5171 13.1532 16.7147 13.0876 16.9122 13.547C17.1098 14.0063 17.5708 15.1876 17.6366 15.2532C17.7025 15.3845 17.7025 15.5157 17.6366 15.647C17.5708 15.7782 17.5049 15.9095 17.3732 16.0407C17.2415 16.172 17.1098 16.3688 17.0439 16.4345C16.9122 16.5657 16.7805 16.697 16.9122 16.8938C17.044 17.1563 17.5049 17.8782 18.2293 18.5345C19.1513 19.322 19.8757 19.5845 20.1391 19.7157C20.4025 19.847 20.5342 19.7813 20.6659 19.6501C20.7976 19.5188 21.2586 18.9938 21.3903 18.7313C21.522 18.4688 21.7196 18.5345 21.9171 18.6001C22.1147 18.6657 23.3 19.2563 23.4976 19.3876C23.761 19.5188 23.8927 19.5845 23.9586 19.6501C24.0244 19.847 24.0244 20.3063 23.8269 20.8313Z" fill="white"/>
</svg>
