<svg width="174" height="19" viewBox="0 0 174 19" fill="none" xmlns="http://www.w3.org/2000/svg">
<path d="M29.6045 2.06543H33.3919V7.95156H39.8764V2.06543H43.6638V17.2832H39.8764V11.11H33.3919V17.2832H29.6045V2.06543Z" fill="black"/>
<path d="M54.0034 17.6276C52.9706 17.6276 51.9854 17.4745 51.048 17.1682C50.1299 16.8428 49.3266 16.3642 48.6379 15.7326C47.9493 15.0817 47.404 14.2682 47.0024 13.292C46.6007 12.2966 46.3999 11.1385 46.3999 9.81772V9.24346C46.3999 7.98009 46.5912 6.87942 46.9737 5.94149C47.3563 5.00354 47.8823 4.22827 48.5518 3.61575C49.2214 2.98406 49.996 2.51508 50.8759 2.20882C51.7559 1.8834 52.7026 1.7207 53.7164 1.7207C56.1075 1.7207 57.9247 2.35238 59.1681 3.61575C60.4115 4.87911 61.0332 6.70717 61.0332 9.0999V10.7078H50.2735C50.2925 11.3778 50.4073 11.9616 50.6177 12.4593C50.828 12.9378 51.1055 13.3302 51.4497 13.6365C51.7941 13.9428 52.1863 14.1725 52.6261 14.3256C53.0852 14.4596 53.5443 14.5266 54.0034 14.5266C54.979 14.5266 55.7154 14.383 56.2127 14.0959C56.71 13.8088 57.0639 13.3877 57.2743 12.8326H60.7462C60.4402 14.4213 59.6846 15.6177 58.4794 16.4217C57.2743 17.2256 55.7823 17.6276 54.0034 17.6276ZM53.86 4.82169C53.4199 4.82169 52.9801 4.87911 52.5402 4.99395C52.1193 5.10881 51.7462 5.29065 51.421 5.53951C51.096 5.78834 50.828 6.12334 50.6177 6.54445C50.4073 6.96556 50.2925 7.47284 50.2735 8.06623H57.3604C57.3412 7.43455 57.236 6.90814 57.0447 6.48703C56.8726 6.0659 56.6241 5.73092 56.2989 5.48207C55.9927 5.23324 55.6292 5.06095 55.2086 4.96525C54.7877 4.86954 54.3381 4.82169 53.86 4.82169Z" fill="black"/>
<path d="M67.182 5.22386H62.333V2.06543H75.8183V5.22386H70.9694V17.2832H67.182V5.22386Z" fill="black"/>
<path d="M84.7134 17.6276C83.6803 17.6276 82.6952 17.4745 81.758 17.1682C80.8398 16.8428 80.0365 16.3547 79.3479 15.7038C78.6592 15.053 78.114 14.2395 77.7123 13.2633C77.3107 12.287 77.1099 11.1385 77.1099 9.81772V9.24346C77.1099 7.99923 77.3107 6.90814 77.7123 5.97019C78.114 5.03223 78.6592 4.24743 79.3479 3.61575C80.0365 2.98406 80.8398 2.51508 81.758 2.20882C82.6952 1.8834 83.6803 1.7207 84.7134 1.7207C85.7462 1.7207 86.7218 1.8834 87.64 2.20882C88.5582 2.51508 89.3615 2.98406 90.0501 3.61575C90.758 4.24743 91.3125 5.03223 91.7144 5.97019C92.116 6.90814 92.3169 7.99923 92.3169 9.24346V9.81772C92.3169 11.1194 92.116 12.2583 91.7144 13.2345C91.3125 14.2108 90.758 15.0243 90.0501 15.6751C89.3615 16.326 88.5582 16.8141 87.64 17.1395C86.7218 17.4649 85.7462 17.6276 84.7134 17.6276ZM84.7134 14.4118C85.7844 14.4118 86.6739 14.0289 87.3818 13.2633C88.1086 12.4976 88.472 11.3491 88.472 9.81772V9.24346C88.472 7.8461 88.1086 6.78372 87.3818 6.05633C86.6739 5.30981 85.7844 4.93653 84.7134 4.93653C83.6231 4.93653 82.7239 5.30981 82.0163 6.05633C81.3084 6.78372 80.9547 7.8461 80.9547 9.24346V9.81772C80.9547 11.3682 81.3084 12.5263 82.0163 13.292C82.7239 14.0385 83.6231 14.4118 84.7134 14.4118Z" fill="black"/>
<path d="M94.8948 17.6278C94.7417 17.6278 94.5506 17.6182 94.321 17.5991C94.0915 17.5991 93.9002 17.5799 93.7471 17.5417V14.1248C93.8427 14.144 93.9863 14.1535 94.1774 14.1535C94.5409 14.1535 94.8566 14.0483 95.1243 13.8377C95.3921 13.608 95.6122 13.2252 95.7843 12.6892C95.9756 12.1532 96.1095 11.445 96.1859 10.5644C96.2816 9.66475 96.3295 8.55454 96.3295 7.23374V2.06543H108.38V17.2832H104.593V5.22386H99.8299V7.808C99.8299 9.77961 99.7248 11.4067 99.5144 12.6892C99.3231 13.9525 99.0169 14.9479 98.5962 15.6753C98.1944 16.4027 97.6781 16.91 97.0469 17.1971C96.4347 17.4842 95.7173 17.6278 94.8948 17.6278Z" fill="black"/>
<path d="M118.702 17.6276C117.669 17.6276 116.684 17.4745 115.746 17.1682C114.828 16.8428 114.025 16.3547 113.336 15.7038C112.648 15.053 112.102 14.2395 111.701 13.2633C111.299 12.287 111.098 11.1385 111.098 9.81772V9.24346C111.098 7.99923 111.299 6.90814 111.701 5.97019C112.102 5.03223 112.648 4.24743 113.336 3.61575C114.025 2.98406 114.828 2.51508 115.746 2.20882C116.684 1.8834 117.669 1.7207 118.702 1.7207C119.735 1.7207 120.71 1.8834 121.628 2.20882C122.546 2.51508 123.35 2.98406 124.039 3.61575C124.746 4.24743 125.301 5.03223 125.703 5.97019C126.104 6.90814 126.305 7.99923 126.305 9.24346V9.81772C126.305 11.1194 126.104 12.2583 125.703 13.2345C125.301 14.2108 124.746 15.0243 124.039 15.6751C123.35 16.326 122.546 16.8141 121.628 17.1395C120.71 17.4649 119.735 17.6276 118.702 17.6276ZM118.702 14.4118C119.773 14.4118 120.662 14.0289 121.37 13.2633C122.097 12.4976 122.461 11.3491 122.461 9.81772V9.24346C122.461 7.8461 122.097 6.78372 121.37 6.05633C120.662 5.30981 119.773 4.93653 118.702 4.93653C117.611 4.93653 116.712 5.30981 116.005 6.05633C115.297 6.78372 114.943 7.8461 114.943 9.24346V9.81772C114.943 11.3682 115.297 12.5263 116.005 13.292C116.712 14.0385 117.611 14.4118 118.702 14.4118Z" fill="black"/>
<path d="M129.307 2.06543H140.21V5.22386H133.094V17.2832H129.307V2.06543Z" fill="black"/>
<path d="M142.498 2.06543H146.285V11.8278L153.056 2.06543H156.557V17.2832H152.769V7.52088L145.998 17.2832H142.498V2.06543Z" fill="black"/>
<path d="M163.079 11.5694C161.912 11.1865 161.061 10.6123 160.526 9.84663C159.99 9.08093 159.722 8.18126 159.722 7.1476C159.722 6.40108 159.847 5.72155 160.095 5.109C160.363 4.47732 160.755 3.94134 161.272 3.50107C161.788 3.04167 162.439 2.68754 163.223 2.43871C164.026 2.18986 164.963 2.06543 166.035 2.06543H173.208V17.2832H169.42V12.0288H166.694L163.395 17.2832H159.148L163.079 11.5694ZM163.51 7.1476C163.51 7.79844 163.72 8.27699 164.141 8.58324C164.581 8.88952 165.164 9.04267 165.891 9.04267H169.42V5.22386H165.891C165.164 5.22386 164.581 5.38655 164.141 5.71196C163.72 6.01823 163.51 6.49679 163.51 7.1476Z" fill="black"/>
<path fill-rule="evenodd" clip-rule="evenodd" d="M4.89559 9.95652C4.77468 9.94682 4.65244 9.94189 4.52905 9.94189C2.02772 9.94189 0 11.9696 0 14.4709C0 16.9723 2.02772 19 4.52905 19C7.03037 19 9.0581 16.9723 9.0581 14.4709C9.0581 14.2789 9.04615 14.0897 9.02295 13.904C6.88117 13.7325 5.15963 12.0709 4.89559 9.95652Z" fill="#5D00F5"/>
<path fill-rule="evenodd" clip-rule="evenodd" d="M9.0581 4.52905C9.0581 2.02773 7.03037 0 4.52905 0C2.02772 0 2.48501e-07 2.02773 0 4.52905C-4.49951e-07 7.03037 2.02772 9.0581 4.52905 9.0581C4.64488 9.0581 4.7597 9.05375 4.87332 9.04522C5.04072 6.81836 6.81836 5.04072 9.04522 4.87332C9.05375 4.7597 9.0581 4.64488 9.0581 4.52905Z" fill="#EB236B"/>
<path fill-rule="evenodd" clip-rule="evenodd" d="M13.904 9.02295C14.0897 9.04615 14.2789 9.0581 14.4709 9.0581C16.9723 9.0581 19 7.03037 19 4.52905C19 2.02773 16.9723 0 14.4709 0C11.9696 0 9.94189 2.02773 9.94189 4.52905C9.94189 4.65244 9.94682 4.77468 9.95652 4.89559C12.0709 5.15963 13.7325 6.88117 13.904 9.02295Z" fill="#4BD0A0"/>
<path fill-rule="evenodd" clip-rule="evenodd" d="M9.98003 13.8805C9.95486 14.0737 9.94189 14.2708 9.94189 14.4709C9.94189 16.9723 11.9696 19 14.4709 19C16.9723 19 19 16.9723 19 14.4709C19 11.9696 16.9723 9.94189 14.4709 9.94189C14.2708 9.94189 14.0737 9.95486 13.8805 9.98003C13.6163 12.0091 12.0091 13.6163 9.98003 13.8805Z" fill="#0066FF"/>
</svg>
